<svg xmlns="http://www.w3.org/2000/svg" viewBox="0 0 2599.43 330.9"><defs><style>.cls-1{fill:#c3967b;fill-rule:evenodd;}</style></defs><g id="Layer_2" data-name="Layer 2"><g id="Layer_1-2" data-name="Layer 1"><path class="cls-1" d="M2582,54.6c6.89-9.4,7.22-23.8,2.25-34.45l-.35-.71a13,13,0,0,1,4-2.62c1-.38,1.64-.45,1.62,1.17s.69,3.28,1.09,5a30.76,30.76,0,0,1,.62,9,40.31,40.31,0,0,1-5,17.47,23.81,23.81,0,0,1-3.77,5l-.45.16Zm-26.6-40.13h0a1,1,0,0,1,.86-.42c.23,0,.5.16.35.46a6.72,6.72,0,0,0-.64,2.14,10.79,10.79,0,0,0,.06,2.27.4.4,0,0,1-.05.22c1.32,1.07,2.64,2.13,3.91,3.29.5.46,1,.94,1.52,1.43a16,16,0,0,1-1.45-6.49h0c0-.56,1.32-.84,1.3-.17a13.24,13.24,0,0,0,.77,4.38,33.93,33.93,0,0,0,1.68,4.08.39.39,0,0,1-.06.44A55.08,55.08,0,0,1,2572.47,38l.16-.65a49.47,49.47,0,0,1,4.85-12.24c.32-.56.65-1.11,1-1.66a6.42,6.42,0,0,0-1-2.95h0c-.16-.29.16-.51.35-.61a1.16,1.16,0,0,1,.51-.12c.09,0,.29,0,.35.13a9.7,9.7,0,0,1,.88,1.94,24.61,24.61,0,0,1,2.59-3.13l-.35-.64A34.14,34.14,0,0,0,2570.07,6.3,46.76,46.76,0,0,0,2564,3.06c-1.58-.7-3.69-2-5.39-1.37-2.14.74-2.76,3.66-3.49,5.81-1,2.76-1.78,5.57-2.55,8.4l-.08.32.39.35c.57.51,1.15,1,1.73,1.48a9.88,9.88,0,0,1,0-1.22,7.37,7.37,0,0,1,.73-2.36Zm-.69,4.73v.13c0,.12.18.19.26.21a.58.58,0,0,0,.19,0c.86.69,1.72,1.39,2.56,2.12,1.61,1.41,3.2,2.9,4.71,4.47l.06.12a.35.35,0,0,0,.23.18,57.53,57.53,0,0,1,5.94,7.27,41.18,41.18,0,0,1,3.4,6A61.33,61.33,0,0,0,2570.21,51a.84.84,0,0,0,.32.59,8.15,8.15,0,0,1,.32-.77c-.33-.13-.62-.12-.64.18,0,.64-.06,1.31-.08,2-.44,2.17.29,3.67-2.12,5a4.86,4.86,0,0,1-1.71.51,7.9,7.9,0,0,1-1-.76,16.68,16.68,0,0,1-2-2.27,14,14,0,0,1-2.64-5.52c-.09-.48-1.4-.1-1.3.41h0a14.24,14.24,0,0,0,2.64,5.56,16.72,16.72,0,0,0,2,2.29,5.08,5.08,0,0,0,.5.44,9.55,9.55,0,0,0-2.17.33,17.89,17.89,0,0,1-2-.52c-.22-.06-.44-.14-.66-.21a18.13,18.13,0,0,1-2.26-2.72c-.8-1.13-1.52-2.34-2.23-3.55s-1.12-2.46-1.84-3.58c-.26-.42-1.52.1-1.21.6h0c.74,1.14,1.21,2.49,1.9,3.67s1.5,2.54,2.36,3.72c.13.19.27.37.41.55a14.74,14.74,0,0,1-5.74-5.77c-2.75-5-2.37-11-1.83-16.65a111.34,111.34,0,0,1,3.05-17.37c.33.3.66.6,1,.88l1.44,1.15Zm22.17,32.66h0c-.11-.32.37-.59.55-.64s.64-.1.75.23a3.62,3.62,0,0,1,.08,1.67,12.78,12.78,0,0,1-.49,2c-.16.46-.32.94-.51,1.4a13.63,13.63,0,0,0,3.22-3c.2-.24.57-.17.91,0-.15.22-.29.44-.45.65l-.12.17c-.3-.27-.5-.62-.34-.85a28.18,28.18,0,0,0,4.56-10c0-.21,0-.42.07-.62h0a.4.4,0,0,1,.14-.27A36.48,36.48,0,0,0,2583,20.35a37,37,0,0,0-6.15,10.08,60.48,60.48,0,0,0-3.18,9.9,27.57,27.57,0,0,1,2.3,16.24,13.64,13.64,0,0,0,.51-1.34,10.66,10.66,0,0,0,.47-1.95,3.09,3.09,0,0,0-.07-1.42Zm-18.21,7.21a8.4,8.4,0,0,0,1.79,1.28,4.38,4.38,0,0,0-.34.56,15.23,15.23,0,0,1-3.83-1.12c-1.1-.49-.74.71,0,1a18.67,18.67,0,0,0,3.31,1.11.88.88,0,0,0-.06.63c.17.34.55-.21,1.28-.4.28,0,.55.09.83.12a19.9,19.9,0,0,0,7.54,1.43c.56,1.88,1.54,4.47,3,5.22a210.37,210.37,0,0,0,25.69,61.81l0,0c.15-.55.3-1.1.44-1.66s.44-1.35.67-2a206.52,206.52,0,0,1-24.11-58.75c0-.12,0-.22-.08-.31,1-1.54,1.16-4.15,1.08-5.91a20.31,20.31,0,0,0,5-4,19.45,19.45,0,0,0,3.63-3.18c.47-.13.84-.24.86-.43s-.11-.19-.28-.24c4.61-5.51,7.25-13.72,7.72-21.42a32.06,32.06,0,0,0-.75-9.63c-.27-1.1-.78-2.22-.95-3.34-.11-.69.06-1.36-.09-2a3.53,3.53,0,0,0-2.25-2.52c-1.74-.53-4,1.09-5.32,2.21l-.4.35C2577.93,9,2568.79,3.21,2560.3.42a4.15,4.15,0,0,0-5,1.64,15.86,15.86,0,0,0-1.39,3.45c-.55,1.54-1.06,3.1-1.55,4.67s-.93,3.14-1.35,4.73c-1.05-.86-2.23-1.59-3.24-1.28-.12,0-.23.08-.23.25,0,1.42,0,2.84-.13,4.26a58.17,58.17,0,0,1-1.24,6.68,57.5,57.5,0,0,0-.72,16.92c.93,7.85,4.23,15.94,10.81,19.09,1.09.53.72-.68,0-1-7-3.36-9.33-13.53-9.54-21.56a66.73,66.73,0,0,1,1.83-16.51,22.92,22.92,0,0,0,.52-4.69c0-.62,0-1.25,0-1.88,0-.2.06-.4,0-.35s.63.35.78.44a10.87,10.87,0,0,1,.91.65A122.91,122.91,0,0,0,2548,30.32c-.8,6.2-1.68,13.28.84,19.09a18.17,18.17,0,0,0,8.46,9q.66.33,1.35.63Zm23.2-4.42.13,0a.25.25,0,0,0,.05-.19l-.18.24Zm-7.82,3a13.71,13.71,0,0,0,.32-1.64,24.31,24.31,0,0,0,.4-3.17,24.9,24.9,0,0,0-.6-7.11,31,31,0,0,0-1-3.36,59.64,59.64,0,0,0-1.23,7.41,1.32,1.32,0,0,1,.31.8c.27,1.85.48,6.06.93,6.82C2573.27,57.59,2573.58,57.66,2574,57.66Z"/><path class="cls-1" d="M2366.3,156.19c-.65,2.46-1.26,5-1.88,7.65-.42,1.77-.84,3.55-1.29,5.34-1.17,7-1.52,14-2.65,21-2.26,14.05-9,24.31-20.62,34.31-13.28,11.41-25.41,23.55-30.13,39.52-4.58,15.47.69,31.5,3.8,46.92.69,1.44,1.41,2.86,2.13,4.26a36.79,36.79,0,0,1-.29-6.09,116.39,116.39,0,0,1,2.28-23.08c3.52-16,12.22-29.9,24.66-42.09,7.08-6.92,13.86-13.65,17.76-22.35,3.73-8.3,4.39-16.79,3.89-25.58a158.76,158.76,0,0,1,2.48-36.43c-.08-1.13-.13-2.26-.14-3.39ZM2183,112.85c25,10.11,49.45,19.83,76.37,25.76a379,379,0,0,0,41.59,6.8c12.28,1.29,25.26,2.74,37.34-.1q-3-.15-6-.36a263.69,263.69,0,0,1-42.64-6.74c-35.61-8.31-71.18-16.66-106.66-25.36Zm150.79,34.76a65,65,0,0,1-11.31,2.54c-7.75.87-15.42-.46-23.53-1.87-3.51-.61-7.15-1.24-10.77-1.67-4.52-.54-9.12-.76-13.56-1-4.05-.19-8.24-.4-12.29-.84-24.12-2.63-45.75-13.63-66.66-24.28-5.91-3-11.93-6.08-18.06-9l4.85,1.2c26.25,12.28,53.06,22.49,82.19,28.77a335.7,335.7,0,0,0,43.44,6.43c8.66.71,17.36,1.23,25.7-.31ZM2192.94,110c5.76-.38,11.51-1,17.19-1.63,11.52-1.24,23.43-2.54,34.9-1.74a98,98,0,0,1,27.16,5.88c8.92,3.29,17.41,7.87,25.63,12.31,6.9,3.72,13.94,7.52,21.35,10.63-15.51-3.46-30.68-8.1-44.43-14.43-7-3.2-13.69-7-21.39-8.86s-15.65-1.58-23.54-1.29a290.35,290.35,0,0,1-36.87-.87ZM2336.39,141l.14,0c4.81,1,9.07,1.81,13,2.34-1.19.24-2.4.49-3.63.78-21,.23-42.63-4.42-62.15-8.94-35.8-8.27-71.62-16.45-107.55-24.28l-1.66-.77a123.92,123.92,0,0,0,15.54.08,269.25,269.25,0,0,0,39.6,2.32c8.94-.12,18-.16,26.46,2.62,7.48,2.45,14.09,6.46,21.24,9.5a236.9,236.9,0,0,0,59,16.32Zm-177.6-34a1.53,1.53,0,0,1-.21-1.58,2.18,2.18,0,0,1,2.53-1c15.49,4.17,31.53,2.43,48.51.59,11.72-1.28,23.85-2.59,35.74-1.76a102.73,102.73,0,0,1,28.46,6.15c9.21,3.4,17.84,8.06,26.19,12.56,12.31,6.65,23.94,12.93,37.47,15.69s21.76,4.18,30.82,1.27l.58-.22a111.38,111.38,0,0,1,16.57-8.7c19.49-8.22,41.88-11.74,63.55-10.78.15,0,.13.2,0,.2h0a145.32,145.32,0,0,0-61.48,14.2q-4,1.89-7.86,4c-.82.47-1.61.92-2.4,1.34q-2.53,1.44-5,3c-4,13.22-.86,26.68,2.48,40.92,2.93,12.49,6,25.41,3.65,38.13-3.23,17.74-16.19,32.5-28.73,46.77-1.92,2.19-3.84,4.37-5.71,6.56-11.68,13.6-26.56,34.06-20.93,54.48a1.72,1.72,0,0,1-1.31,2,2.24,2.24,0,0,1-2.39-.68,1.13,1.13,0,0,1-.13-.2c-7.78-13.7-16.36-29.74-19.83-46.69-3.75-18.36-.73-35.75,8.51-49,5.61-8,13.56-14.72,21.23-21.18,9.52-8,18.5-15.57,23.52-25.49,3.79-7.5,5.83-16.11,7.81-24.45a122.24,122.24,0,0,1,4.66-16.39q-1.91,1.38-3.74,2.84c-8.36,6.59-15.12,14.38-22.67,21.61a87.33,87.33,0,0,1-20.33,14.25,76.69,76.69,0,0,0-15.88,15.48,122.55,122.55,0,0,0-10.11,16.25c-1.8,3.27-3.66,6.65-5.69,9.9-17.29,27.71-49,48.7-84.76,56.15-12.75,2.65-26.16,3.71-39.13,4.73-22.39,1.77-43.54,3.43-62.1,12.53a2.33,2.33,0,0,1-1.24.22l-.34.23c-.29.19-.66-.17-.37-.37l0,0a2,2,0,0,1-.81-.6,1.52,1.52,0,0,1,0-1.87c10.77-14.89,29.34-25.25,49.65-27.71,1.18-.14,2.35-.26,3.53-.38a44.53,44.53,0,0,0,10.86-2c5.13-1.86,9-5.57,12.91-9.53,1.6-1.64,3.19-3.29,4.79-5,11.42-11.89,23.24-24.18,39.88-30.51a131.29,131.29,0,0,1,15.55-4.45c2-.47,3.92-1,5.86-1.45,18.81-4.91,35.71-12.5,52.31-21.71-14.27,4.35-29.32,7.24-43.54,9.85-13.35,2.46-27.53,5.12-41.38,4.59-4.72.7-9.25,1.49-13.64,2.27-5,.88-10.28,1.8-15.8,2.58-7.46,1-15.19,2.13-22.34,4.42a126.19,126.19,0,0,0-13.28,5.37c-2.47,1.1-4.93,2.21-7.44,3.23-9.28,3.79-19,6.4-29,9-20.47,5.26-42.11,9.86-61.93,3.36a107.92,107.92,0,0,1-13.74-5.93c-5.94-2.91-11.55-5.66-17.86-7-7.79-1.61-16.3-.82-23.8-.12a2.22,2.22,0,0,1-1.93-.78,1.52,1.52,0,0,1-.28-.57,1.71,1.71,0,0,1,1.32-2l92.17-27.61c8.42-2.52,17.13-5.12,26.18-6.33a88,88,0,0,1,27.15.6c8.56,1.53,17.45,4.32,26.86,7.26,14.18,4.45,28.77,9,42.11,9,31.68-2.76,63.15-7.92,93.07-17.42-12.71,2.53-25,3.58-39.92,1.15-4.85-.79-9.67-1.9-14.32-3-5.4-1.25-11-2.54-16.54-3.3s-11.16-1-16.67-1.24c-4.82-.22-9.81-.44-14.72-1-21.05-2.36-40.82-10.78-55.66-23.71-3.35-2.91-6.46-6.06-9.46-9.11-2.7-2.74-5.49-5.57-8.42-8.19a100.58,100.58,0,0,0-29.37-18.11,2,2,0,0,1-.83-.62,1.53,1.53,0,0,1-.28-1.34,2,2,0,0,1,2-1.36c25.6.1,54.62.21,80.13,9.4,6.28,2.26,12.33,5.07,18.18,7.78,7.5,3.48,15.25,7.07,23.36,9.44,3.63,1.06,7.46,1.92,11.17,2.75,7.71,1.72,15.68,3.5,22.62,7.24a77.37,77.37,0,0,1,12.12,8.62,82.41,82.41,0,0,0,10.38,7.58c13.41,7.79,30.31,8.13,49.4,7.6,1.62-1,3.25-2.06,4.88-3.11l1.18-.83a2,2,0,0,1,.57-.29l.66-.43a124.75,124.75,0,0,0,12.82-11.75A193.58,193.58,0,0,1,2360,144.87c-2,.42-3.88.78-5.78,1.14a109.47,109.47,0,0,0-11.07,2.45c-1.49.44-3,.9-4.48,1.36A85,85,0,0,1,2323,153.6c-8.44,1-16.8-.5-24.89-1.9-3.45-.6-7-1.22-10.51-1.64-4.36-.51-8.87-.73-13.23-.95-4.12-.2-8.38-.41-12.58-.87-25-2.71-47-13.91-68.23-24.74-11-5.59-22.31-11.36-33.91-15.89a1.9,1.9,0,0,1-.85-.63Zm-58.11,15.89,2.32,0a353.66,353.66,0,0,1,45.43,9.13c15.93,4.42,33.23,9.33,45.7,19.12,11,8.61,24.22,9.82,38.18,13a272,272,0,0,1,34.61,10.46l.72.43c11.27,6.54,25.32,8.15,38.15,8.37l-2.59.61a93.31,93.31,0,0,1-15.77-.07c-10.19-1.12-19.11-5.3-28.6-8.31-18.7-5.93-38.85-5.32-57.78-10.19-20.6-5.31-31.66-21.17-50-29.51-8.16-3.72-17.29-5.42-26.17-7.39-7.23-1.6-14.45-3.23-21.67-4.84l-2.58-.83Zm10.72,3.42c5.22,1.33,10.45,2.65,15.67,4,10.2,2.63,20.36,5.16,29,10.65,8,5.08,14.78,11.52,22.33,17.09a65,65,0,0,0,25,11c19.65,4.36,39.67,4.82,58.91,10.94,8.9,2.83,17.7,5.84,27.25,6.55l.87.06a99.45,99.45,0,0,1-33.41.25c-3.8-.62-7.63-1.46-11.38-2.32a161.75,161.75,0,0,0-36.83-10.6c-7.45-1.18-15-1.88-22.31-3.79A48.16,48.16,0,0,1,2166.26,159c-10.2-9.05-20.46-17.25-33.1-23.84a137.17,137.17,0,0,0-21.76-8.84Zm122.12,55.56c-2.47-.5-5-.94-7.47-1.28-5.7-.78-11.5-1-17.1-1.28-4.75-.21-9.66-.43-14.41-1-20.14-2.25-39.06-10.31-53.27-22.68-3.24-2.82-6.29-5.93-9.25-8.92-2.74-2.78-5.58-5.66-8.59-8.35a102.14,102.14,0,0,0-19.89-13.86c11.11,4.17,21.25,7.22,32.2,13.44a141.85,141.85,0,0,1,19.75,13.41c5.12,4.19,9.55,9,14.94,12.95,9.27,6.79,20.91,8.52,32.6,10.16,10.73,1.51,20.57,4.36,30.49,7.38ZM2107.57,123c21,.37,43.2,1.87,63,9,6.09,2.19,12,5,17.82,7.63,7.64,3.55,15.54,7.21,24,9.68,3.77,1.1,7.68,2,11.46,2.82,7.75,1.73,15.07,3.37,21.48,6.82a73.36,73.36,0,0,1,11.48,8.19c1.59,1.3,3.21,2.61,4.89,3.88a279.88,279.88,0,0,0-28.81-8.16c-7.49-1.77-15.23-2.92-22.6-5-9-2.56-14.15-8.21-21.65-12.67-12.72-7.57-29.62-11.82-44.36-15.51a277.44,277.44,0,0,0-36.65-6.66Zm-95.91,100.36a101.51,101.51,0,0,1,23.65,3c15.63,3.85,29.39,9,46,6.34,12.71-2,24.56-6.7,37.09-9.33,8.4-1.78,17.59-1.84,26.19-3.36a107.56,107.56,0,0,1,10.51-4.1c7.52-2.41,15.44-3.53,23.11-4.6,3.33-.47,6.58-1,9.74-1.53-30.09-3.56-59.53,5.75-89.11,10.33-16.07,2.49-33,5.69-49.35,3-8.74-1.42-17-3-26-2.74-5,.11-10,.56-14.89,1.16l-3.33.85-1.22.37a57.17,57.17,0,0,1,7.6.57Zm127.14-.76c-5.42.72-11,1-16.1,1.91-13.31,2.35-25.76,7.31-39,9.71s-25.3.5-37.88-3.44c-10-3.16-19.6-5.58-29.51-6.51,6.09,1.55,11.61,4.25,17,6.87a104.72,104.72,0,0,0,13.17,5.71c18.61,6.1,39.49,1.64,59.28-3.45,9.8-2.52,19.36-5.1,28.37-8.77,1.6-.65,3.18-1.34,4.75-2Zm-112.87-6.34c23-4.95,45.51-10.35,67.42-18.07,13-4.58,27.27-5.38,41.27-4.16l-1.32-.25a83.77,83.77,0,0,0-25.68-.57c-8.68,1.16-17.21,3.71-25.46,6.18l-71.94,21.55c11.88-3.16,24-5.85,36.42-6.42,7.44-.33,14.88.25,22.32.08a148.8,148.8,0,0,0,24.59-3c24.32-4.67,50-13.21,74.76-8-2.92-.87-5.83-1.79-8.72-2.69-4.92-1.55-9.71-3.05-14.35-4.34-8.43-.52-16.85-1.14-25.3-1.2-12.28-.08-22.31,3.18-33.6,6.86-19.55,6.37-40,10.24-60.39,14.12a0,0,0,1,1,0-.09Zm151-10.19a.3.3,0,0,1,0,.15l.65,0-.7-.18Zm-1.77.1c-29-7.51-57.4,3.18-85.73,7.75-14,2.27-27.42,1-41.56,1.24-13.07.22-25.77,3-38.26,6.16a140.34,140.34,0,0,1,36.32.27c18.89,2.73,38.84-1.67,57.41-4.74,16.63-2.75,33-6.67,49.73-9a141.1,141.1,0,0,1,22.09-1.64Zm55.07,17.28a115.46,115.46,0,0,0-22.14,14.12c-8.34,6.66-16.42,13.79-26.08,19q-2,2.09-4,4.14a73.17,73.17,0,0,1-5.41,5.11c.63-.35,1.26-.72,1.89-1.09,7.15-4.16,14.46-6.77,22.27-9.82,16.65-6.5,25.06-22.41,40.47-30.7a139.4,139.4,0,0,1,14.43-6.51q-4.68,1.48-9.52,2.75c-2,.51-3.95,1-5.93,1.47s-4,1-6,1.48ZM2185.42,253c13.67-8.92,25.21-20.52,39.76-28.18-1.36.42-2.69.87-4,1.37-14.52,5.52-25.43,16.12-35.76,26.81Zm86.54-43c-9.49,4.8-19.95,8.2-29.72,12.86-9.07,4.34-15.64,9.84-22.25,16.58-5.25,5.35-10.48,10.91-17.42,14.75-7.87,4.35-17,6.29-24.93,10.8-6.12,3.49-12.07,7.29-19.08,9.38-8,2.39-16.49,2.44-24.63,4.18-10.4,2.23-17.07,7.77-23.71,14.15a152.1,152.1,0,0,1,29.32-6.14,63.89,63.89,0,0,0,10-2.38c8.6-2.89,16.29-7.37,24.15-11.43a169.6,169.6,0,0,1,25.65-10.42c19.79-6.46,40.7-14.87,54.91-28.65,6.79-6.58,12.51-13.83,19.7-20.12,4.68-4.08,9.65-7.89,14.74-11.59-5.49,2.87-11,5.56-16.69,8ZM2108.64,293.3a61.06,61.06,0,0,1,10.48-9.51,63.49,63.49,0,0,0-13,10.44l2.55-.93Zm19.29-14.05c5.74-2,12-2.72,18.12-3.67a67.34,67.34,0,0,0,11.83-2.91c-2.11.36-4.23.57-6.32.77-1.15.12-2.29.23-3.43.37a73.47,73.47,0,0,0-20.2,5.44Zm162.18-78c-5.47,4.07-10.84,8.24-15.83,12.72-7.09,6.37-12.73,13.67-19.49,20.26-13.12,12.8-32.32,21.19-50.6,27.38-9,3.05-18,5.84-26.46,10-7.68,3.81-15,8.17-23,11.48a59,59,0,0,1-8.45,2.75c5.38-.54,10.78-1,16.13-1.39,4.28-.34,8.61-.68,12.94-1.08a179.78,179.78,0,0,0,53.82-20.58A152.06,152.06,0,0,0,2271,227.39c6.23-7.73,10.55-16.73,17.9-23.75,1.66-1.59,3.43-3.1,5.28-4.57q-2,1.11-4.06,2.19Zm8.29-4.55a71.23,71.23,0,0,0-11.76,10.87c-6.21,7.48-10.54,15.94-16.89,23.39a155.45,155.45,0,0,1-41.42,33.76,180.06,180.06,0,0,1-43.77,17.71c5.53-.66,11-1.49,16.36-2.6,34.67-7.21,65.37-27.55,82.12-54.4,2-3.18,3.82-6.51,5.6-9.74A126,126,0,0,1,2299,199c1.47-1.88,2.89-3.58,4.31-5.14-1.65,1-3.29,1.91-4.94,2.85Zm56.18-4.58c.64-1,1.23-2.08,1.78-3.16a83.9,83.9,0,0,0,5.86-16.22c-1,5.09-1.89,10.23-2.81,15.44-1.57,8.91-4.16,17.59-10.37,25-5.86,7-13.84,12.53-20.55,18.94-10.43,10-18.81,22-21.6,35.27-2.49,11.87.24,24.38,3.36,36.36a109.29,109.29,0,0,1-6.88-21.17,75.35,75.35,0,0,1-1.37-10.14,70.82,70.82,0,0,1,5.81-20.29c4.27-9,10.68-17.21,17.73-24.8,6.64-7.15,14.71-13.43,20.81-20.93a58,58,0,0,0,8.23-14.34Zm-52.42,69.73a53.79,53.79,0,0,1,9.2-25.82c5.35-7.64,13.1-14.17,20.6-20.48,7.35-6.19,14.89-12.54,20.38-20.07a65.3,65.3,0,0,1-13,17.16c-7.08,6.64-14.19,13.17-20.33,20.48-7.06,8.4-13.69,18.32-16.9,28.73Zm65.2-94.38c.85,5.37,2.11,10.73,3.35,16,2.86,12.2,5.82,24.81,3.62,36.91-3.08,16.89-15.73,31.29-28,45.22-1.93,2.2-3.86,4.39-5.75,6.59-7.79,9.08-16.94,21.13-20.92,34.35.36-4.75,2.26-9.42,4.65-13.89,3.51-6.57,7.29-13.08,10.91-19.61,7.4-13.34,20.56-22.9,29.46-35.36,7.47-10.47,8.17-20.74,6.26-32.62a328.67,328.67,0,0,1-3.62-37.61Zm-48.68,143a45.49,45.49,0,0,0-.77,4.79c-.73-5-.14-10.22,0-15a76.52,76.52,0,0,1,4.66-24.79,78.9,78.9,0,0,1,13.33-22.5c5.66-6.73,12.84-12.41,18.39-19.21,9.93-12.16,11.61-25.48,10.46-39.88-.9-11.14.06-22,1.76-32.87.11,1.21.25,2.42.41,3.64a237.07,237.07,0,0,0,2.94,39.52c1.18,8,2.07,15.94-1.12,23.73-2.94,7.18-8.32,13.42-13.92,19.26-5.79,6.06-12,11.85-16.72,18.59-4.14,5.92-7,12.43-10.51,18.61C2322.84,292.78,2317.35,301.34,2318.68,310.51Z"/><path class="cls-1" d="M2435.46,291.11q7-2.69,13.92-5.59c-3.91,4.66-7.87,9.37-13.25,12.79-.34.23-.61,1.44,0,1h0c6-3.85,10.32-9.26,14.71-14.46,10-4.27,19.82-8.91,29.31-13.93.13,5.9-1.31,11.58-3,17.15a5.14,5.14,0,0,0-5,1.22c-1.69,1.79-1.29,4.57.91,6.21a5.44,5.44,0,0,0,7-.26c1.7-1.78,1.29-4.56-.91-6.2-.14-.11-.28-.2-.42-.29,1.82-6.13,3.41-12.36,3.29-18.86a318.23,318.23,0,0,0,38.31-24.08l1.92-1.43a40.25,40.25,0,0,1,1.73,5.85,24.71,24.71,0,0,1,.12,7.18,52.42,52.42,0,0,1-1.75,9.19,5,5,0,0,0-4.51,1.34c-1.69,1.78-1.29,4.56.91,6.21a5.44,5.44,0,0,0,7-.27c1.7-1.78,1.29-4.56-.91-6.2a5.66,5.66,0,0,0-1-.58c.33-1.24.62-2.49.89-3.75a55.82,55.82,0,0,0,1.23-6.95,25.54,25.54,0,0,0-.16-7.35,41.71,41.71,0,0,0-1.75-6.09,236,236,0,0,0,32.93-30.23,18.07,18.07,0,0,1,3.59,4.58c.92,1.51,2,2.94,2.82,4.49a26.52,26.52,0,0,1,2.52,6.73,4.86,4.86,0,0,0-3.78,1.41c-1.7,1.78-1.29,4.56.91,6.21a5.44,5.44,0,0,0,7-.26c1.7-1.78,1.29-4.56-.91-6.21a5.25,5.25,0,0,0-1-.6,26.49,26.49,0,0,0-2.95-9c-.84-1.6-2-3.08-2.92-4.64a19.06,19.06,0,0,0-3.59-4.7,183.85,183.85,0,0,0,20.81-29,50.08,50.08,0,0,1,5.81,16.42c-1.94,5.21-3.78,10.52-6.95,15.17a3.28,3.28,0,0,0-3.77.52,2.54,2.54,0,0,0,.57,3.84,3.36,3.36,0,0,0,4.36-.16,2.53,2.53,0,0,0-.55-3.83c2.94-4.36,4.78-9.27,6.59-14.14.35,2.13.62,4.24.81,6.31.86,9,.12,18-.5,26.8,0,.62.46.58.88.4.57-.25.8-1.14.84-1.66.64-9.2,1.42-18.55.39-27.88-.88-8-2.65-16.7-7.16-24.15l.05-.08a154.28,154.28,0,0,0,16.82-47c.31-1.67-1.49-.13-1.64.71A148.42,148.42,0,0,1,2584.27,170a98.91,98.91,0,0,1-13.39,3.8,137.32,137.32,0,0,1-14.28,2.93c-1,.13-1.75,2.54-.78,2.42h0a138.21,138.21,0,0,0,14.3-2.92,113,113,0,0,0,12.84-3.54c-1,2-2,4-3.08,5.89a2.53,2.53,0,0,0-1,1.81,176.77,176.77,0,0,1-21.5,30,1.8,1.8,0,0,0-.65.74h0c-4.29,4.8-8.83,9.42-13.57,13.86a.65.65,0,0,0-.2,0c-6.33-.24-13-.74-19.15-2.47s-12.05-4.77-17.62-8a3,3,0,0,0-1.27-2.46,3.51,3.51,0,0,0-4.55.17,2.66,2.66,0,0,0,.59,4,3.71,3.71,0,0,0,3.72.43,107.62,107.62,0,0,0,10.89,5.62c-5.36,2.05-10.77,4.12-16.61,5.07a3.1,3.1,0,0,0-.91-1,3.39,3.39,0,0,0-4.37.15,2.55,2.55,0,0,0,.57,3.85,3.36,3.36,0,0,0,4.36-.16,2.29,2.29,0,0,0,.64-1.7c6.21-1.1,11.95-3.41,17.67-5.59a52.27,52.27,0,0,0,6.22,2.1,84.46,84.46,0,0,0,17.52,2.34c-5.45,5-11.18,9.69-17.13,14.21a1.05,1.05,0,0,0-1,.28,1.94,1.94,0,0,0-.54.84q-7.84,5.87-16.16,11.24a.51.51,0,0,0-.34-.14c-6.26-.3-12.21-2.92-18.17-4.73s-12.29-3.41-17.93-6.32a4.66,4.66,0,0,0-2-3.4,5.45,5.45,0,0,0-7,.26c-1.69,1.79-1.28,4.57.92,6.21a5.44,5.44,0,0,0,7-.26l.24-.27c5.72,2.87,12,4.4,18.12,6.29,5.22,1.62,10.43,3.77,15.86,4.44q-9.12,5.74-18.68,10.93-10.27,5.58-21,10.54c-3.94-.89-8-1.31-11.88-2.43a3.43,3.43,0,0,0-1.45-2.56,4.05,4.05,0,0,0-5.23.19,3.06,3.06,0,0,0,.68,4.61,4.12,4.12,0,0,0,4.88.12c3,.85,6,1.3,9.09,1.86q-11.37,5.13-23.15,9.61c-.75.29-1.48,2.71-.4,2.3ZM2596,222.51a3.53,3.53,0,0,1-4.56.17,2.67,2.67,0,0,1-.59-4,3.54,3.54,0,0,1,4.56-.17,2.66,2.66,0,0,1,.59,4Zm-35.67-37.38a3.53,3.53,0,0,1-4.56.16,2.65,2.65,0,0,1-.59-4,3.53,3.53,0,0,1,4.56-.17,2.67,2.67,0,0,1,.59,4ZM2517.68,215a4.28,4.28,0,0,1-5.53.2,3.22,3.22,0,0,1-.71-4.87,4.28,4.28,0,0,1,5.53-.2,3.23,3.23,0,0,1,.71,4.87Zm59.18,13.05a2.62,2.62,0,0,1-3.39.12,2,2,0,0,1-.43-3,2.62,2.62,0,0,1,3.38-.12,2,2,0,0,1,.44,3Zm-26.53-50.4a3.36,3.36,0,0,1-4.36.16,2.54,2.54,0,0,1-.57-3.84,3.39,3.39,0,0,1,4.37-.17,2.55,2.55,0,0,1,.56,3.85ZM2433.54,285.52a2.53,2.53,0,0,0-.56-3.84,3.38,3.38,0,0,0-4.37.16,2.54,2.54,0,0,0,.58,3.84,3.35,3.35,0,0,0,4.35-.16Zm41.4,17.48a3.37,3.37,0,0,1-4.36.17,2.55,2.55,0,0,1-.57-3.85,3.36,3.36,0,0,1,4.36-.16,2.54,2.54,0,0,1,.57,3.84Zm44.26-39.6a3.38,3.38,0,0,1-4.37.16,2.54,2.54,0,0,1-.56-3.84,3.37,3.37,0,0,1,4.36-.17,2.55,2.55,0,0,1,.57,3.85ZM2471.87,256a3.39,3.39,0,0,1-4.37.16,2.56,2.56,0,0,1-.56-3.85,3.37,3.37,0,0,1,4.36-.16A2.55,2.55,0,0,1,2471.87,256Z"/><path class="cls-1" d="M2596.42,131.88c-10.13,10.74-18.32,22.68-27.7,33.89a28.52,28.52,0,0,0,1.3-5,48.25,48.25,0,0,0,.52-9.3c0-1.41-.17-2.82-.14-4.23a12.63,12.63,0,0,0-.11-2.23l3.05-1.82c4.08-2.4,8.06-5,12.2-7.29a31.08,31.08,0,0,1,10.88-4.06ZM2415.7,213.82a29.26,29.26,0,0,0,3.05-2.58,52.47,52.47,0,0,0,4.44-5.39,1.06,1.06,0,0,0,0-1c0-.11-.44-.73-.67-.45a50.1,50.1,0,0,1-4.43,5.39,31.6,31.6,0,0,1-4.86,3.84q-7.75-.78-15.39-2l-.55-.09c.8-.5,1.56-1,2.36-1.51a43.64,43.64,0,0,0,5.59-3.7,42.59,42.59,0,0,0,7.46-8.29l1.59-.21h.07q5-.63,10-1.31c9.15-1.23,18.23-2.81,27.34-4.25l.92-.14c-.69.8-1.4,1.58-2,2.42-1.15,1.5-2.06,3.13-3.21,4.64-2.41,3.18-5.8,6.93-10,8.43-3,1.06-5.6,2.85-8.4,4.23a44.34,44.34,0,0,1-5.65,2.6c-2.53-.17-5.06-.36-7.58-.59Zm93.23-8.42c1.74-4.43,3.11-9,4.5-13.51,1.11-3.56,2.15-7.15,3-10.78a26,26,0,0,0,.9-6c6.51-2.87,12.87-6,19-9.36a73.25,73.25,0,0,1-.26,8.51c-.6,4.26-2.76,8.45-4.15,12.56-1.59,4.73-5,8.42-7.58,12.71-1.05.46-2.1.9-3.15,1.34q-6,2.49-12.26,4.5Zm7.23-29.77q-6.75,2.94-13.71,5.48-3.63,1.32-7.33,2.49a.31.31,0,0,1-.28.09l-.55.17a110.34,110.34,0,0,1-13.47,20.55,51.3,51.3,0,0,1-7.49,7.06c-.85.68-1.74,1.35-2.68,2a194.77,194.77,0,0,0,36.62-7.53c2-4.77,3.48-9.76,5-14.64,1.08-3.48,2.1-7,2.92-10.51a32.09,32.09,0,0,0,1-5.15Zm-41.75-68.25a28.26,28.26,0,0,0-4.45-1.16c2.53-.83,5.08-1.59,7.67-2.26a.91.91,0,0,0,.64.25c11.94-.35,23.59,5.89,33.62,10.65,5.59,2.65,11.31,5.07,16.87,7.75,6.46,3.12,12.73,6.52,18.9,10,6.39,3.64,12.7,7.41,19,11.12-4.17,2.5-8.31,5-12.33,7.73l-1.6,1.06c-5.18-4.75-10.11-9.7-16.51-13.32-2.3-1.3-4.55-2.64-6.81-4Q2518.91,129,2508,123.1c-7.8-4.18-15.7-8.24-23.63-12.25-1.4-.71-1.14,2.17-.13,2.68,11.76,5.94,23.47,12,34.86,18.43,5.3,3,10.47,6.19,15.75,9.22,6.18,3.55,11.07,8,16.08,12.57-4.57,2.94-9.28,5.74-14.09,8.39-12.23-5.1-21.86-13.8-33.43-19.83-13.07-6.81-26.51-13.7-40.63-18.81a107.69,107.69,0,0,0-20-5.3c1.06-.58,2.13-1.15,3.21-1.72a160.18,160.18,0,0,1,19.45-8.69,1.05,1.05,0,0,0,.64.5,56.3,56.3,0,0,1,8.8,1.94c.24.09.44-.12.52-.27a1.52,1.52,0,0,0,.07-.94,2,2,0,0,0-1.06-1.64Zm-63.74,90.88c-4.78.62-9.57,1.23-14.34,1.88-6.66.92-13.34,1.68-20,2.62a135.48,135.48,0,0,1-13.46,1.57c.89.23,1.8.42,2.68.63,9.58,2.22,19.3,4.43,29.06,6.11a40,40,0,0,0,4.57-2.73,42.31,42.31,0,0,0,5.32-3.53,39.31,39.31,0,0,0,6.17-6.55Zm16.38,16.36a288.4,288.4,0,0,0,35.17-.39c1.5-.11,3-.23,4.5-.37a33.91,33.91,0,0,0,6.5-4.37,51.44,51.44,0,0,0,6.86-6.56,106.93,106.93,0,0,0,12.31-18.49c-4.6,1.37-9.29,2.55-14,3.54-7.64,1.6-15.42,2.56-23.16,3.71a.56.56,0,0,1-.51.36h-.18c-1,1.31-2.12,2.49-3.12,3.78-1.26,1.64-2.25,3.42-3.53,5-2.25,2.87-5.33,6.4-9.08,7.94a32.68,32.68,0,0,0-3.54,1.5c-.88.48-1.71,1-2.6,1.46s-2,1-3,1.54l-2.55,1.29Zm99.76-16.16A115.05,115.05,0,0,0,2547,186.84a109.17,109.17,0,0,0,14.63-13.1.87.87,0,0,1,.16-.23c1.68-1.63,2.46-4,3.44-5.93a30,30,0,0,0,2.65-7.45,39.86,39.86,0,0,0,.63-8.08c0-1.33-.05-2.65-.12-4,0-.53.07-1.25.1-1.93-6.7,4.11-13.2,8.41-19.9,12.53q-5.52,3.39-11.27,6.55c-.22,3.56.22,7.14-.43,10.68-.72,3.95-2.65,7.73-3.91,11.57a31.24,31.24,0,0,1-4.25,8.28c-.64.9-1.3,1.8-2,2.71Zm36.3-22.25.06-.05q.38-.37.72-.78c9.66-10.42,17.61-22,26.64-32.77,2.77-3.32,5.66-6.56,8.71-9.7.3-.31.22-1,0-1.62.2-.79-.38-2.47-1.32-2.46h0l-.81,0a83,83,0,0,0-13.8-9.11c-6.64-3.75-13.55-7.15-20.58-10.33a170.2,170.2,0,0,0-17.55-7.09,113.49,113.49,0,0,0-30.75-5.16,131.6,131.6,0,0,0-59.55,11.67,223.38,223.38,0,0,0-24.62,13.27c-8.55,5.23-17.28,10.53-24.94,16.69-15.8,12.71-28.64,28.7-38.5,45.13-2.4,4-4.44,8.15-6.65,12.24-.94,1.75-2.51,3.67-2.71,5.66a2.34,2.34,0,0,0,.18,1.63,4.72,4.72,0,0,0,2.8,2.75c4.28,1.85,9.54,2.48,14.16,3.45,11,2.31,22,4.76,33.24,6.1a299.49,299.49,0,0,0,33.23,2c21.46.14,42.9-1.94,63.31-7.81,19.37-5.57,38-14.29,52.05-27.11,2.34-2.13,4.57-4.35,6.71-6.62Zm-149.92,18.64c6.12-.76,12.25-1.47,18.34-2.4,4-.61,7.95-1.26,11.93-1.9-7.75-2.26-14.8-6.66-21.44-10.53-11.17-6.51-23.61-13.07-36.94-15.66a1.27,1.27,0,0,1-.8-.64,175.08,175.08,0,0,0-12.3,16.59c14.93,2,26.73,11.29,41.21,14.54Zm-42.35-12.78q-3.83,6-7.06,12.23c-1.23,2.38-2.78,4.77-3.91,7.21,6.35.11,13-1.23,19.13-2.12,8.22-1.19,16.49-2.11,24.71-3.3l3.05-.42c-11.73-4.15-22.21-11.12-35-12.61-.37,0-.69-.47-.89-1Zm81,7.12c-11.86-.35-22.17-7.52-31.58-12.94-10.4-6-22-11.88-34.34-14.51a186.25,186.25,0,0,1,13-13.66c1.88-1.78,3.83-3.48,5.83-5.11a1,1,0,0,0,.56.37c26,5.85,47.17,20.27,69.91,31.71,4.9,2.47,9.89,4.79,15,6.88q-2.82.82-5.69,1.55a247.52,247.52,0,0,1-25.64,4.64c-2.36.35-4.73.7-7.09,1.07Zm64.62-17.51h0a1,1,0,0,1,.42.31q8.74-3.88,17.12-8.34c-6.63-3.16-12.45-7.38-18.43-11.36-7.29-4.86-15.22-8.84-23.23-12.78-16.47-8.07-33.45-16.68-52.6-18.89a1.11,1.11,0,0,1-.66-.37c-5.88,3.36-11.6,6.94-17.25,10.59-5.06,3.26-10,6.59-14.61,10.19a133.42,133.42,0,0,1,18.65,6.13c23.75,9.71,44.12,24.51,68.26,33.6q6.91-2.19,13.58-4.89,3.06-1.23,6.09-2.53c-5.59-2.23-11-4.74-16.34-7.41-22.74-11.45-43.95-25.86-69.91-31.71-1.13-.25-1.61-3.13-.44-2.86a133,133,0,0,1,21,6.67c23.79,9.73,44.18,24.56,68.38,33.65Zm52.23-29.4h0a.74.74,0,0,1,.2.16c2.67-1.59,5.35-3.17,8-4.77,5.28-3.17,10.84-7.19,17.28-8.45-.64-.46-1.3-.92-1.95-1.37-11.72-7.95-25.29-14.3-38.79-19.76-16.76-6.77-35.12-9-53.56-7.82a114.75,114.75,0,0,0-14.21,1.85,66.58,66.58,0,0,1,10.52,3.17c5.71,2.17,11.16,4.77,16.62,7.35,5.66,2.69,11.48,5.13,17.11,7.89,13.44,6.57,26,14.3,38.77,21.75Zm28.68-10.52c.46,0,.92-.06,1.38-.07a.43.43,0,0,0,.41-.38c.24,1,.11,2.26-.78,1.4C2598.09,132.38,2597.76,132.07,2597.41,131.76Z"/><path class="cls-1" d="M1978.8,171.12c-.46-3.17-2.44-11.91-10.58-13.36-1.6-.28-3.74-.33-4.88,1.05-1.28,1.55-.92,4.35.88,6.82,2.87,4,8.25,6,14.58,5.49Zm-134.37,40.26h0c-1.3.82-2.77-2.22-1.71-2.89a107.12,107.12,0,0,1,9.94-5.6c3.64-1.82,7.37-3.46,11.18-5-10.78.5-17-9.75-7.67-11.3,8.23-1.36,13.74,6.21,15.18,8.46,9.6-3.43,19.5-6.31,29.25-9.35,3-.94,6-1.87,9-2.76-11.84-1.22-16.51-13.31-5.91-13.65,9-.28,13.55,8,15,11.2,2.28-.56,4.59-1,7-1.48,9-1.61,18-2.61,27.06-3.79,5.94-.77,11.86-1.61,17.79-2.46a16.14,16.14,0,0,1-8.69-5.84,10.24,10.24,0,0,1-2-5.26,6,6,0,0,1,1.25-4.29c.93-1.13,3.19-2.9,7.88-2.06,10.4,1.85,12.51,12.44,12.93,15.82,9.88-1.42,19.77-2.79,29.73-3.89,5.43-.6,10.88-1.16,16.32-1.68-5.36-1.6-11.06-4.71-12.71-10.73a9.56,9.56,0,0,1-.35-2,6.05,6.05,0,0,1,2.87-5.8c3.15-2,8.37-1.77,13,.53a16.94,16.94,0,0,1,9.63,16.86q15.69-1.3,31.44-2.16c8.59-.47,17.18-.61,25.75-.51-5.35-1.79-11.56-5.21-12.51-11.52-2-13.15,24.47-7.07,20.94,11.71,8.93.27,17.85.77,26.78,1.42,12.29.89,24.66,1.64,37,2.77-5.71-1.5-14-4.93-15.08-12.29-2-13.41,25.53-6.82,20.69,12.84,5.3.54,10.59,1.18,15.84,1.94,18.29,2.65,36.38,6.47,54.9,7.84q7.76.57,15.38.4c-5.6-1.24-15.56-4.57-16.78-12.7-2-13.35,25.28-6.88,20.76,12.57a172.13,172.13,0,0,0,26.54-3.35A261.53,261.53,0,0,0,2335,160.63c5.95-2.35,11.89-4.9,17.57-7.81-7.18.75-18.05.4-23.52-7.12-9.9-13.59,22.52-18.25,29.91,3.63a93.9,93.9,0,0,0,11.41-7.78c1.14-.91,2.69,2.09,1.7,2.89a83.15,83.15,0,0,1-6.94,5c-1.63,1.06-3.29,2.07-5,3,14,20.17-13.48,36.44-17.35,20.91-1.55-6.25,2.1-11.44,6.39-15.16a224.39,224.39,0,0,1-21.66,8.77,252,252,0,0,1-43.33,11.21,150.83,150.83,0,0,1-18.92,1.82c.69,17.81-24.81,21.41-21.56,9,1.21-4.63,5.23-7.38,9.46-9-5.5-.19-11-.63-16.52-1.26-18.42-2.13-36.48-6.06-54.9-8.19q-3.26-.37-6.51-.68c.52,17.66-24.8,21.2-21.57,8.82,1.39-5.31,6.48-8.15,11.34-9.66-4.23-.32-8.47-.61-12.7-.95-10.13-.82-20.27-1.64-30.42-2.24-5.46-.33-10.89-.55-16.32-.68,1.62,18.61-24.81,22.55-21.5,9.92,1.51-5.78,7.42-8.63,12.63-10-12-.05-24.07.36-36.17,1.16q-10.08.66-20.14,1.5c1.32,7-1.28,13.24-7.17,17-4.16,2.67-9.19,3.37-12.51,1.75a6.18,6.18,0,0,1-3.55-5.36,10,10,0,0,1,.07-1.94c.65-4.69,3.92-7.89,7.71-10q-12.62,1.25-25.2,2.79c-6.15.76-12.29,1.59-18.42,2.45,3.37,16-19.08,21.41-17.56,10.23.6-4.37,4.2-7.14,8-8.86-9.76,1.41-19.51,2.83-29.3,4.1-7.62,1-15.26,2.07-22.72,3.76,2,4,2.48,8.72,0,12.67-1.56,2.48-4.41,4.94-7.87,5.19-3.86.28-6-2.72-6.44-5.64-.57-3.65,1.12-6.9,4-9.45-5.88,1.78-11.69,3.77-17.53,5.58-6.12,1.89-12.29,3.81-18.34,5.94,7.91,11.49-7.31,21.64-10.41,12.49-1.35-4,.88-7.43,3.48-9.92a125.87,125.87,0,0,0-22.14,10.92Zm192.83-46.65a18.81,18.81,0,0,0,0-2.7,14.42,14.42,0,0,0-8.19-12.26c-3.56-1.78-7.57-2.06-9.76-.67-2,1.26-1.88,3.51-1.43,5.18,2.33,8.44,15.06,10.13,19.31,10.45Zm-3,3.52c-5.2,1.35-13.19,4.49-14.11,11.21-.22,1.65-.05,3.83,2,4.85,2.28,1.12,6.1.47,9.3-1.58,5-3.22,7.2-8.66,6-14.77l-3.24.29Zm-116,15.68.74-.17a.52.52,0,0,1-.18.1,25.84,25.84,0,0,0-7.09,3.75c-3,2.25-5.51,5.49-4.69,9,0,.1,0,.21.08.32-.07-.25,0-.07,0,0s.11.32.18.48c-.13-.32.08.12.12.2.16.31-.09-.07.12.2l.18.21c.18.22-.18-.16,0,0s.21.19.32.28l.13.11c-.16-.12,0,0,0,0l.37.2a5.37,5.37,0,0,0,3.32.26,10.25,10.25,0,0,0,6.74-5.35A10.1,10.1,0,0,0,1918.29,183.93Z"/><path class="cls-1" d="M17.47,54.44c-.16-.06-.31-.12-.46-.16a24,24,0,0,1-3.76-5,40.26,40.26,0,0,1-5-17.47,31.54,31.54,0,0,1,.62-9c.4-1.68,1.12-3.24,1.1-5s.63-1.55,1.61-1.16a12.53,12.53,0,0,1,4,2.62c-.12.23-.23.47-.34.7-5,10.65-4.65,25.05,2.25,34.46ZM44.07,14.3a7.36,7.36,0,0,1,.72,2.36,8.29,8.29,0,0,1,0,1.22c.59-.48,1.16-1,1.73-1.47l.39-.36-.08-.31c-.76-2.84-1.6-5.64-2.54-8.4-.74-2.15-1.36-5.08-3.5-5.82-1.7-.58-3.81.67-5.39,1.37a48,48,0,0,0-6.08,3.24A34.2,34.2,0,0,0,17.65,17.85l-.36.65a24.82,24.82,0,0,1,2.6,3.13,8.71,8.71,0,0,1,.87-1.94c.06-.11.26-.13.35-.13a1.12,1.12,0,0,1,.51.11c.19.11.51.33.35.61h0a6.46,6.46,0,0,0-1,3c.34.54.68,1.1,1,1.66A49.22,49.22,0,0,1,26.8,37.13l.17.65a54.66,54.66,0,0,1,8.84-11.84.41.41,0,0,1-.06-.45,33.93,33.93,0,0,0,1.68-4.08A13.22,13.22,0,0,0,38.2,17c0-.68,1.29-.39,1.31.17h0a15.76,15.76,0,0,1-1.46,6.48c.51-.49,1-1,1.52-1.43C40.84,21.1,42.16,20,43.48,19a.43.43,0,0,1,0-.23,11.5,11.5,0,0,0,.05-2.27,6.8,6.8,0,0,0-.64-2.14c-.14-.3.13-.46.36-.46a1,1,0,0,1,.86.42ZM44.75,19l1.45-1.15c.34-.27.67-.57,1-.87a111.21,111.21,0,0,1,3,17.36c.54,5.68.92,11.64-1.83,16.65a14.88,14.88,0,0,1-5.73,5.78l.41-.55c.85-1.18,1.61-2.45,2.35-3.72s1.16-2.53,1.9-3.68h0c.31-.49-.94-1-1.21-.6-.72,1.12-1.17,2.43-1.84,3.58s-1.43,2.42-2.22,3.55a18.75,18.75,0,0,1-2.26,2.72l-.66.22q-1,.3-2,.51a9.64,9.64,0,0,0-2.18-.33,4.14,4.14,0,0,0,.5-.44,17.51,17.51,0,0,0,2-2.29,14.31,14.31,0,0,0,2.64-5.56h0c.09-.5-1.22-.88-1.3-.41a14.29,14.29,0,0,1-2.64,5.52,17.46,17.46,0,0,1-2,2.28,7.23,7.23,0,0,1-1,.76,5.16,5.16,0,0,1-1.71-.52c-2.41-1.35-1.67-2.84-2.11-5,0-.7-.06-1.38-.09-2,0-.3-.31-.32-.64-.19a7.39,7.39,0,0,1,.32.78.84.84,0,0,0,.32-.59A61.18,61.18,0,0,0,27.4,39.51a40,40,0,0,1,3.4-6,56.61,56.61,0,0,1,5.93-7.27.36.36,0,0,0,.23-.17L37,26c1.52-1.57,3.1-3.05,4.71-4.46.84-.74,1.7-1.44,2.57-2.13a.41.41,0,0,0,.19,0c.08,0,.24-.09.25-.21V19ZM22.58,51.69a3,3,0,0,0-.06,1.43A10,10,0,0,0,23,55.06a14.27,14.27,0,0,0,.51,1.34A27.51,27.51,0,0,1,25.8,40.16a61.05,61.05,0,0,0-3.19-9.89,36.79,36.79,0,0,0-6.14-10.09A36.48,36.48,0,0,0,14.21,42.5a.46.46,0,0,1,.15.27h0a6.2,6.2,0,0,0,.06.62,28.22,28.22,0,0,0,4.56,10c.16.22,0,.57-.34.84l-.12-.17c-.15-.21-.3-.42-.44-.65.33-.2.71-.27.9,0a14.06,14.06,0,0,0,3.22,3c-.19-.47-.35-.94-.5-1.41a10.55,10.55,0,0,1-.49-2,3.76,3.76,0,0,1,.07-1.67c.12-.32.51-.31.75-.23s.67.32.55.64ZM40.8,58.9c.46-.2.91-.41,1.34-.63a18.21,18.21,0,0,0,8.47-9c2.51-5.81,1.64-12.9.83-19.1a120.32,120.32,0,0,0-2.77-14.42,8.44,8.44,0,0,1,.91-.66c.14-.09.79-.42.78-.43s0,.14,0,.35c0,.62,0,1.25,0,1.87a23.74,23.74,0,0,0,.52,4.7,66.13,66.13,0,0,1,1.83,16.5c-.2,8-2.54,18.21-9.54,21.57-.74.35-1.11,1.56,0,1C49.73,57.51,53,49.42,54,41.57a57.08,57.08,0,0,0-.72-16.91A58.33,58.33,0,0,1,52,18c-.09-1.42-.07-2.84-.12-4.26,0-.17-.11-.21-.23-.25-1-.3-2.2.42-3.24,1.28-.42-1.59-.88-3.17-1.36-4.73s-1-3.13-1.54-4.67a16.54,16.54,0,0,0-1.4-3.44,4.13,4.13,0,0,0-5-1.64C30.65,3.05,21.5,8.87,16.43,17.67L16,17.31c-1.32-1.11-3.57-2.74-5.32-2.21a3.57,3.57,0,0,0-2.25,2.53c-.15.67,0,1.35-.08,2-.18,1.12-.69,2.24-1,3.34a31.8,31.8,0,0,0-.74,9.64c.47,7.69,3.1,15.9,7.71,21.42-.17,0-.28.12-.27.24s.39.29.85.42a19.72,19.72,0,0,0,3.63,3.18,20.53,20.53,0,0,0,5,4c-.08,1.76,0,4.36,1.09,5.9,0,.09,0,.19-.09.31A206.19,206.19,0,0,1,.48,126.86c.22.68.49,1.33.67,2s.28,1.11.44,1.66c0,0,0,0,0,0A210.57,210.57,0,0,0,27.3,68.78c1.41-.76,2.4-3.34,2.95-5.23a19.76,19.76,0,0,0,7.55-1.43l.82-.11c.73.18,1.11.74,1.28.39a.83.83,0,0,0-.06-.63,18.72,18.72,0,0,0,3.32-1.1c.75-.34,1.12-1.53,0-1a15.09,15.09,0,0,1-3.83,1.11,4.34,4.34,0,0,0-.33-.56A8.66,8.66,0,0,0,40.8,58.9ZM17.59,54.49l-.18-.25a.3.3,0,0,0,.06.2l.12.05Zm8.68,2.76c.45-.77.66-5,.93-6.82a1.32,1.32,0,0,1,.31-.8,60.89,60.89,0,0,0-1.22-7.41,29.36,29.36,0,0,0-1,3.35,25,25,0,0,0-.6,7.11,23.88,23.88,0,0,0,.4,3.17c.08.39.16,1.1.32,1.64C25.86,57.5,26.17,57.42,26.27,57.25Z"/><path class="cls-1" d="M233.14,156c0,1.12-.07,2.25-.15,3.38a158.81,158.81,0,0,1,2.48,36.44c-.49,8.78.16,17.28,3.89,25.58,3.91,8.69,10.69,15.42,17.76,22.34,12.45,12.19,21.14,26.12,24.66,42.09a116.39,116.39,0,0,1,2.28,23.08,37.82,37.82,0,0,1-.28,6.09q1.08-2.1,2.13-4.25c3.1-15.42,8.37-31.45,3.79-46.93-4.72-16-16.85-28.11-30.13-39.51-11.64-10-18.36-20.27-20.62-34.32-1.12-7-1.48-14-2.65-21-.44-1.79-.86-3.57-1.28-5.34-.63-2.62-1.23-5.19-1.88-7.64Zm183.32-43.35c-35.47,8.7-71,17.06-106.66,25.36a264.64,264.64,0,0,1-42.64,6.75q-3,.19-6,.35c12.08,2.85,25.07,1.39,37.34.1a378.19,378.19,0,0,0,41.59-6.79c26.92-5.94,51.38-15.66,76.37-25.77ZM265.67,147.45c8.34,1.53,17,1,25.71.31a335.82,335.82,0,0,0,43.43-6.44c29.13-6.28,55.94-16.49,82.19-28.77l4.85-1.19c-6.12,2.9-12.15,6-18.06,9C382.88,131,361.25,142,337.13,144.62c-4.05.44-8.24.65-12.29.85-4.44.21-9,.44-13.56,1-3.62.43-7.26,1.06-10.77,1.67-8.11,1.42-15.77,2.75-23.52,1.87a64.84,64.84,0,0,1-11.32-2.53ZM406.5,109.86a290.5,290.5,0,0,1-36.88.87c-7.89-.29-15.85-.56-23.53,1.29s-14.42,5.66-21.39,8.87c-13.76,6.32-28.92,11-44.44,14.42,7.42-3.11,14.45-6.9,21.35-10.63,8.22-4.43,16.71-9,25.63-12.31a98.4,98.4,0,0,1,27.16-5.88c11.48-.79,23.39.5,34.9,1.75,5.69.62,11.44,1.24,17.2,1.62ZM263,140.78a236.23,236.23,0,0,0,59-16.32c7.15-3,13.76-7,21.24-9.49,8.48-2.78,17.52-2.74,26.46-2.62a270.63,270.63,0,0,0,39.6-2.32,126,126,0,0,0,15.55-.09l-1.66.77c-35.94,7.83-71.75,16-107.55,24.29-19.53,4.51-41.15,9.16-62.15,8.93-1.23-.29-2.44-.54-3.64-.78,4-.53,8.22-1.36,13-2.34l.14,0Zm177.61-34a2.06,2.06,0,0,1-.86.62c-11.6,4.54-22.94,10.31-33.9,15.89-21.28,10.83-43.27,22-68.23,24.75-4.2.45-8.46.66-12.58.86-4.37.22-8.88.44-13.24,1-3.49.41-7.06,1-10.51,1.63-8.09,1.41-16.45,2.86-24.88,1.9a85,85,0,0,1-15.67-3.77c-1.49-.47-3-.93-4.48-1.36a109.36,109.36,0,0,0-11.06-2.46c-1.9-.36-3.82-.72-5.78-1.14A195.67,195.67,0,0,1,260,163.18a127.06,127.06,0,0,0,12.82,11.75l.67.42a2.19,2.19,0,0,1,.57.29l1.18.84c1.63,1,3.25,2.08,4.87,3.1,19.09.54,36,.19,49.41-7.6a82,82,0,0,0,10.37-7.58A77.84,77.84,0,0,1,352,155.78c6.95-3.73,14.92-5.51,22.62-7.24,3.71-.83,7.55-1.68,11.17-2.74,8.11-2.38,15.87-6,23.36-9.45,5.85-2.71,11.91-5.52,18.18-7.78,25.51-9.19,54.53-9.3,80.13-9.39a2,2,0,0,1,2,1.35,1.52,1.52,0,0,1-.28,1.35,2,2,0,0,1-.83.61A100.74,100.74,0,0,0,479,140.61c-2.92,2.61-5.71,5.44-8.41,8.18-3,3.05-6.12,6.2-9.47,9.12-14.84,12.93-34.61,21.35-55.66,23.7-4.9.55-9.89.77-14.72,1-5.5.25-11.19.5-16.67,1.24s-11.14,2-16.54,3.3c-4.65,1.08-9.47,2.2-14.32,3-14.93,2.42-27.2,1.37-39.91-1.15,29.92,9.5,61.38,14.66,93.06,17.42,13.34,0,27.93-4.53,42.11-9,9.41-3,18.3-5.74,26.86-7.27a88,88,0,0,1,27.15-.59c9.05,1.2,17.76,3.81,26.18,6.33l92.18,27.6a1.72,1.72,0,0,1,1.32,2,1.76,1.76,0,0,1-.29.58,2.2,2.2,0,0,1-1.93.77c-7.5-.7-16-1.49-23.79.12-6.31,1.3-11.93,4.05-17.87,7a109.41,109.41,0,0,1-13.74,5.94c-19.81,6.49-41.46,1.9-61.93-3.37-10-2.56-19.67-5.18-28.95-9-2.52-1-5-2.13-7.45-3.24A130.65,130.65,0,0,0,442.89,219c-7.15-2.29-14.87-3.37-22.34-4.42-5.52-.78-10.74-1.69-15.8-2.58-4.39-.77-8.92-1.57-13.64-2.27-13.85.53-28-2.13-41.38-4.58-14.22-2.62-29.27-5.51-43.53-9.85,16.59,9.2,33.49,16.79,52.31,21.7,1.94.51,3.9,1,5.85,1.45a129.1,129.1,0,0,1,15.56,4.46c16.63,6.32,28.45,18.61,39.87,30.5,1.6,1.66,3.19,3.32,4.79,4.95,3.88,4,7.78,7.67,12.91,9.54a45,45,0,0,0,10.86,2c1.18.11,2.36.23,3.53.37,20.32,2.47,38.88,12.82,49.65,27.71a1.52,1.52,0,0,1,0,1.87,2,2,0,0,1-.24.26,2.36,2.36,0,0,1-.57.35l0,0c.28.21-.09.57-.38.37l-.34-.22a2.43,2.43,0,0,1-1.24-.23c-18.56-9.1-39.71-10.76-62.1-12.53-13-1-26.38-2.08-39.13-4.73-35.78-7.44-67.47-28.43-84.76-56.15-2-3.25-3.89-6.63-5.69-9.89A122.26,122.26,0,0,0,297,200.76a76.37,76.37,0,0,0-15.88-15.47A87.07,87.07,0,0,1,260.77,171c-7.55-7.22-14.31-15-22.66-21.61-1.23-1-2.48-1.91-3.75-2.84A122,122,0,0,1,239,163c2,8.33,4,16.94,7.81,24.44,5,9.92,14,17.49,23.52,25.49,7.68,6.47,15.62,13.15,21.23,21.18,9.24,13.22,12.27,30.61,8.51,49-3.47,16.95-12,33-19.82,46.68a1.43,1.43,0,0,1-.14.2,2.23,2.23,0,0,1-2.38.68,1.72,1.72,0,0,1-1.32-2c5.63-20.42-9.24-40.87-20.92-54.48-1.87-2.18-3.79-4.37-5.72-6.56-12.54-14.27-25.5-29-28.73-46.77-2.31-12.72.72-25.64,3.65-38.13,3.34-14.24,6.5-27.7,2.48-40.92-1.64-1-3.3-2-5-3-.78-.42-1.58-.86-2.39-1.34-2.57-1.4-5.2-2.74-7.87-4a145.26,145.26,0,0,0-61.48-14.2h0c-.15,0-.17-.19,0-.19,21.68-1,44.07,2.55,63.55,10.77a111.36,111.36,0,0,1,16.57,8.71l.59.21c9.05,2.91,17.37,1.48,30.81-1.27s25.16-9,37.47-15.68c8.35-4.51,17-9.17,26.19-12.57A103.09,103.09,0,0,1,354.07,103c11.9-.83,24,.49,35.75,1.76,17,1.84,33,3.58,48.5-.59a2.17,2.17,0,0,1,2.53,1,1.55,1.55,0,0,1-.2,1.59Zm58.11,15.89-2.59.82c-7.22,1.61-14.44,3.25-21.67,4.85-8.88,2-18,3.66-26.16,7.38-18.3,8.34-29.36,24.2-50,29.51-18.92,4.88-39.08,4.26-57.78,10.19-9.49,3-18.41,7.19-28.59,8.31a92.4,92.4,0,0,1-15.78.08l-2.58-.62c12.83-.21,26.87-1.82,38.14-8.37l.72-.43A273.76,273.76,0,0,1,367.13,164c13.95-3.17,27.19-4.37,38.17-13,12.47-9.79,29.77-14.7,45.7-19.11a352,352,0,0,1,45.43-9.14l2.33,0ZM488,126.13A136.72,136.72,0,0,0,466.28,135c-12.65,6.6-22.91,14.79-33.11,23.84A48.18,48.18,0,0,1,412.92,170c-7.26,1.9-14.86,2.61-22.31,3.79a160.74,160.74,0,0,0-36.83,10.6c-3.75.85-7.58,1.69-11.38,2.31a99.13,99.13,0,0,1-33.4-.25l.86-.06c9.56-.7,18.35-3.71,27.25-6.54,19.24-6.13,39.26-6.58,58.91-10.95a64.91,64.91,0,0,0,25-11c7.56-5.57,14.29-12,22.33-17.09,8.68-5.49,18.84-8,29-10.65q7.83-2,15.68-4ZM365.91,181.68c9.92-3,19.76-5.87,30.49-7.37,11.69-1.65,23.34-3.37,32.6-10.16,5.39-4,9.82-8.76,14.94-13a142,142,0,0,1,19.76-13.42c10.94-6.21,21.08-9.27,32.19-13.43A102.4,102.4,0,0,0,476,138.2c-3,2.69-5.84,5.57-8.59,8.35-3,3-6,6.1-9.25,8.92C444,167.84,425,175.9,404.89,178.15c-4.75.54-9.66.76-14.4,1-5.61.25-11.41.51-17.11,1.28-2.5.34-5,.78-7.47,1.28Zm126-58.89a279.08,279.08,0,0,0-36.65,6.66c-14.74,3.7-31.64,7.94-44.36,15.51-7.5,4.47-12.63,10.11-21.65,12.67-7.37,2.1-15.11,3.24-22.6,5a276.56,276.56,0,0,0-28.8,8.17c1.68-1.27,3.29-2.59,4.88-3.89a73,73,0,0,1,11.49-8.19c6.41-3.45,13.72-5.08,21.47-6.81,3.78-.85,7.69-1.73,11.46-2.83,8.44-2.46,16.34-6.13,24-9.67,5.76-2.68,11.72-5.44,17.81-7.64,19.77-7.12,42-8.62,63-9Zm95.92,100.36a57,57,0,0,1,7.6-.57l-1.22-.37-3.34-.85c-4.94-.59-9.9-1.05-14.89-1.16-8.94-.21-17.25,1.32-26,2.74-16.31,2.65-33.28-.54-49.36-3-29.58-4.58-59-13.88-89.1-10.33,3.16.54,6.4,1.06,9.73,1.53,7.67,1.08,15.6,2.19,23.12,4.6a109.58,109.58,0,0,1,10.51,4.1c8.6,1.52,17.78,1.59,26.19,3.36,12.52,2.64,24.38,7.3,37.09,9.34,16.61,2.66,30.37-2.5,46-6.34a101,101,0,0,1,23.66-3Zm-127.15-.76q2.36,1.05,4.75,2c9,3.68,18.57,6.25,28.38,8.77,19.78,5.09,40.66,9.55,59.27,3.45a102.67,102.67,0,0,0,13.17-5.71c5.36-2.62,10.89-5.32,17-6.86-9.92.92-19.47,3.35-29.52,6.5-12.58,4-24.63,5.84-37.88,3.45s-25.74-7.36-39-9.72c-5.1-.9-10.68-1.19-16.1-1.91Zm112.87-6.33h0a0,0,0,1,1,0,.08c-20.39-3.88-40.84-7.75-60.4-14.12-11.28-3.68-21.31-6.94-33.6-6.85-8.45.06-16.87.68-25.3,1.2-4.64,1.28-9.42,2.78-14.35,4.33-2.89.91-5.8,1.82-8.71,2.7,24.79-5.18,50.43,3.37,74.75,8a149.87,149.87,0,0,0,24.59,2.95c7.44.18,14.88-.41,22.32-.07,12.46.56,24.55,3.25,36.42,6.41l-71.94-21.54c-8.25-2.47-16.78-5-25.46-6.18a83.46,83.46,0,0,0-25.68.56l-1.32.25c14-1.21,28.29-.42,41.27,4.16,21.91,7.72,44.46,13.13,67.42,18.08Zm-151-10.2-.7.18.65,0a.3.3,0,0,1,.05-.16Zm1.78.11a139.77,139.77,0,0,1,22.08,1.63c16.71,2.38,33.1,6.29,49.73,9,18.57,3.07,38.53,7.47,57.41,4.75a140.87,140.87,0,0,1,36.33-.28c-12.5-3.15-25.2-5.93-38.27-6.16-14.13-.24-27.52,1-41.56-1.23-28.33-4.58-56.76-15.26-85.72-7.75Zm-55.08,17.28c-2-.52-4-1-6-1.48s-4-1-5.94-1.48c-3.23-.84-6.39-1.76-9.51-2.74a138.19,138.19,0,0,1,14.43,6.5c15.4,8.29,23.82,24.2,40.46,30.7,7.81,3.05,15.13,5.67,22.27,9.83l1.89,1.09c-1.93-1.62-3.7-3.37-5.41-5.12-1.34-1.36-2.67-2.75-4-4.13-9.65-5.27-17.74-12.4-26.08-19.06a115.12,115.12,0,0,0-22.14-14.11ZM414,252.87c-10.34-10.7-21.24-21.3-35.77-26.82-1.31-.49-2.64-1-4-1.37,14.55,7.66,26.08,19.27,39.76,28.19Zm-86.55-43c-5.66-2.47-11.2-5.15-16.69-8,5.09,3.7,10.07,7.51,14.74,11.59,7.19,6.29,12.92,13.54,19.7,20.12,14.21,13.78,35.13,22.19,54.92,28.65a170,170,0,0,1,25.65,10.42c7.86,4.07,15.55,8.54,24.14,11.44a66.82,66.82,0,0,0,10,2.38,151.79,151.79,0,0,1,29.32,6.14c-6.64-6.39-13.3-11.92-23.71-14.15-8.13-1.75-16.66-1.8-24.63-4.18-7-2.1-13-5.9-19.07-9.38-7.91-4.51-17.06-6.45-24.93-10.81-6.94-3.83-12.18-9.39-17.42-14.74-6.62-6.75-13.18-12.25-22.26-16.58-9.77-4.67-20.23-8.06-29.72-12.87Zm163.32,83.24c.86.3,1.71.61,2.56.93a63.29,63.29,0,0,0-13-10.44,60.69,60.69,0,0,1,10.48,9.51ZM471.5,279.08a73.73,73.73,0,0,0-20.2-5.44c-1.13-.14-2.28-.25-3.43-.36-2.08-.21-4.21-.42-6.31-.78a67.78,67.78,0,0,0,11.83,2.92c6.1.94,12.37,1.65,18.11,3.66Zm-162.18-78-4.06-2.19c1.85,1.47,3.62,3,5.28,4.57,7.35,7,11.67,16,17.9,23.76a152.17,152.17,0,0,0,41.84,35.43,179.62,179.62,0,0,0,53.82,20.58c4.33.4,8.66.75,12.95,1.08,5.35.42,10.74.85,16.12,1.39a60.65,60.65,0,0,1-8.45-2.74c-8-3.32-15.33-7.68-23-11.49-8.43-4.18-17.43-7-26.47-10-18.28-6.19-37.48-14.58-50.6-27.38-6.76-6.59-12.39-13.89-19.48-20.25-5-4.49-10.37-8.66-15.84-12.73ZM301,196.54q-2.48-1.39-5-2.85c1.42,1.56,2.84,3.26,4.31,5.15a125.39,125.39,0,0,1,10.39,16.7c1.78,3.22,3.62,6.56,5.6,9.73,16.76,26.86,47.46,47.19,82.12,54.41,5.34,1.11,10.83,1.93,16.37,2.6a179.76,179.76,0,0,1-43.78-17.72,155.26,155.26,0,0,1-41.42-33.76c-6.35-7.44-10.68-15.9-16.88-23.39A72,72,0,0,0,301,196.54ZM244.85,192a57.86,57.86,0,0,0,8.24,14.33c6.1,7.5,14.16,13.79,20.8,20.94,7.05,7.58,13.46,15.79,17.74,24.8a70.64,70.64,0,0,1,5.8,20.28,74.12,74.12,0,0,1-1.37,10.15,109.85,109.85,0,0,1-6.87,21.16c3.12-12,5.84-24.49,3.35-36.35C289.76,254,281.37,242,270.94,232c-6.71-6.41-14.68-11.91-20.55-18.95-6.2-7.44-8.8-16.12-10.37-25-.92-5.22-1.81-10.36-2.8-15.45a83,83,0,0,0,5.86,16.22c.54,1.08,1.14,2.13,1.77,3.17Zm52.43,69.72c-3.21-10.41-9.85-20.32-16.9-28.72-6.15-7.32-13.26-13.85-20.34-20.49a65,65,0,0,1-12.94-17.16c5.49,7.54,13,13.89,20.37,20.07,7.5,6.31,15.25,12.84,20.6,20.49a53.76,53.76,0,0,1,9.21,25.81Zm-65.2-94.38a330.72,330.72,0,0,1-3.62,37.61c-1.91,11.88-1.21,22.15,6.26,32.62,8.89,12.46,22,22,29.45,35.37,3.62,6.52,7.4,13,10.91,19.61,2.4,4.47,4.29,9.13,4.66,13.89-4-13.23-13.14-25.27-20.93-34.36-1.88-2.19-3.81-4.39-5.74-6.59-12.24-13.93-24.89-28.33-28-45.22-2.2-12.1.76-24.71,3.62-36.91,1.24-5.29,2.5-10.64,3.36-16Zm39.72,117c-3.54-6.18-6.37-12.68-10.5-18.6-4.71-6.74-10.94-12.54-16.73-18.6-5.59-5.84-11-12.07-13.92-19.26-3.19-7.79-2.3-15.71-1.12-23.73a237.08,237.08,0,0,0,2.95-39.52c.16-1.21.29-2.43.4-3.64,1.7,10.87,2.66,21.73,1.77,32.87-1.16,14.41.52,27.73,10.45,39.89,5.55,6.79,12.73,12.48,18.4,19.21a78.37,78.37,0,0,1,13.32,22.5,76.15,76.15,0,0,1,4.66,24.78c.18,4.75.77,10,0,15a45.52,45.52,0,0,0-.78-4.79C282.08,301.18,276.59,292.62,271.8,284.26Z"/><path class="cls-1" d="M164,290.94h0c1.07.41.35-2-.41-2.29q-11.76-4.5-23.15-9.61c3.05-.57,6.11-1,9.09-1.86a4.15,4.15,0,0,0,4.88-.12,3.06,3.06,0,0,0,.68-4.61,4.05,4.05,0,0,0-5.23-.2,3.41,3.41,0,0,0-1.44,2.57c-3.9,1.11-7.94,1.54-11.89,2.42q-10.71-5-21-10.54-9.55-5.19-18.69-10.92c5.43-.68,10.64-2.83,15.86-4.44,6.15-1.9,12.4-3.43,18.13-6.3a3,3,0,0,0,.24.28,5.43,5.43,0,0,0,7,.25c2.2-1.64,2.61-4.42.92-6.21a5.44,5.44,0,0,0-7-.25A4.63,4.63,0,0,0,130,242.5c-5.65,2.91-11.84,4.47-17.94,6.32s-11.91,4.43-18.17,4.73a.43.43,0,0,0-.33.15q-8.31-5.38-16.17-11.25a2,2,0,0,0-.53-.84,1.08,1.08,0,0,0-1-.28Q67,234.55,58.79,227.12a84.56,84.56,0,0,0,17.53-2.34,49.83,49.83,0,0,0,6.21-2.1c5.72,2.18,11.46,4.49,17.67,5.59a2.25,2.25,0,0,0,.65,1.7,3.35,3.35,0,0,0,4.35.16,2.53,2.53,0,0,0,.57-3.84,3.36,3.36,0,0,0-4.36-.16,3.16,3.16,0,0,0-.92,1.06c-5.84-1-11.25-3-16.61-5.07a106.64,106.64,0,0,0,10.89-5.63,3.71,3.71,0,0,0,3.73-.43,2.67,2.67,0,0,0,.59-4,3.54,3.54,0,0,0-4.56-.17,3,3,0,0,0-1.27,2.47c-5.56,3.19-11.36,6.21-17.62,8s-12.82,2.23-19.14,2.47a.53.53,0,0,0-.2,0Q49.18,218.15,42.73,211h0a1.9,1.9,0,0,0-.66-.74,177.26,177.26,0,0,1-21.5-30,2.53,2.53,0,0,0-1-1.82c-1.07-1.94-2.09-3.9-3.08-5.88A115.65,115.65,0,0,0,29.31,176,138.75,138.75,0,0,0,43.61,179h0c1,.13.21-2.29-.78-2.42a137.86,137.86,0,0,1-14.28-2.93,98.36,98.36,0,0,1-13.38-3.8A148,148,0,0,1,3.23,132.92c-.16-.84-1.95-2.38-1.65-.71a154.45,154.45,0,0,0,16.83,47l0,.07c-4.5,7.45-6.27,16.11-7.16,24.16-1,9.33-.25,18.67.4,27.87,0,.52.26,1.41.83,1.66.42.19.92.22.89-.39-.63-8.85-1.37-17.83-.51-26.81.2-2.06.46-4.18.81-6.31,1.81,4.87,3.65,9.78,6.59,14.14a2.55,2.55,0,0,0-.55,3.84,3.37,3.37,0,0,0,4.36.15,2.53,2.53,0,0,0,.57-3.84,3.3,3.3,0,0,0-3.77-.52c-3.17-4.65-5-10-6.95-15.16a49.85,49.85,0,0,1,5.82-16.43,183.79,183.79,0,0,0,20.8,29A19.61,19.61,0,0,0,37,215.37c-1,1.55-2.07,3-2.92,4.63A26.79,26.79,0,0,0,31.12,229a5.22,5.22,0,0,0-1,.61c-2.2,1.64-2.61,4.42-.92,6.2a5.44,5.44,0,0,0,7,.26c2.2-1.64,2.61-4.42.92-6.21a4.93,4.93,0,0,0-3.79-1.41,26.91,26.91,0,0,1,2.52-6.73c.81-1.55,1.9-3,2.82-4.48a18.17,18.17,0,0,1,3.59-4.59,236.64,236.64,0,0,0,32.93,30.24,43.24,43.24,0,0,0-1.75,6.08,25.91,25.91,0,0,0-.16,7.35,56.31,56.31,0,0,0,1.23,7c.27,1.25.56,2.5.89,3.74a5.22,5.22,0,0,0-1,.58c-2.2,1.64-2.61,4.42-.92,6.21a5.45,5.45,0,0,0,7,.26c2.2-1.65,2.61-4.43.92-6.21A5.06,5.06,0,0,0,77,266.47a52.42,52.42,0,0,1-1.75-9.19,25,25,0,0,1,.12-7.17,40,40,0,0,1,1.73-5.86L79,245.69a317.91,317.91,0,0,0,38.31,24.08c-.12,6.5,1.46,12.72,3.28,18.85l-.42.29c-2.19,1.64-2.6,4.42-.91,6.21a5.45,5.45,0,0,0,7,.26c2.2-1.65,2.61-4.43.91-6.22a5.14,5.14,0,0,0-5-1.22c-1.65-5.57-3.09-11.24-3-17.15q14.25,7.54,29.31,13.93c4.39,5.2,8.67,10.62,14.71,14.46h0c.64.41.38-.81,0-1-5.39-3.43-9.35-8.13-13.26-12.8q6.9,2.91,13.93,5.59ZM3.43,222.34a2.66,2.66,0,0,1,.59-4,3.53,3.53,0,0,1,4.56.16,2.66,2.66,0,0,1-.59,4,3.53,3.53,0,0,1-4.56-.17ZM39.1,185a2.68,2.68,0,0,1,.6-4,3.51,3.51,0,0,1,4.55.17,2.66,2.66,0,0,1-.59,4A3.54,3.54,0,0,1,39.1,185Zm42.65,29.88a3.23,3.23,0,0,1,.72-4.87,4.28,4.28,0,0,1,5.53.2,3.23,3.23,0,0,1-.72,4.87,4.29,4.29,0,0,1-5.53-.2Zm-59.18,13a2,2,0,0,1,.44-3,2.61,2.61,0,0,1,3.39.12,2,2,0,0,1-.44,3,2.62,2.62,0,0,1-3.39-.12Zm26.53-50.4a2.54,2.54,0,0,1,.57-3.84,3.36,3.36,0,0,1,4.36.16,2.53,2.53,0,0,1-.57,3.84,3.36,3.36,0,0,1-4.36-.16ZM165.89,285.36a3.39,3.39,0,0,0,4.36.16,2.56,2.56,0,0,0,.57-3.85,3.38,3.38,0,0,0-4.37-.16,2.55,2.55,0,0,0-.56,3.85Zm-41.4,17.48a2.55,2.55,0,0,1,.57-3.85,3.36,3.36,0,0,1,4.36.16,2.55,2.55,0,0,1-.56,3.85,3.4,3.4,0,0,1-4.37-.16ZM80.23,263.23a2.55,2.55,0,0,1,.57-3.84,3.36,3.36,0,0,1,4.36.16,2.55,2.55,0,0,1-.56,3.85,3.39,3.39,0,0,1-4.37-.17ZM128.13,252a3.36,3.36,0,0,1,4.36.16,2.55,2.55,0,0,1-.56,3.84,3.36,3.36,0,0,1-4.36-.16A2.54,2.54,0,0,1,128.13,252Z"/><path class="cls-1" d="M3,131.71a31.08,31.08,0,0,1,10.88,4.06c4.15,2.33,8.12,4.89,12.2,7.3l3.05,1.82a11.61,11.61,0,0,0-.1,2.22c0,1.41-.11,2.82-.15,4.23a49.91,49.91,0,0,0,.52,9.3,28.55,28.55,0,0,0,1.31,5C21.34,154.39,13.14,142.46,3,131.71Zm180.72,81.94q-3.78.34-7.58.59a45,45,0,0,1-5.65-2.6c-2.8-1.37-5.42-3.17-8.39-4.23-4.21-1.49-7.6-5.24-10-8.43-1.14-1.5-2-3.13-3.21-4.64-.63-.84-1.35-1.62-2-2.42l.91.14c9.11,1.44,18.19,3,27.35,4.26,3.32.45,6.66.88,10,1.31h.06l1.59.2a43.27,43.27,0,0,0,7.46,8.3,46,46,0,0,0,5.6,3.7c.79.47,1.56,1,2.35,1.5l-.55.09c-5.08.81-10.22,1.47-15.38,2a31.12,31.12,0,0,1-4.86-3.84,50.2,50.2,0,0,1-4.44-5.39c-.22-.28-.62.34-.67.45a1.06,1.06,0,0,0,0,1.05,51.42,51.42,0,0,0,4.44,5.39,28.08,28.08,0,0,0,3,2.58ZM90.5,205.24c-4.15-1.35-8.25-2.85-12.25-4.51-1.06-.43-2.11-.88-3.16-1.34-2.55-4.29-6-8-7.58-12.71-1.39-4.11-3.54-8.3-4.14-12.56a71,71,0,0,1-.27-8.51C69.28,169,75.65,172.1,82.15,175a26,26,0,0,0,.9,6c.8,3.63,1.85,7.22,3,10.79,1.39,4.5,2.76,9.07,4.5,13.51Zm-7.23-29.78a32.1,32.1,0,0,0,1,5.15c.81,3.53,1.83,7,2.92,10.51,1.51,4.89,3,9.88,5,14.64a194.5,194.5,0,0,0,36.61,7.53c-.93-.63-1.82-1.31-2.68-2a52.39,52.39,0,0,1-7.49-7.06,111.25,111.25,0,0,1-13.47-20.56l-.54-.17a.28.28,0,0,1-.28-.09c-2.47-.77-4.92-1.61-7.34-2.49q-6.95-2.53-13.71-5.48ZM125,107.21h0a2.07,2.07,0,0,0-1.07,1.65,1.57,1.57,0,0,0,.07.93.44.44,0,0,0,.52.27,55,55,0,0,1,8.81-1.93,1.05,1.05,0,0,0,.63-.51,161,161,0,0,1,19.46,8.69c1.07.57,2.14,1.14,3.21,1.73a106.79,106.79,0,0,0-20,5.29c-14.12,5.11-27.56,12-40.62,18.81-11.58,6-21.21,14.73-33.43,19.83-4.82-2.65-9.53-5.45-14.09-8.38,5-4.61,9.89-9,16.07-12.58,5.29-3,10.45-6.22,15.76-9.22,11.38-6.45,23.09-12.48,34.85-18.43,1-.51,1.27-3.39-.13-2.68-7.93,4-15.82,8.07-23.63,12.26Q80.52,128.79,70,135.08c-2.26,1.34-4.51,2.69-6.81,4-6.39,3.62-11.33,8.57-16.51,13.33l-1.6-1.07c-4-2.69-8.15-5.23-12.33-7.72,6.34-3.72,12.65-7.48,19.05-11.13,6.17-3.51,12.43-6.91,18.89-10,5.56-2.68,11.28-5.1,16.87-7.75,10-4.77,21.69-11,33.62-10.66a1,1,0,0,0,.65-.25c2.58.68,5.14,1.43,7.66,2.26a29.27,29.27,0,0,0-4.44,1.16Zm63.74,90.89a39.19,39.19,0,0,0,6.16,6.54,43.11,43.11,0,0,0,5.32,3.54,41.41,41.41,0,0,0,4.57,2.72c9.76-1.68,19.48-3.89,29.07-6.11.88-.2,1.78-.4,2.68-.63a132.77,132.77,0,0,1-13.47-1.57c-6.66-.94-13.34-1.7-20-2.61-4.77-.66-9.55-1.27-14.33-1.88Zm-16.39,16.35c-.88-.43-1.73-.89-2.55-1.29-1-.5-2-1-3-1.53s-1.72-1-2.59-1.47a33.71,33.71,0,0,0-3.55-1.5c-3.75-1.53-6.83-5.06-9.08-7.93-1.28-1.63-2.26-3.42-3.52-5-1-1.3-2.18-2.47-3.13-3.79h-.17a.55.55,0,0,1-.52-.37c-7.74-1.14-15.52-2.11-23.16-3.7q-7.11-1.48-14-3.55a107.51,107.51,0,0,0,12.31,18.49,51.51,51.51,0,0,0,6.86,6.57,33.94,33.94,0,0,0,6.51,4.36c1.5.14,3,.27,4.5.38a288.22,288.22,0,0,0,35.16.38ZM72.62,198.29c-.64-.91-1.31-1.81-1.94-2.71a30.66,30.66,0,0,1-4.25-8.28c-1.26-3.84-3.19-7.62-3.92-11.57-.64-3.53-.21-7.12-.43-10.68q-5.74-3.15-11.27-6.55c-6.69-4.11-13.2-8.41-19.89-12.53,0,.68.12,1.4.09,1.93-.07,1.33-.12,2.65-.12,4a39.81,39.81,0,0,0,.63,8.08,30.07,30.07,0,0,0,2.65,7.46c1,2,1.77,4.3,3.45,5.92a1,1,0,0,1,.16.24,109.77,109.77,0,0,0,14.62,13.1,114.75,114.75,0,0,0,20.22,11.61ZM36.32,176c2.14,2.27,4.37,4.49,6.71,6.63,14,12.81,32.68,21.53,52.05,27.1,20.41,5.87,41.86,7.95,63.32,7.81a296.91,296.91,0,0,0,33.22-2c11.29-1.34,22.19-3.79,33.24-6.1,4.62-1,9.88-1.6,14.17-3.44a4.76,4.76,0,0,0,2.8-2.76,2.38,2.38,0,0,0,.17-1.63c-.2-2-1.77-3.9-2.71-5.65-2.21-4.1-4.25-8.23-6.65-12.25-9.85-16.43-22.7-32.42-38.49-45.12-7.66-6.16-16.4-11.47-25-16.7a223.38,223.38,0,0,0-24.62-13.27A131.71,131.71,0,0,0,85,97a114.28,114.28,0,0,0-30.76,5.16,172.47,172.47,0,0,0-17.55,7.09c-7,3.18-13.94,6.59-20.57,10.33a84.18,84.18,0,0,0-13.81,9.11l-.8,0h0c-.95,0-1.53,1.67-1.33,2.46-.24.62-.33,1.31,0,1.63,3,3.13,5.93,6.38,8.7,9.69,9,10.81,17,22.36,26.65,32.77a8.75,8.75,0,0,0,.72.78l0,0Zm149.93,18.64c14.47-3.24,26.27-12.55,41.21-14.54a176.81,176.81,0,0,0-12.31-16.58,1.27,1.27,0,0,1-.8.63c-13.32,2.59-25.77,9.15-36.94,15.67-6.64,3.87-13.69,8.26-21.43,10.52,4,.64,7.94,1.29,11.92,1.9,6.09.94,12.22,1.64,18.35,2.4Zm42.34-12.77c-.19.51-.51.94-.89,1-12.82,1.48-23.3,8.45-35,12.6l3.05.43c8.22,1.18,16.49,2.1,24.71,3.29,6.19.9,12.78,2.23,19.14,2.13-1.14-2.44-2.68-4.84-3.91-7.21q-3.24-6.22-7.07-12.23Zm-81,7.12q-3.54-.56-7.09-1.07a250,250,0,0,1-25.63-4.65q-2.86-.72-5.7-1.55c5.13-2.09,10.12-4.41,15-6.88,22.74-11.44,43.95-25.85,69.91-31.7a1.06,1.06,0,0,0,.55-.38c2,1.64,3.95,3.33,5.83,5.11a184.39,184.39,0,0,1,13,13.67c-12.3,2.62-23.93,8.52-34.34,14.51-9.41,5.41-19.72,12.59-31.58,12.94ZM82.93,171.51c24.2-9.09,44.59-23.92,68.39-33.64a131.87,131.87,0,0,1,21-6.68c1.18-.26.69,2.61-.43,2.86-26,5.85-47.18,20.26-69.92,31.71-5.31,2.68-10.74,5.18-16.34,7.41q3,1.31,6.09,2.53,6.67,2.69,13.58,4.89c24.15-9.09,44.51-23.89,68.27-33.6a134.31,134.31,0,0,1,18.65-6.13c-4.64-3.6-9.56-6.92-14.62-10.19-5.65-3.64-11.36-7.22-17.25-10.59a1.06,1.06,0,0,1-.66.37c-19.14,2.22-36.13,10.82-52.6,18.9a201.82,201.82,0,0,0-23.23,12.77c-6,4-11.8,8.2-18.43,11.36q8.35,4.46,17.12,8.34a1.12,1.12,0,0,1,.42-.31ZM30.7,142.11c12.76-7.44,25.34-15.18,38.77-21.75,5.63-2.75,11.45-5.19,17.12-7.88,5.45-2.59,10.91-5.19,16.61-7.35A66.72,66.72,0,0,1,113.73,102a115.16,115.16,0,0,0-14.22-1.85c-18.44-1.23-36.8,1.05-53.55,7.83-13.5,5.45-27.08,11.8-38.79,19.76-.66.44-1.31.9-2,1.36,6.45,1.26,12,5.28,17.28,8.45,2.66,1.6,5.34,3.18,8,4.77a.7.7,0,0,1,.19-.16ZM1,132.54c-.88.87-1-.4-.78-1.39a.46.46,0,0,0,.41.38c.47,0,.93,0,1.38.07C1.68,131.9,1.34,132.22,1,132.54Z"/><path class="cls-1" d="M620.63,171c6.33.47,11.71-1.54,14.59-5.5,1.79-2.46,2.15-5.27.88-6.81s-3.29-1.34-4.89-1.05c-8.14,1.44-10.12,10.19-10.58,13.36ZM755,211.21a126.56,126.56,0,0,0-22.14-10.92c2.59,2.49,4.82,6,3.47,9.92-3.1,9.16-18.31-1-10.4-12.48-6.06-2.14-12.23-4.06-18.35-5.95-5.84-1.8-11.65-3.8-17.53-5.57,2.86,2.54,4.54,5.79,4,9.45-.46,2.91-2.58,5.92-6.44,5.63-3.46-.25-6.31-2.7-7.87-5.18-2.48-4-2-8.65,0-12.67-7.46-1.7-15.1-2.77-22.72-3.77-9.79-1.27-19.54-2.69-29.3-4.09,3.76,1.71,7.36,4.48,8,8.86,1.53,11.17-20.92,5.74-17.55-10.23q-9.21-1.31-18.43-2.46-12.57-1.55-25.2-2.79c3.79,2.16,7.07,5.35,7.71,10a9.27,9.27,0,0,1,.07,1.94,6.15,6.15,0,0,1-3.55,5.36c-3.32,1.62-8.34.92-12.51-1.74a15.86,15.86,0,0,1-7.16-17Q549,166.7,538.9,166c-12.11-.79-24.13-1.2-36.18-1.15,5.21,1.4,11.12,4.25,12.64,10,3.3,12.63-23.13,8.68-21.51-9.92q-8.13.18-16.31.67c-10.16.61-20.29,1.43-30.43,2.24-4.23.34-8.46.64-12.7,1,4.86,1.52,9.95,4.35,11.34,9.67,3.24,12.37-22.09,8.83-21.57-8.82q-3.26.3-6.5.67c-18.42,2.13-36.48,6.06-54.9,8.19q-8.26,1-16.52,1.27c4.22,1.63,8.25,4.38,9.46,9,3.24,12.41-22.25,8.81-21.57-9a152.9,152.9,0,0,1-18.92-1.81,253.11,253.11,0,0,1-43.33-11.21,224.45,224.45,0,0,1-21.66-8.78c4.29,3.73,7.95,8.91,6.39,15.17-3.87,15.53-31.3-.75-17.34-20.91-1.69-1-3.36-2-5-3a83.42,83.42,0,0,1-6.95-5c-1-.79.57-3.8,1.7-2.88a95.55,95.55,0,0,0,11.42,7.78c7.38-21.88,39.81-17.23,29.91-3.64-5.48,7.52-16.34,7.87-23.53,7.12,5.68,2.91,11.62,5.47,17.58,7.81a261,261,0,0,0,43.17,12.81,170.64,170.64,0,0,0,26.53,3.35c-4.52-19.45,22.77-25.92,20.76-12.57-1.22,8.14-11.18,11.46-16.77,12.7q7.62.17,15.37-.4c18.52-1.37,36.62-5.18,54.91-7.84,5.25-.76,10.53-1.39,15.83-1.94-4.83-19.66,22.71-26.25,20.69-12.84-1.1,7.37-9.37,10.79-15.08,12.29,12.31-1.13,24.69-1.88,37-2.77,8.92-.64,17.85-1.15,26.77-1.42-3.53-18.77,22.92-24.86,20.94-11.71-.95,6.32-7.16,9.73-12.51,11.53,8.58-.11,17.16,0,25.76.5q15.74.85,31.44,2.16a16.93,16.93,0,0,1,9.62-16.86c4.61-2.29,9.82-2.51,13-.52a6,6,0,0,1,2.88,5.79,10.23,10.23,0,0,1-.36,2c-1.65,6-7.34,9.13-12.71,10.74q8.18.77,16.33,1.67c9.95,1.1,19.84,2.48,29.73,3.89.41-3.37,2.52-14,12.92-15.82,4.7-.84,6.95.93,7.88,2.06a5.94,5.94,0,0,1,1.25,4.3,10.24,10.24,0,0,1-2,5.25,16.09,16.09,0,0,1-8.68,5.85c5.92.84,11.84,1.68,17.78,2.45,9,1.18,18.12,2.19,27.07,3.8,2.35.42,4.66.92,7,1.47,1.41-3.16,6-11.47,14.95-11.19,10.6.33,5.94,12.43-5.91,13.65,3,.88,6,1.82,9,2.75,9.75,3,19.64,5.92,29.24,9.36,1.44-2.26,6.95-9.83,15.18-8.47,9.34,1.55,3.11,11.8-7.67,11.3,3.81,1.53,7.54,3.17,11.18,5a109.47,109.47,0,0,1,9.94,5.6c1.06.68-.4,3.72-1.7,2.89ZM562.17,164.56h0c4.25-.32,17-2,19.31-10.44.46-1.67.59-3.93-1.42-5.19-2.19-1.38-6.21-1.1-9.76.67a14.39,14.39,0,0,0-8.19,12.26,17.44,17.44,0,0,0,0,2.7Zm3,3.52-3.24-.29c-1.19,6.11,1,11.56,6,14.78,3.19,2,7,2.69,9.3,1.57,2.09-1,2.26-3.2,2-4.85-.92-6.72-8.9-9.86-14.1-11.21Zm115.55,25.35a10.21,10.21,0,0,0,6.73,5.35,5.37,5.37,0,0,0,3.32-.26c.13-.06.25-.13.37-.2s.19-.14,0,0l.14-.1.32-.29c.21-.2-.15.18,0,0l.17-.21c.22-.26,0,.11.12-.19,0-.08.26-.53.12-.21.07-.16.13-.32.19-.48s.06-.23,0,0c0-.11.06-.21.08-.32.82-3.55-1.68-6.79-4.69-9a25.84,25.84,0,0,0-7.09-3.75.4.4,0,0,1-.18-.1l.74.18A10.05,10.05,0,0,0,680.74,193.43Z"/></g></g></svg>