<svg xmlns="http://www.w3.org/2000/svg" viewBox="0 0 205.1 45.94"><defs><style>.cls-1{fill:#c3967b;}.cls-1,.cls-2{fill-rule:evenodd;}.cls-2{fill:#fbeee8;}</style></defs><g id="Layer_2" data-name="Layer 2"><g id="Layer_1-2" data-name="Layer 1"><path class="cls-1" d="M122.31,23c1.9-2.93,3.24-6.17,5-9.19a23.69,23.69,0,0,1,3-4.22A22.63,22.63,0,0,1,134.73,6a31.31,31.31,0,0,1,10.59-4.17,45.11,45.11,0,0,1,12-.83c2.05.14,4.11.44,6.15.74a5.82,5.82,0,0,1,1,.2l.26.13c.05,0,0-.13,0-.11a.65.65,0,0,0,0,.16c-.14.64-.41,1.28-.6,1.9a38.69,38.69,0,0,1-5.35,10.81,29.44,29.44,0,0,1-3.8,4.24c-1.32,1.27-2.66,2.51-4.1,3.65a22.48,22.48,0,0,1-9.57,4.69,19.53,19.53,0,0,1-10.12-.54,36.62,36.62,0,0,1-7.69-3.45,8.13,8.13,0,0,1-1.26-.92c-.26-.23-.15.38,0,.5a14.33,14.33,0,0,0,3.15,2c1.33.67,2.69,1.26,4.08,1.8a31.43,31.43,0,0,0,3.43,1.16,18.38,18.38,0,0,0,5.82.45,21.43,21.43,0,0,0,10.74-3.83,40.68,40.68,0,0,0,4.22-3.42,43.4,43.4,0,0,0,4.19-4.17,36.26,36.26,0,0,0,6-10.64c.34-.92.62-1.87.92-2.8A3.52,3.52,0,0,0,165,2.13a.94.94,0,0,0-.65-.81,12.36,12.36,0,0,0-2.72-.44,63.25,63.25,0,0,0-6.31-.61,49.4,49.4,0,0,0-6.2.29,36.27,36.27,0,0,0-11.53,3.07,23.6,23.6,0,0,0-9,7c-2.15,2.92-3.55,6.31-5.29,9.48-.43.78-.88,1.55-1.37,2.29-.11.17.2.72.3.56Z"/><path class="cls-1" d="M122.36,23.29c1.49-.2,2.6-1.42,3.66-2.37,1.29-1.16,2.6-2.28,3.83-3.5a46.09,46.09,0,0,1,8-6.31A31.23,31.23,0,0,1,142,9a40,40,0,0,1,4.63-1.57c1.67-.48,3.31-1,5-1.54s3.38-.9,5.06-1.39c1.5-.44,3-.82,4.5-1.25a17,17,0,0,1,3.83-.91c.23,0,0-.61-.16-.61a14.19,14.19,0,0,0-3.27.73l-3.63,1c-1.7.48-3.4.93-5.09,1.4s-3.31,1-5,1.52-3.25.91-4.83,1.5a28,28,0,0,0-4.29,2,45,45,0,0,0-8,5.88c-1.41,1.29-2.75,2.63-4.19,3.89-.69.61-1.36,1.25-2.07,1.85a4.7,4.7,0,0,1-2.35,1.21c-.17,0,0,.63.24.6Z"/><path class="cls-1" d="M127.42,19.74c2.56,1.34,5.08,2.75,7.74,3.88,1.11.48,2.25.88,3.37,1.34s2.15.89,3.26,1.24a8.18,8.18,0,0,0,3.6.45c.18,0,0-.64-.24-.6-2.21.33-4.52-.77-6.5-1.59-1.1-.45-2.23-.86-3.32-1.32-1.28-.53-2.53-1.14-3.76-1.77-1.41-.72-2.81-1.47-4.21-2.21-.25-.13-.11.48.06.58Z"/><path class="cls-1" d="M132.78,14.71c2.41.84,4.43,2.54,6.74,3.6a59.36,59.36,0,0,0,8,3.21,17.07,17.07,0,0,0,4.48.74c.27,0,.09-.61-.14-.62-3.61-.06-7-1.56-10.23-3A36,36,0,0,1,137,16.41a22.46,22.46,0,0,0-4.27-2.28c-.3-.11-.17.51,0,.58Z"/><path class="cls-1" d="M140.23,9.75c4.71,1.45,8.87,4.23,13.52,5.83a22.59,22.59,0,0,0,4.05,1c.23,0,.06-.58-.15-.61-5-.71-9.25-3.38-13.76-5.37a32.45,32.45,0,0,0-3.81-1.45c-.2-.06-.06.54.15.61Z"/><path class="cls-1" d="M136.35,12.21c4.71,1.45,8.86,4.23,13.52,5.83a22.61,22.61,0,0,0,4,1c.23,0,.06-.59-.15-.62-5-.7-9.25-3.38-13.76-5.37a33.74,33.74,0,0,0-3.82-1.45c-.19-.06-.05.55.16.61Z"/><path class="cls-1" d="M147.52,7.05c2.33-.37,4.54,1.06,6.53,2.08a20.48,20.48,0,0,0,7,2.44c.25,0,.09-.59-.15-.62a21,21,0,0,1-7.24-2.6c-1.94-1-4.07-2.26-6.35-1.91-.22,0,0,.65.24.61Z"/><path class="cls-1" d="M154.8,4.92c2.85.38,5.33,2.23,8.23,2.28.21,0,0-.6-.16-.6-2.91-.06-5.38-1.91-8.23-2.28-.19,0,0,.58.16.6Z"/><path class="cls-1" d="M127.44,19.2a2.86,2.86,0,0,1-.11-.73c0-.29-.09-.57-.12-.86a10.5,10.5,0,0,1-.09-1.77,7.41,7.41,0,0,1,.3-1.68,4.61,4.61,0,0,1,.49-1.36c.13-.19-.18-.75-.32-.55a5.09,5.09,0,0,0-.56,1.51,8.35,8.35,0,0,0-.32,2,12.52,12.52,0,0,0,.14,2c.05.31.11.61.14.92a1.81,1.81,0,0,0,.2.79c0,.1.17.22.28.13s0-.33,0-.41Z"/><path class="cls-1" d="M132.86,14.52c0-.82-.21-1.63-.2-2.45a18.16,18.16,0,0,1,.44-2.82,21.15,21.15,0,0,1,1.17-3.17c0-.1-.15-.4-.19-.26a15.05,15.05,0,0,1-.62,1.43,7.25,7.25,0,0,0-.57,1.89,21,21,0,0,0-.43,2.6c0,.87.18,1.72.2,2.58,0,.1.21.39.2.2Z"/><path class="cls-1" d="M140.3,9.5a25.2,25.2,0,0,1,2-4.87,10.06,10.06,0,0,1,1.1-1.57,5.07,5.07,0,0,1,1.45-1.32c.11-.06,0-.39-.14-.34a4.91,4.91,0,0,0-1.38,1.23,10.61,10.61,0,0,0-1.21,1.69,26,26,0,0,0-2,4.92c0,.11.16.41.2.26Z"/><path class="cls-1" d="M147.41,6.92a11.45,11.45,0,0,1,.57-1.1c.18-.35.3-.73.48-1.08a4.72,4.72,0,0,1,1.64-2.05,13.71,13.71,0,0,0,1.44-1.1,4.87,4.87,0,0,1,1.29-.82c.11,0,0-.37-.13-.34a5.13,5.13,0,0,0-1.32.85l-.52.39c-.16.12-.3.26-.45.38a4.38,4.38,0,0,1-.62.4,5.09,5.09,0,0,0-1.48,1.92c-.19.39-.33.79-.52,1.18a11.87,11.87,0,0,0-.58,1.12c0,.1.15.4.2.25Z"/><path class="cls-1" d="M155,4.72a9,9,0,0,1,1.25-2.14,8.22,8.22,0,0,1,.89-.88,4.49,4.49,0,0,1,1-.79c.11-.05,0-.39-.13-.34a4.39,4.39,0,0,0-.94.78,8.17,8.17,0,0,0-.94.92,9.81,9.81,0,0,0-1.28,2.19c0,.1.13.4.2.26Z"/><path class="cls-1" d="M130.11,17.16a18.09,18.09,0,0,0,3.4,2.53l1.37.72c1.41.76,2.83,1.49,4.28,2.18s3.12,1.45,4.69,2.15c.27.12.15-.5,0-.59-2.33-1-4.65-2.09-6.92-3.25-1.06-.54-2.1-1.12-3.16-1.66a19.15,19.15,0,0,1-3.55-2.6c-.28-.24-.22.37-.06.52Z"/><path class="cls-1" d="M145.78,25.27a8.71,8.71,0,0,0,1.68.23c.21,0,0-.59-.16-.61a7.9,7.9,0,0,1-1.68-.23c-.05,0-.08,0-.09.08a.34.34,0,0,0,0,.2c0,.12.11.29.24.33Z"/><path class="cls-1" d="M137,4.18c-.28,1.17-.44,2.38-.61,3.57-.11.8-.22,1.61-.27,2.41a5,5,0,0,0,0,1.6c0,.17.27.26.21,0a4.6,4.6,0,0,1,0-1.57c.06-.79.16-1.57.27-2.35.16-1.14.32-2.3.59-3.42,0-.12-.17-.41-.21-.26Z"/><path class="cls-1" d="M154.35.45a6.92,6.92,0,0,0-.91,1,10.33,10.33,0,0,0-.68,1.27.27.27,0,0,0,0,.23s.1.15.13.08a12,12,0,0,1,.69-1.27,6.4,6.4,0,0,1,.91-1c.07-.07-.08-.39-.17-.31Z"/><path class="cls-1" d="M177.61,12.16a93.36,93.36,0,0,1-20.54,13.27,62.86,62.86,0,0,1-23.42,6.07A49.26,49.26,0,0,1,120,30.22c-.24,0-.32.66,0,.73a52.25,52.25,0,0,0,24.3-.26,75.73,75.73,0,0,0,22.54-9.82,99.86,99.86,0,0,0,11-8.07c.18-.15.11-.86-.14-.64Z"/><path class="cls-1" d="M171.74,13.68A25.71,25.71,0,0,1,171,16.8c0,.14,0,.38.12.46s.25-.12.27-.24a26.92,26.92,0,0,0,.77-3.31c0-.12,0-.36-.19-.37s-.22.23-.23.34Z"/><path class="cls-1" d="M166.82,20.32a21.7,21.7,0,0,0,6,1.41c.26,0,.33-.69,0-.73A20.61,20.61,0,0,1,167,19.63c-.27-.12-.38.59-.15.69Z"/><path class="cls-1" d="M161.46,14.38a17,17,0,0,1-.31,4.56,16,16,0,0,1-.77,4.35.65.65,0,0,0,0,.51c.06.11.17.18.24,0a17.86,17.86,0,0,0,.9-4.83,18.28,18.28,0,0,0,.29-4.95c0-.14-.1-.22-.22-.15s-.11.38-.09.49Z"/><path class="cls-1" d="M150.15,18.92a16.82,16.82,0,0,1,.17,5.25,17.31,17.31,0,0,1-1.44,4.19c-.13.26.12.82.32.39a17.43,17.43,0,0,0,1.52-4.48,18.19,18.19,0,0,0-.17-5.51c-.07-.48-.45-.2-.4.16Z"/><path class="cls-1" d="M155.32,26.42A13.63,13.63,0,0,0,157,27.68a7.92,7.92,0,0,0,1.81.74,17.55,17.55,0,0,0,3.87.75c.27,0,.33-.7,0-.72a17.55,17.55,0,0,1-3.73-.71,8.15,8.15,0,0,1-1.95-.82,13,13,0,0,1-1.57-1.19c-.21-.17-.37.52-.16.69Z"/><path class="cls-1" d="M143.45,30.4a4,4,0,0,0,.74,1.31c.3.39.57.8.89,1.17a7.21,7.21,0,0,0,2.53,1.92c.29.13.41-.58.16-.69a7,7,0,0,1-2.39-1.79c-.29-.32-.52-.69-.79-1a3.81,3.81,0,0,1-.75-1.23c0-.13-.14-.25-.28-.15a.53.53,0,0,0-.11.49Z"/><path class="cls-1" d="M133,32a16.39,16.39,0,0,0,5.53,4.26,49.82,49.82,0,0,0,7.1,2.79c.17.06.29-.64,0-.72a48.64,48.64,0,0,1-7-2.77,15.91,15.91,0,0,1-5.46-4.18c-.18-.23-.33.45-.21.62Z"/><path class="cls-1" d="M135.17,26.19a31.84,31.84,0,0,1-2.32,2.73,23.23,23.23,0,0,1-2.47,2.49c-.17.14-.12.84.13.64a25.88,25.88,0,0,0,2.55-2.58,34,34,0,0,0,2.32-2.75c.13-.19,0-.86-.21-.53Z"/><path class="cls-1" d="M172.14,14.14a.89.89,0,1,1,.62-1.1A.89.89,0,0,1,172.14,14.14Z"/><path class="cls-1" d="M173.49,22.42a1.2,1.2,0,1,1,.84-1.47A1.19,1.19,0,0,1,173.49,22.42Z"/><path class="cls-1" d="M162.12,14.72a1.19,1.19,0,0,1-1.47-.84,1.2,1.2,0,1,1,1.47.84Z"/><path class="cls-1" d="M164.41,16.56a.74.74,0,0,1-.92-.52.75.75,0,1,1,.92.52Z"/><path class="cls-1" d="M154.9,19.58a.74.74,0,0,1-.92-.52.75.75,0,1,1,.92.52Z"/><path class="cls-1" d="M142.78,35.6a.75.75,0,1,1,.52-.92A.74.74,0,0,1,142.78,35.6Z"/><path class="cls-1" d="M161.08,27.44a.74.74,0,1,1,.52-.91A.73.73,0,0,1,161.08,27.44Z"/><path class="cls-1" d="M176,22.11a.74.74,0,0,1-.92-.52.73.73,0,0,1,.52-.91.74.74,0,1,1,.4,1.43Z"/><path class="cls-1" d="M176.14,11.45a.73.73,0,0,1-.91-.52.74.74,0,1,1,.91.52Z"/><path class="cls-1" d="M135.85,25.17a.75.75,0,1,1,.52-.92A.75.75,0,0,1,135.85,25.17Z"/><path class="cls-1" d="M145.74,36.08a.57.57,0,1,1,.41-.71A.58.58,0,0,1,145.74,36.08Z"/><path class="cls-1" d="M148.94,22.08a.94.94,0,0,1-.49-1.82.94.94,0,1,1,.49,1.82Z"/><path class="cls-1" d="M163,30a1.2,1.2,0,1,1-.63-2.32,1.19,1.19,0,0,1,1.47.84A1.2,1.2,0,0,1,163,30Z"/><path class="cls-1" d="M148.48,35.49a1.2,1.2,0,1,1,.84-1.48A1.21,1.21,0,0,1,148.48,35.49Z"/><path class="cls-1" d="M136.65,28.08a.78.78,0,0,1-.41-1.5.79.79,0,0,1,1,.55A.77.77,0,0,1,136.65,28.08Z"/><path class="cls-1" d="M142.23,39.59a.77.77,0,0,1-1-.54.79.79,0,0,1,.54-1,.78.78,0,0,1,.42,1.5Z"/><path class="cls-1" d="M150.56,19.59a.78.78,0,1,1,.54-1A.78.78,0,0,1,150.56,19.59Z"/><path class="cls-1" d="M154.65,18.73a20.59,20.59,0,0,1-4,4c-.09.07-.06.42.07.32A20.77,20.77,0,0,0,154.75,19c.07-.09,0-.43-.1-.26Z"/><path class="cls-1" d="M142.57,34.7a20.39,20.39,0,0,1-5.68,0c-.13,0-.16.35,0,.36a20.75,20.75,0,0,0,5.73,0c.12,0,.12-.39,0-.36Z"/><path class="cls-1" d="M179.23,13.21a20.32,20.32,0,0,1-5.46,1.67c-.11,0-.12.38,0,.35a20.71,20.71,0,0,0,5.45-1.66c.11-.06.09-.42,0-.36Z"/><path class="cls-1" d="M204.76,19.3A29.78,29.78,0,0,1,197,23.17c-1.31.5-2.6,1.06-3.93,1.49a31.42,31.42,0,0,1-4.4,1c-3.16.52-6.29,1.16-9.45,1.66-3.33.53-6.67.94-10,1.25a69.91,69.91,0,0,1-10.13.2c-1.68-.09-3.36-.23-5-.36s-3.26-.22-4.87-.41c-3-.38-6-1.1-9.1-1.47a24.33,24.33,0,0,0-7.85.21A37.21,37.21,0,0,0,125.06,29a28,28,0,0,0-6.16,3.49,13.48,13.48,0,0,0-1.14,1c-.16.15.11.73.29.55a21.68,21.68,0,0,1,5.8-3.77,38.82,38.82,0,0,1,7.09-2.59,23.59,23.59,0,0,1,7.58-.69c3.06.22,6.06.92,9.09,1.39,3.19.5,6.45.66,9.67.89a66.37,66.37,0,0,0,10.07.07c3.32-.25,6.63-.62,9.93-1.09s6.46-1.14,9.7-1.68c1.49-.25,3-.46,4.46-.8a29.92,29.92,0,0,0,4.11-1.35A48.69,48.69,0,0,0,203.42,21a18,18,0,0,0,1.63-1.11c.17-.14-.08-.72-.29-.56Z"/><path class="cls-1" d="M200.19,22.28s2-1.19,1.49-2.74C201.12,17.69,198.43,20,200.19,22.28Z"/><path class="cls-1" d="M200.29,22.4s1,2.06,2.59,1.73C204.77,23.74,202.75,20.86,200.29,22.4Z"/><path class="cls-1" d="M192.69,25.26a4.36,4.36,0,0,0,1.14-.71,2.29,2.29,0,0,0,.89-2.1c-.08-.56-.44-1.14-1.07-1.07a1.76,1.76,0,0,0-1.29,1,2.94,2.94,0,0,0,.17,2.73c0,.06.11.18.19.11s0-.24,0-.31a2.3,2.3,0,0,1-.17-2,1.8,1.8,0,0,1,1.1-1.06.74.74,0,0,1,.55.05l.06,0s0,0,0,0l0,0,.06.05s0,0,0,0l0,0c0,.05,0,0,0,0l0,0,0,.09s0,.05,0,0,0,0,0,.06a1.94,1.94,0,0,1-.75,1.76,3.87,3.87,0,0,1-1.17.74C192.38,24.87,192.54,25.32,192.69,25.26Z"/><path class="cls-1" d="M192.5,25.22s.76,2.46,2.58,2.37C197.25,27.48,195.51,23.93,192.5,25.22Z"/><path class="cls-1" d="M182.29,27s2.63-.38,2.82-2.26C185.34,22.54,181.45,23.75,182.29,27Z"/><path class="cls-1" d="M173,28.23c.67-.15,2.66-.72,2.82-2.34a.89.89,0,0,0-.35-.94,1.5,1.5,0,0,0-1.53.33,2.88,2.88,0,0,0-.94,2.95Zm3.31-2.67a1.55,1.55,0,0,1,0,.37c-.24,2.32-3.31,2.8-3.45,2.82l-.21,0,0-.21a3.4,3.4,0,0,1,1.06-3.68,2,2,0,0,1,2.06-.36A1.19,1.19,0,0,1,176.3,25.56Z"/><path class="cls-1" d="M173,29.3a2.86,2.86,0,0,0,1.39,2.36,1.56,1.56,0,0,0,1.61.11.94.94,0,0,0,.23-1c-.41-1.63-2.53-1.93-3.23-2a4.51,4.51,0,0,0,0,.52ZM176.78,31a1.24,1.24,0,0,1-.46,1.13,2,2,0,0,1-2.15-.07,3.5,3.5,0,0,1-1.61-3.58l0-.22h.21c.14,0,3.34,0,3.91,2.36A2.06,2.06,0,0,1,176.78,31Z"/><path class="cls-1" d="M161.77,29.13s3-.13,3.49-2.25C165.79,24.36,161.19,25.29,161.77,29.13Z"/><path class="cls-1" d="M161.76,29.14s3.12.34,3.43,2.55C165.56,34.3,160.91,33,161.76,29.14Z"/><path class="cls-1" d="M150.26,28.59s3.05-.14,3.49-2.26C154.28,23.81,149.68,24.75,150.26,28.59Z"/><path class="cls-1" d="M150.25,28.6s3.12.34,3.43,2.54C154.06,33.76,149.4,32.5,150.25,28.6Z"/><path class="cls-1" d="M135.36,26.79s3-.13,3.49-2.26C139.38,22,134.78,23,135.36,26.79Z"/><path class="cls-1" d="M135.35,26.8s3.12.34,3.43,2.55C139.15,32,134.5,30.7,135.35,26.8Z"/><path class="cls-1" d="M119.81,32s3.29-1.68,2.71-4.24C121.83,24.75,117.24,28.09,119.81,32Z"/><path class="cls-1" d="M119.8,32.05s3.61-1.2,5.07,1.08C126.6,35.83,120.83,36.78,119.8,32.05Z"/><path class="cls-1" d="M182.66,27.41c.09.61.44,2.3,1.79,2.56a.74.74,0,0,0,.8-.21,1.29,1.29,0,0,0-.16-1.32,2.46,2.46,0,0,0-2.43-1Zm3.19,1.79a1.29,1.29,0,0,1-.2.83,1.18,1.18,0,0,1-1.3.42c-2-.39-2.18-3.12-2.19-3.24V27l.21,0a3,3,0,0,1,3.14,1.22A2.39,2.39,0,0,1,185.85,29.2Z"/><path class="cls-1" d="M82.86,22.72c-1.9-2.93-3.24-6.17-5-9.18a23.78,23.78,0,0,0-3-4.22A22.34,22.34,0,0,0,70.44,5.7,31.15,31.15,0,0,0,59.86,1.52a45.17,45.17,0,0,0-12-.82c-2,.14-4.11.44-6.14.74a5.64,5.64,0,0,0-1,.2c-.05,0-.24.13-.27.13s0-.13.05-.12,0,.15,0,.17c.14.63.41,1.27.6,1.9a38.66,38.66,0,0,0,5.34,10.81,30.54,30.54,0,0,0,3.8,4.24c1.32,1.27,2.67,2.51,4.1,3.64a22.54,22.54,0,0,0,9.58,4.7,19.64,19.64,0,0,0,10.12-.54,37.29,37.29,0,0,0,7.68-3.45A8.94,8.94,0,0,0,83,22.2c.25-.24.14.38,0,.5a13.93,13.93,0,0,1-3.15,2c-1.32.67-2.69,1.26-4.07,1.8a27.67,27.67,0,0,1-3.43,1.16,18.44,18.44,0,0,1-5.83.46,21.59,21.59,0,0,1-10.73-3.83,39.65,39.65,0,0,1-4.22-3.42,43.51,43.51,0,0,1-4.2-4.17A36.49,36.49,0,0,1,41.41,6c-.34-.93-.61-1.87-.92-2.81a3.6,3.6,0,0,1-.35-1.36.93.93,0,0,1,.66-.81A12.38,12.38,0,0,1,43.51.61C45.61.35,47.7.06,49.82,0A47.5,47.5,0,0,1,56,.3,35.75,35.75,0,0,1,67.55,3.37a23.33,23.33,0,0,1,9,7c2.16,2.93,3.56,6.31,5.3,9.48.43.78.88,1.55,1.36,2.3.11.17-.19.71-.3.55Z"/><path class="cls-1" d="M82.81,23c-1.49-.21-2.59-1.43-3.65-2.38-1.29-1.15-2.61-2.27-3.83-3.49a45.32,45.32,0,0,0-8-6.31,30.13,30.13,0,0,0-4.09-2.16,40,40,0,0,0-4.63-1.56c-1.66-.49-3.31-1-5-1.54s-3.38-.9-5.06-1.4c-1.49-.43-3-.81-4.49-1.25A16.93,16.93,0,0,0,40.24,2c-.24,0,0-.62.15-.61a14.71,14.71,0,0,1,3.27.72c1.21.35,2.43.66,3.64,1,1.69.48,3.39.93,5.09,1.41s3.3,1,5,1.51,3.25.92,4.84,1.51a28.9,28.9,0,0,1,4.29,2,44.87,44.87,0,0,1,8,5.87c1.41,1.29,2.76,2.64,4.19,3.9.69.61,1.37,1.25,2.07,1.84a4.8,4.8,0,0,0,2.35,1.22c.17,0,0,.63-.24.6Z"/><path class="cls-1" d="M77.75,19.47c-2.55,1.34-5.08,2.75-7.73,3.89-1.12.47-2.26.88-3.37,1.34s-2.16.89-3.27,1.24a8,8,0,0,1-3.59.44c-.19,0,0-.63.24-.6,2.2.34,4.52-.77,6.5-1.58,1.1-.46,2.22-.86,3.32-1.32,1.27-.54,2.52-1.14,3.75-1.77,1.42-.72,2.81-1.48,4.21-2.22.25-.12.12.49-.06.58Z"/><path class="cls-1" d="M72.39,14.45C70,15.29,68,17,65.65,18.05a58.79,58.79,0,0,1-8,3.2,17,17,0,0,1-4.47.75c-.28,0-.1-.62.14-.62,3.6-.06,7-1.57,10.22-3a36.8,36.8,0,0,0,4.63-2.28,23.9,23.9,0,0,1,4.26-2.28c.3-.1.18.51,0,.59Z"/><path class="cls-1" d="M65,9.48c-4.72,1.45-8.87,4.23-13.53,5.83a22.61,22.61,0,0,1-4.05,1c-.22,0-.06-.58.15-.62,5-.7,9.26-3.37,13.76-5.37A35.26,35.26,0,0,1,65.1,8.87c.19-.06.06.55-.15.61Z"/><path class="cls-1" d="M68.83,12C64.11,13.4,60,16.18,55.31,17.78a22.69,22.69,0,0,1-4.06,1c-.22,0-.06-.58.16-.61,5-.71,9.25-3.38,13.75-5.37A35.26,35.26,0,0,1,69,11.34c.19-.06.06.54-.15.61Z"/><path class="cls-1" d="M57.66,6.78c-2.34-.36-4.55,1.06-6.53,2.09a20.46,20.46,0,0,1-7,2.43c-.26,0-.09-.59.14-.61a21,21,0,0,0,7.24-2.61c1.94-1,4.08-2.26,6.36-1.9.22,0,0,.64-.24.6Z"/><path class="cls-1" d="M50.37,4.66c-2.85.37-5.32,2.23-8.23,2.28-.21,0,0-.6.16-.61,2.91,0,5.39-1.91,8.23-2.28.2,0,0,.58-.16.61Z"/><path class="cls-1" d="M77.74,18.93a2.46,2.46,0,0,0,.1-.72c0-.29.09-.58.13-.86a11.67,11.67,0,0,0,.09-1.77,7.9,7.9,0,0,0-.31-1.68,4.75,4.75,0,0,0-.48-1.37c-.14-.19.18-.74.31-.54a5,5,0,0,1,.56,1.51,7.31,7.31,0,0,1,.32,2,12.72,12.72,0,0,1-.14,2c0,.3-.1.61-.13.91a2.05,2.05,0,0,1-.2.8c-.06.09-.18.22-.29.13s0-.33,0-.42Z"/><path class="cls-1" d="M72.31,14.25c0-.82.21-1.62.21-2.44A19.25,19.25,0,0,0,72.07,9,21.15,21.15,0,0,0,70.9,5.82c0-.1.15-.4.2-.26.16.49.4,1,.61,1.43a7.27,7.27,0,0,1,.58,1.89,25.16,25.16,0,0,1,.43,2.6c0,.86-.19,1.71-.21,2.58,0,.1-.2.38-.2.19Z"/><path class="cls-1" d="M64.87,9.24a24.9,24.9,0,0,0-2-4.87,10.2,10.2,0,0,0-1.11-1.58,5.14,5.14,0,0,0-1.44-1.31c-.12-.06,0-.4.13-.34a5.22,5.22,0,0,1,1.39,1.22,11.11,11.11,0,0,1,1.2,1.7,25.08,25.08,0,0,1,2,4.92c0,.11-.15.41-.2.26Z"/><path class="cls-1" d="M57.76,6.66a9.56,9.56,0,0,0-.57-1.1c-.17-.36-.3-.73-.47-1.08a4.68,4.68,0,0,0-1.64-2.05,14.17,14.17,0,0,1-1.45-1.1A4.87,4.87,0,0,0,52.34.51c-.11,0,0-.38.14-.34A5.14,5.14,0,0,1,53.79,1l.53.4.44.37a6,6,0,0,0,.62.41,4.92,4.92,0,0,1,1.48,1.92c.19.38.33.79.52,1.17A9.9,9.9,0,0,1,58,6.4c0,.1-.14.41-.2.26Z"/><path class="cls-1" d="M50.18,4.46a9.52,9.52,0,0,0-1.25-2.14,7.57,7.57,0,0,0-.9-.89,4.81,4.81,0,0,0-1-.79c-.1-.05,0-.38.14-.33a4.94,4.94,0,0,1,.94.77A10.31,10.31,0,0,1,49.1,2a9.71,9.71,0,0,1,1.27,2.18c0,.1-.13.41-.19.27Z"/><path class="cls-1" d="M75.06,16.89a17.93,17.93,0,0,1-3.4,2.54c-.46.23-.91.48-1.36.72Q68.19,21.29,66,22.32c-1.56.74-3.12,1.45-4.69,2.15-.28.12-.16-.49,0-.58,2.33-1,4.65-2.1,6.93-3.25,1.06-.54,2.09-1.12,3.15-1.66A19.2,19.2,0,0,0,75,16.37c.28-.23.23.38.06.52Z"/><path class="cls-1" d="M59.39,25a9.43,9.43,0,0,1-1.68.23c-.2,0,0-.59.16-.61a9.31,9.31,0,0,0,1.68-.23c.05,0,.08,0,.09.07a.34.34,0,0,1,0,.2c0,.13-.1.3-.24.34Z"/><path class="cls-1" d="M68.16,3.92a36,36,0,0,1,.61,3.57c.12.8.22,1.6.28,2.41a5.06,5.06,0,0,1,0,1.6c0,.16-.26.26-.2,0a5.23,5.23,0,0,0,0-1.58c-.07-.78-.17-1.57-.28-2.34-.16-1.14-.31-2.31-.58-3.43,0-.11.17-.41.2-.25Z"/><path class="cls-1" d="M50.82.19a6.4,6.4,0,0,1,.91,1,12,12,0,0,1,.69,1.27.25.25,0,0,1,0,.22s-.1.15-.13.09a12,12,0,0,0-.69-1.27,6.86,6.86,0,0,0-.9-1c-.08-.07.08-.4.16-.31Z"/><path class="cls-1" d="M27.51,13.81A93,93,0,0,0,48.05,27.08a62.67,62.67,0,0,0,23.42,6.07,49.63,49.63,0,0,0,13.69-1.27c.24-.06.32.66,0,.72a52.12,52.12,0,0,1-24.3-.26,75.47,75.47,0,0,1-22.54-9.82,99.86,99.86,0,0,1-11-8.07c-.18-.15-.11-.85.14-.64Z"/><path class="cls-1" d="M33.38,15.33a25.71,25.71,0,0,0,.74,3.12c0,.14,0,.39-.12.46s-.25-.12-.27-.23A25.32,25.32,0,0,1,33,15.36c0-.12,0-.36.18-.37s.22.23.23.34Z"/><path class="cls-1" d="M38.3,22a21,21,0,0,1-5.95,1.41c-.26,0-.33-.69-.05-.72a21,21,0,0,0,5.85-1.38c.27-.12.38.59.15.69Z"/><path class="cls-1" d="M43.66,16A17,17,0,0,0,44,20.59a15.89,15.89,0,0,0,.77,4.35.67.67,0,0,1,0,.52c-.06.1-.17.17-.24,0a17.86,17.86,0,0,1-.9-4.82,18.38,18.38,0,0,1-.29-5c0-.14.1-.22.22-.14s.11.37.09.49Z"/><path class="cls-1" d="M55,20.57a16.83,16.83,0,0,0-.17,5.25A17.31,17.31,0,0,0,56.24,30c.13.27-.12.82-.32.39a17.43,17.43,0,0,1-1.52-4.48,18.19,18.19,0,0,1,.17-5.51c.07-.48.45-.2.4.16Z"/><path class="cls-1" d="M49.8,28.08a13.55,13.55,0,0,1-1.68,1.25,8.43,8.43,0,0,1-1.81.75,18.13,18.13,0,0,1-3.87.74c-.27,0-.33-.7,0-.72a17.55,17.55,0,0,0,3.73-.71,8.12,8.12,0,0,0,2-.81,13,13,0,0,0,1.57-1.2c.21-.17.37.52.16.7Z"/><path class="cls-1" d="M61.67,32.05a4,4,0,0,1-.74,1.31c-.3.39-.57.8-.89,1.17a7.21,7.21,0,0,1-2.53,1.92c-.29.13-.4-.58-.16-.69A7.09,7.09,0,0,0,59.74,34c.29-.33.52-.7.79-1a4,4,0,0,0,.75-1.24c0-.13.14-.25.28-.15a.53.53,0,0,1,.11.49Z"/><path class="cls-1" d="M72.1,33.61a16.27,16.27,0,0,1-5.53,4.26,49.82,49.82,0,0,1-7.1,2.79c-.17.06-.29-.64,0-.72a49.78,49.78,0,0,0,7-2.76A16.16,16.16,0,0,0,71.89,33c.18-.24.33.44.21.61Z"/><path class="cls-1" d="M70,27.84a33.59,33.59,0,0,0,2.32,2.74,24.1,24.1,0,0,0,2.47,2.48c.17.14.12.84-.13.64a24.75,24.75,0,0,1-2.55-2.57,36,36,0,0,1-2.32-2.76c-.13-.18,0-.86.21-.53Z"/><path class="cls-1" d="M33,15.79a.89.89,0,1,0-.62-1.1A.9.9,0,0,0,33,15.79Z"/><path class="cls-1" d="M31.63,24.08a1.22,1.22,0,0,0,1.48-.85,1.2,1.2,0,1,0-1.48.85Z"/><path class="cls-1" d="M43,16.37a1.2,1.2,0,1,0,.63-2.31A1.2,1.2,0,1,0,43,16.37Z"/><path class="cls-1" d="M40.71,18.21a.74.74,0,0,0,.92-.52.73.73,0,0,0-.52-.91.74.74,0,1,0-.4,1.43Z"/><path class="cls-1" d="M50.22,21.23a.74.74,0,1,0-.52-.91A.74.74,0,0,0,50.22,21.23Z"/><path class="cls-1" d="M62.34,37.25a.74.74,0,0,0,.92-.52.75.75,0,0,0-.52-.92.76.76,0,0,0-.92.52A.74.74,0,0,0,62.34,37.25Z"/><path class="cls-1" d="M44,29.1a.75.75,0,0,0,.39-1.44A.75.75,0,0,0,44,29.1Z"/><path class="cls-1" d="M29.09,23.76a.74.74,0,1,0-.52-.91A.74.74,0,0,0,29.09,23.76Z"/><path class="cls-1" d="M29,13.1a.74.74,0,1,0,.39-1.43A.74.74,0,0,0,29,13.1Z"/><path class="cls-1" d="M69.27,26.82a.75.75,0,0,0,.39-1.44.75.75,0,0,0-.91.53A.74.74,0,0,0,69.27,26.82Z"/><path class="cls-1" d="M59.38,37.73a.57.57,0,0,0,.71-.4.58.58,0,1,0-.71.4Z"/><path class="cls-1" d="M56.18,23.73a.92.92,0,0,0,1.15-.66.94.94,0,0,0-.66-1.16,1,1,0,0,0-1.16.67A.94.94,0,0,0,56.18,23.73Z"/><path class="cls-1" d="M42.1,31.62a1.2,1.2,0,1,0-.84-1.48A1.2,1.2,0,0,0,42.1,31.62Z"/><path class="cls-1" d="M56.64,37.14a1.2,1.2,0,1,0,.64-2.32,1.2,1.2,0,0,0-.64,2.32Z"/><path class="cls-1" d="M68.47,29.73a.77.77,0,0,0,1-.54.78.78,0,1,0-1.5-.41A.77.77,0,0,0,68.47,29.73Z"/><path class="cls-1" d="M62.89,41.25a.78.78,0,1,0-.54-1A.78.78,0,0,0,62.89,41.25Z"/><path class="cls-1" d="M54.56,21.24a.78.78,0,1,0-.54-.95A.78.78,0,0,0,54.56,21.24Z"/><path class="cls-1" d="M50.47,20.38a20.32,20.32,0,0,0,4,4c.09.07.06.42-.07.32a21,21,0,0,1-4.06-4c-.07-.1,0-.44.1-.27Z"/><path class="cls-1" d="M62.55,36.36a20.39,20.39,0,0,0,5.68,0c.13,0,.16.35,0,.36a20.75,20.75,0,0,1-5.73,0c-.12,0-.12-.39,0-.35Z"/><path class="cls-1" d="M25.89,14.87a20.67,20.67,0,0,0,5.46,1.66c.11,0,.12.39,0,.36a20.73,20.73,0,0,1-5.45-1.67c-.11-.06-.09-.42,0-.35Z"/><path class="cls-1" d="M.35,19a29.81,29.81,0,0,0,7.78,3.88c1.3.49,2.6,1.05,3.93,1.48a31.29,31.29,0,0,0,4.39,1c3.16.52,6.29,1.16,9.45,1.66,3.33.53,6.68.94,10,1.25a68.65,68.65,0,0,0,10.14.2c1.68-.09,3.35-.23,5-.36s3.25-.22,4.87-.41c3.05-.38,6-1.1,9.09-1.47a24.61,24.61,0,0,1,7.85.21A37,37,0,0,1,80,28.67a28,28,0,0,1,6.17,3.49c.39.31.77.64,1.13,1,.16.16-.1.73-.29.55a21.79,21.79,0,0,0-5.79-3.77,38.15,38.15,0,0,0-7.1-2.58,23.29,23.29,0,0,0-7.57-.7c-3.07.22-6.07.92-9.1,1.39-3.19.5-6.44.66-9.66.89A67.7,67.7,0,0,1,37.76,29c-3.32-.26-6.64-.62-9.93-1.1s-6.46-1.14-9.7-1.68c-1.49-.25-3-.46-4.46-.79a29.53,29.53,0,0,1-4.11-1.36,48.69,48.69,0,0,1-7.87-3.43A16.69,16.69,0,0,1,.06,19.54c-.18-.13.07-.72.29-.56Z"/><path class="cls-1" d="M4.91,22S3,20.77,3.43,19.22C4,17.37,6.68,19.64,4.91,22Z"/><path class="cls-1" d="M4.82,22.08s-1,2.06-2.6,1.73C.33,23.42,2.35,20.54,4.82,22.08Z"/><path class="cls-1" d="M12.41,24.94a4.14,4.14,0,0,1-1.13-.71,2.29,2.29,0,0,1-.9-2.09c.08-.57.44-1.15,1.08-1.08a1.77,1.77,0,0,1,1.28,1,3,3,0,0,1-.16,2.73c0,.06-.12.18-.19.11s0-.24,0-.3a2.29,2.29,0,0,0,.17-2,1.8,1.8,0,0,0-1.1-1.06.79.79,0,0,0-.55.05l-.06,0h0l0,0-.05.05h0l0,0,0,0s0,.1,0,0l0,.09h0s0,0,0,.06a1.91,1.91,0,0,0,.75,1.76,4,4,0,0,0,1.16.74C12.73,24.55,12.56,25,12.41,24.94Z"/><path class="cls-1" d="M12.61,24.91s-.76,2.45-2.59,2.36C7.86,27.16,9.6,23.61,12.61,24.91Z"/><path class="cls-1" d="M22.81,26.71s-2.62-.39-2.82-2.27C19.76,22.22,23.66,23.43,22.81,26.71Z"/><path class="cls-1" d="M32.11,27.91c-.67-.15-2.65-.72-2.82-2.34a.91.91,0,0,1,.35-.94,1.5,1.5,0,0,1,1.53.33,2.88,2.88,0,0,1,.94,2.95Zm-3.3-2.67a2.4,2.4,0,0,0,0,.38c.24,2.31,3.32,2.79,3.45,2.81l.21,0,.06-.21a3.4,3.4,0,0,0-1.06-3.67,2,2,0,0,0-2.06-.37A1.19,1.19,0,0,0,28.81,25.24Z"/><path class="cls-1" d="M32.08,29a2.83,2.83,0,0,1-1.39,2.36,1.56,1.56,0,0,1-1.61.11.93.93,0,0,1-.22-1c.41-1.63,2.53-1.93,3.22-2a4.51,4.51,0,0,1,0,.52Zm-3.75,1.73a1.22,1.22,0,0,0,.46,1.13,2,2,0,0,0,2.14-.08,3.47,3.47,0,0,0,1.61-3.58l0-.21H32.3c-.13,0-3.33,0-3.91,2.36A2.71,2.71,0,0,0,28.33,30.71Z"/><path class="cls-1" d="M43.34,28.81s-3.05-.13-3.5-2.25C39.32,24,43.91,25,43.34,28.81Z"/><path class="cls-1" d="M43.34,28.82s-3.12.34-3.43,2.55C39.54,34,44.19,32.73,43.34,28.82Z"/><path class="cls-1" d="M54.85,28.27s-3.06-.13-3.5-2.26C50.83,23.5,55.42,24.43,54.85,28.27Z"/><path class="cls-1" d="M54.85,28.28s-3.12.34-3.43,2.55C51.05,33.44,55.7,32.18,54.85,28.28Z"/><path class="cls-1" d="M69.75,26.47s-3-.13-3.5-2.25C65.73,21.7,70.33,22.63,69.75,26.47Z"/><path class="cls-1" d="M69.75,26.48s-3.12.34-3.43,2.55C66,31.65,70.6,30.39,69.75,26.48Z"/><path class="cls-1" d="M85.3,31.71S82,30,82.58,27.47C83.27,24.43,87.87,27.77,85.3,31.71Z"/><path class="cls-1" d="M85.3,31.73s-3.61-1.2-5.06,1.08C78.51,35.51,84.27,36.46,85.3,31.73Z"/><path class="cls-1" d="M22.44,27.09c-.08.61-.43,2.3-1.78,2.57a.77.77,0,0,1-.81-.22A1.29,1.29,0,0,1,20,28.12a2.45,2.45,0,0,1,2.42-1Zm-3.18,1.79a1.27,1.27,0,0,0,.19.83,1.18,1.18,0,0,0,1.3.42c2-.39,2.19-3.11,2.2-3.24v-.21l-.22,0a3,3,0,0,0-3.13,1.22A2.19,2.19,0,0,0,19.26,28.88Z"/><path class="cls-2" d="M74.45,32.29l.93,1,.27-.25s1.09-.87,4,0a8.56,8.56,0,0,0,5.74-.26,43.56,43.56,0,0,0,3.32,4.59c3.66,4.45,9.61,9.73,16.07,8.28a16.41,16.41,0,0,0,6.89-3.07,20,20,0,0,0,2.27-2.14,41.83,41.83,0,0,0,14.59-5.76l2.52-2.27c.12-.16.24-.31.34-.47,2.21-3.41,2.32-4.69,2.46-6.64,0-.66.1-1.42.25-2.38a5.55,5.55,0,0,0,.06-1.83l-.09-.4a1.07,1.07,0,0,0-.53-.64,12.26,12.26,0,0,0,.3-4.34,5.63,5.63,0,0,0-.3-1.21c-.71-1.88-3.38-3.09-4.64-3.57,0-.08-.06-.14-.1-.23-.15-.36-.31-.74-.44-1.14-.51-1.36-1.09-2.91-2.31-3.74a2.82,2.82,0,0,0-1.79-.66A4.3,4.3,0,0,1,122.92,5a.59.59,0,0,0-.21,0,5.55,5.55,0,0,0-3.47.21,3.39,3.39,0,0,0-.71-.74,1.33,1.33,0,0,0-.26-.21,5.93,5.93,0,0,0-.64-.42,7.62,7.62,0,0,0-.81-.39,0,0,0,0,0,0,0l-.09-.05a10.89,10.89,0,0,0-1.51-.46l-.6-.11-.35-.09a25.06,25.06,0,0,0-10.41.58c-1-.66-5.6-3.16-9.08,1a5.11,5.11,0,0,0-.89,1.56h0l-.35-.2a7.86,7.86,0,0,0-2.68-1c-1.09-.11-4-.47-5.89,1a4.39,4.39,0,0,0-1.73,2.82,3.09,3.09,0,0,0-2,.61c-1.77,1.32-1.52,2.72-1.29,4.08a6.12,6.12,0,0,1,.14,2c0,.59-.57,1.09-1.17,1.68A5.37,5.37,0,0,0,77.29,19a2.45,2.45,0,0,0-.08.95l-.52.19a7.11,7.11,0,0,0-2,1.3C70.43,25.25,73.18,30.39,74.45,32.29Z"/><path class="cls-1" d="M114.9,39.39a34.65,34.65,0,0,0,4.27-6.68c.42-.83.71-1.5.9-1.93,2.14-.53,8.82-2.44,11.26-5.77a13.71,13.71,0,0,0,1.92-3.87v0a4.14,4.14,0,0,1-.06,1.63c-.15,1-.21,1.8-.25,2.48-.13,1.87-.21,3-2.31,6.2a8.66,8.66,0,0,1-1.71,1.8c-3.53,2.91-10.25,5.31-14,6.11Zm-40.45-7.1.93,1,.27-.25s1.09-.87,4,0a8.56,8.56,0,0,0,5.74-.26,43.56,43.56,0,0,0,3.32,4.59c3.66,4.45,9.61,9.73,16.07,8.28a16.41,16.41,0,0,0,6.89-3.07,20,20,0,0,0,2.27-2.14,41.83,41.83,0,0,0,14.59-5.76l2.52-2.27c.12-.16.24-.31.34-.47,2.21-3.41,2.32-4.69,2.46-6.64,0-.66.1-1.42.25-2.38a5.55,5.55,0,0,0,.06-1.83l-.09-.4a1.07,1.07,0,0,0-.53-.64,12.26,12.26,0,0,0,.3-4.34,5.63,5.63,0,0,0-.3-1.21c-.71-1.88-3.38-3.09-4.64-3.57a2.14,2.14,0,0,0-.1-.22c-.15-.37-.31-.75-.44-1.15-.51-1.36-1.09-2.91-2.31-3.74a2.82,2.82,0,0,0-1.79-.66A4.3,4.3,0,0,1,122.92,5a.59.59,0,0,0-.21,0,5.55,5.55,0,0,0-3.47.21,3.39,3.39,0,0,0-.71-.74,1.33,1.33,0,0,0-.26-.21,5.93,5.93,0,0,0-.64-.42,7.62,7.62,0,0,0-.81-.39,0,0,0,0,0,0,0l-.09-.05a10.89,10.89,0,0,0-1.51-.46l-.6-.11-.35-.09a25.06,25.06,0,0,0-10.41.58c-1-.66-5.6-3.16-9.08,1a5.11,5.11,0,0,0-.89,1.56h0l-.35-.2a7.86,7.86,0,0,0-2.68-1c-1.09-.11-4-.47-5.89,1a4.39,4.39,0,0,0-1.73,2.82,3.09,3.09,0,0,0-2,.61c-1.77,1.32-1.52,2.72-1.29,4.08a6.12,6.12,0,0,1,.14,2c0,.59-.57,1.09-1.17,1.68A5.37,5.37,0,0,0,77.29,19a2.45,2.45,0,0,0-.08.95l-.52.19a7.11,7.11,0,0,0-2,1.3c-4.22,3.85-1.47,9-.2,10.89ZM104.7,45.13a15.76,15.76,0,0,0,6.41-3.21,17.33,17.33,0,0,0,1.49-1.34c.31-.31.61-.62.9-.94a34,34,0,0,0,4.86-7.34c.25-.5.46-.94.63-1.29l-.3,0a8.1,8.1,0,0,1-1,0h-.24c-2.49-.08-5.66-.87-6.42-1.63l-.12-.13a2.42,2.42,0,0,1-.47-.94,3.07,3.07,0,0,1,0-.7c-.28-.06-.57-.11-.86-.15q-1.6-.29-3.3-.42l-.09.05-.22.08-.5.2h0c-.35.14-.81.33-1.35.57l-.52.23c-.83.38-1.6.76-2.3,1.13a17.29,17.29,0,0,0-3,2.11,26.18,26.18,0,0,1-3.17,2.32,8.31,8.31,0,0,1-7.88.1c2.83,4,10,12.93,17.5,11.24ZM85.88,31.91l-.24-.23-.13.07-.13.08h0s0,0,0,0a7.67,7.67,0,0,1-5.4.35c-2.47-.73-3.83-.38-4.47-.06-.76-1-2.94-4.36-1.88-7.52v0c0-.31.8-4.18,6.32-4.57a10.63,10.63,0,0,1,5.67,1.77A43.39,43.39,0,0,1,90.37,26,6.94,6.94,0,0,0,96,27.7l.16,0,.27-.05c.87-.15,1.82-.31,2.76-.45a22.45,22.45,0,0,1,5.09-.28A1.75,1.75,0,0,0,104,27l-.34.14-.34.16c-.92.4-1.78.82-2.54,1.23l-.3.16a18.6,18.6,0,0,0-2.84,2.05A24.61,24.61,0,0,1,94.61,33a7.67,7.67,0,0,1-8.24-.68,5.12,5.12,0,0,1-.49-.42ZM79.3,17.18a3.91,3.91,0,0,0,1.38-2.26,9.25,9.25,0,0,0-.27-2.42c-.23-1.28,0-1.84,1.35-2.83a2.09,2.09,0,0,1,1.36-.42c-.06,2.47,1.56,5.34,3.5,7.71.52.62,1,1.21,1.6,1.76l-.23,0a9.64,9.64,0,0,0-2.68.54l-.29.14-.3.18-.53.35-.1.08a2,2,0,0,1-.38.2A16.28,16.28,0,0,0,81,19.56l-.37-.06a9.1,9.1,0,0,0-1.73,0l-.74.12-.1,0a3.51,3.51,0,0,1,1.22-2.48Zm6-11.27c1.65-1.2,4.47-.82,5.46-.7a9,9,0,0,1,2.74,1.44V8a5.91,5.91,0,0,0,0,.84c0,.28,0,.57.09.86a.1.1,0,0,1,0,0c0,.26.09.52.15.77,0,.05,0,.09,0,.12,0,.25.12.48.18.71s.2.67.29,1,.16.46.24.67.22.6.34.88.16.37.24.54l.16.36c.07.15.14.29.19.42s.11.21.15.31,0,0,0,.05l0,.08.11.19c.09.2.19.38.29.59s.27.48.4.73q-.1.16-.21.36l-.15.31h0a2.76,2.76,0,0,0-.16,1,15.2,15.2,0,0,0-5.47-.66,1.9,1.9,0,0,0-.67.19l-.2.08-.29.09C86.83,16.16,84,12.4,84,9.38a2.93,2.93,0,0,1,0-.73.85.85,0,0,1,0-.17,4.19,4.19,0,0,1,1.19-2.57Zm17.45-2.23a5.58,5.58,0,0,0-1.7,1.26c-1,1.15-1.13,3.38-.48,6.64,0,.12,0,.25.08.36l0,.27c.07.3.15.58.22.87.11.49.25.94.35,1.31a3.21,3.21,0,0,0-.8.44,7.24,7.24,0,0,1-1.67.93L98,16.1a.61.61,0,0,1-.18.07,4,4,0,0,0-.65.33l-.07-.12-.28-.53c-.09-.19-.2-.38-.3-.59h0c-.08-.2-.18-.39-.28-.59l-.13-.3c0-.13-.1-.25-.17-.4s-.15-.36-.25-.56-.13-.34-.19-.52-.14-.36-.21-.54A19.31,19.31,0,0,1,94.6,10h0a11.46,11.46,0,0,1-.19-2,0,0,0,0,1,0,0,0,0,0,0,0,0,0c0-.25,0-.48,0-.68a5.06,5.06,0,0,1,.21-1,3.91,3.91,0,0,1,.81-1.47c2.59-3.09,5.86-1.9,7.3-1.13Zm.4.49c.29-.12,1.87-.62,2.21-.72,2.65-.87,5.47-.36,8.69.13l.36.07a10,10,0,0,1,1.92.53h0a4.63,4.63,0,0,1,2.17,1.55l.19.34a22.08,22.08,0,0,1,2,4.24l.07.21s0,0,0,0a5.34,5.34,0,0,1-.17,2.82,1.29,1.29,0,0,0-.53-.1h0l-.36-.1a14.66,14.66,0,0,0-1.82-.36h0c-.75-.11-1.55-.18-2.36-.22s-1.82-.06-2.75,0-1.71.06-2.55.12h0c-.88.06-1.76.16-2.6.27h0c-1.39.2-2.67.43-3.77.69-.33.07-.64.15-.92.23l-.07,0-.61.17-.46-1.41c0-.1,0-.23-.09-.35l0-.27c-.71-3.2-.66-5.5.16-6.48a4.23,4.23,0,0,1,1.4-1.35ZM96.23,19.88a2.08,2.08,0,0,0,.32.54,2.66,2.66,0,0,0,1,.75l.06,0s0,0,0,0l.41.11c.19,0,.41.06.65.1h.2l0,.06.31.31A4.72,4.72,0,0,0,102,23.52a35.8,35.8,0,0,0,3.8.66c.91.12,1.85.24,2.94.45,1.45.29,1.91,1,2.06,1.34a.53.53,0,0,1,0,.23c-.1.18-.18.38-.25.54-.53-.1-1.09-.2-1.66-.28-.31-.05-.65-.1-1-.13s-.7-.08-1.06-.12c-.52-.05-1-.07-1.57-.1a20.29,20.29,0,0,0-6.19.17c-1,.13-1.91.3-2.79.46-.67.12-1.31.24-1.89.33-1.73.26-3-1-4.55-2.58-.52-.54-1.11-1.1-1.74-1.65a8,8,0,0,0-.7-.58,11,11,0,0,0-1.54-1.05,7.56,7.56,0,0,0-1.1-.56.28.28,0,0,1,.12-.08l.3-.2a5,5,0,0,1,.48-.26,8.32,8.32,0,0,1,2.39-.46l1-.12a4,4,0,0,0,.86-.19,1.07,1.07,0,0,0,.22-.1.22.22,0,0,0,.12,0,1.45,1.45,0,0,1,.52-.11,16.14,16.14,0,0,1,5.45.8Zm17.41,2.22a31.88,31.88,0,0,1,3.06-2.72,8.7,8.7,0,0,0,2.45-2.64c.12-.22.24-.43.35-.65l0-.1c.15-.28.3-.57.44-.86s.28-.62.39-.92a.88.88,0,0,0-.33-.05c-.25.09-1,.35-2,.76-.39.14-.78.32-1.21.5a5.27,5.27,0,0,0-.49.22c-.58.24-1.17.52-1.78.82a27.13,27.13,0,0,0-3.63,2.1c-2.72,1.92-7.62,2.84-10.76,2.9a3.65,3.65,0,0,0,2,1.18,34.06,34.06,0,0,0,3.72.63c.92.13,1.87.26,3,.47a3.55,3.55,0,0,1,2.54,1.5,6,6,0,0,1,.41-.5l.13-.14a6.54,6.54,0,0,1,1.71-2.5ZM97.58,17.3a1,1,0,0,0-.19.17l-.06,0a1.88,1.88,0,0,0-.08,2.8c.83.83,2.46.94,4.59.75A35.35,35.35,0,0,0,109.38,19c1.65-.68,3.1-2,5.3-3.1s4.5-2,4.5-2l-.75-.13h0c-.35,0-.68-.11-1-.14a40.59,40.59,0,0,0-9.52.2,41.2,41.2,0,0,0-4.06.72c-.13,0-.25.06-.38.09l-.55.15c-.12,0-.26.06-.37.11h0a.05.05,0,0,1,0,0h0l-.45.17-.38.15a1.92,1.92,0,0,0-.49.28,8.35,8.35,0,0,1-1.94,1.09,9.08,9.08,0,0,1-.86.34l-.17.07a1.76,1.76,0,0,0-.51.27ZM119.75,5.94s0,0,0,0a21.49,21.49,0,0,1,1.91,4.1c.05.15.08.31.12.46a0,0,0,0,1,0,0,4.23,4.23,0,0,1,.1,1.06h0a7.93,7.93,0,0,1-.43,2.4,16.86,16.86,0,0,1-.69,1.68h0s0,0,0,0l0,.07,0,0-.08.15h0c-.22.43-.45.84-.66,1.21s-.27.44-.39.63a9.7,9.7,0,0,1-2.27,2.25,37.26,37.26,0,0,0-3,2.66,6,6,0,0,0-1.57,2.36c0,.11,0,.22-.07.33a1.35,1.35,0,0,0,0,.4,1.51,1.51,0,0,0,.09.58l.06.18.44-.42h0a4.26,4.26,0,0,1,2-1.1,1.65,1.65,0,0,1,1.14.16l.28.13c1.21.53,2.89.85,4-.54a25.88,25.88,0,0,1,4-4,2.54,2.54,0,0,1,1.31-.61.92.92,0,0,0,.69-.39,1.55,1.55,0,0,0,.3-.56,3,3,0,0,1,.62-1.43,6,6,0,0,0,1.13-2.23,5.79,5.79,0,0,0-.43-3.91c-.08-.18-.16-.38-.24-.58s-.09-.19-.14-.31-.23-.57-.34-.87c-.48-1.3-1-2.64-2-3.31-.72-.49-.92-.5-1.3-.5a5.79,5.79,0,0,1-1.61-.26l-.09,0a4.76,4.76,0,0,0-2.79.12Zm12.93,8.92c-.47-1.25-2.13-2.2-3.35-2.73a6.15,6.15,0,0,1,.2,3.68,6.87,6.87,0,0,1-1.31,2.58,2.22,2.22,0,0,0-.42,1,2.23,2.23,0,0,1-.51,1,1.74,1.74,0,0,1-1.22.72,1.75,1.75,0,0,0-.9.42,25.32,25.32,0,0,0-3.82,3.84c-1.13,1.44-2.91,1.74-5,.82l-.16-.09L116,26c-.83-.42-2.1.71-2.69,1.36a5.91,5.91,0,0,1-1,1.75,16.2,16.2,0,0,0,4.67,1h0c2.14.51,4.46-.25,8.25-1.61a12.33,12.33,0,0,0,5.54-3.71,11.6,11.6,0,0,0,2.2-9.21s0-.08,0-.11a.49.49,0,0,1,0-.14s0-.06,0-.06A2.52,2.52,0,0,0,132.68,14.86Z"/><path class="cls-1" d="M95,38.22a2.38,2.38,0,0,0,0,1.27,9.65,9.65,0,0,0,.38,1.4,8.08,8.08,0,0,0,1.48,3,.79.79,0,0,0,.61.3c.21-.05.14-.25,0-.37a7.15,7.15,0,0,1-1.28-2.68,10.58,10.58,0,0,1-.35-1.22,2.25,2.25,0,0,1,0-1.18c.12-.33-.72-.8-.82-.53Z"/><path class="cls-1" d="M110.12,37.57c0,.9.2,1.79.2,2.69a4.8,4.8,0,0,1-.61,2.54c-.19.32.64.84.82.53a5.12,5.12,0,0,0,.66-2.63c0-.91-.15-1.82-.2-2.73a.64.64,0,0,0-.41-.49c-.09,0-.47-.13-.46.09Z"/><path class="cls-1" d="M121.69,13.13a2.14,2.14,0,0,1,.82-.23,3.1,3.1,0,0,1,.87.08,4,4,0,0,1,.78.28l.2.1c.1.06-.07,0,0,0l.1.06.19.12,0,0,.06.05c.13.1.41.29.59.19s0-.35-.14-.42a5.38,5.38,0,0,0-2.07-1,3.12,3.12,0,0,0-2.19.14c-.29.14.45.75.73.61Z"/><path class="cls-1" d="M120.19,16.64h.13l.18,0,.12,0s.12,0,.06,0l.21.05a6.63,6.63,0,0,1,1,.34l.5.23.11.06c.15.08-.07-.05.06,0l.22.13.21.15.11.09.08.07c-.08-.07,0,0,0,0a.27.27,0,0,1,.07.08c.06.07,0,0,0,0a.85.85,0,0,0,.58.38c.19,0,.3-.12.19-.29A4.65,4.65,0,0,0,122,16.57a5.75,5.75,0,0,0-2.33-.6c-.23,0-.12.28,0,.38a.81.81,0,0,0,.61.29Z"/><path class="cls-1" d="M90.43,15.12a10.24,10.24,0,0,0,1.88,3.17c.13.12.42.29.59.19s0-.36-.12-.44-.09-.08,0,0,0,0,0,0l-.12-.14a3.39,3.39,0,0,1-.2-.28,9.21,9.21,0,0,1-.45-.81c-.26-.51-.48-1-.75-1.54a.78.78,0,0,0-.57-.38c-.21,0-.28.11-.19.29Z"/><path class="cls-1" d="M92.4,15.33a11.36,11.36,0,0,0,.85,1.84,10.31,10.31,0,0,0,.9,1.45.82.82,0,0,0,.61.3c.22,0,.11-.26,0-.37s0,.06,0,0l-.08-.12-.2-.32c-.16-.27-.32-.54-.47-.82a9.73,9.73,0,0,1-.78-1.67.78.78,0,0,0-.51-.44c-.14,0-.39,0-.32.17Z"/><path class="cls-1" d="M86.34,21.77a7.47,7.47,0,0,0-3.32.28,4.81,4.81,0,0,0-2.63,1.71c-.19.28.63.82.82.53a4.56,4.56,0,0,1,2.46-1.6,6.89,6.89,0,0,1,3.06-.25c.2,0,.27-.13.19-.29a.88.88,0,0,0-.58-.38Z"/><path class="cls-1" d="M89,24.23a7.5,7.5,0,0,0-2.3.34,4.39,4.39,0,0,0-2,1c-.18.18.59.76.82.53a4.31,4.31,0,0,1,1.94-.92,7.52,7.52,0,0,1,2.16-.31c.23,0,.08-.25,0-.33a.85.85,0,0,0-.6-.3Z"/><path class="cls-1" d="M106.47,13.17c-1,.71-.88,2.1-.83,3.17a.61.61,0,0,0,.4.48c.1,0,.47.14.46-.08a9.61,9.61,0,0,1,0-1.61,1.93,1.93,0,0,1,.67-1.33c.17-.12,0-.35-.12-.45s-.43-.3-.6-.18Z"/><path class="cls-1" d="M108.9,13.29a4,4,0,0,0-.25,1.18,6.15,6.15,0,0,0,.07,1.21.53.53,0,0,0,.18.26.77.77,0,0,0,.33.18c.18.05.38,0,.35-.21a2.7,2.7,0,0,1,0-.28.57.57,0,0,1,0-.13c0-.06,0,0,0,0a.13.13,0,0,1,0-.06c0-.18,0-.36,0-.54a3.76,3.76,0,0,1,.21-1.06l0,.07,0-.08a.24.24,0,0,0,0-.23.75.75,0,0,0-.24-.26.7.7,0,0,0-.34-.12c-.06,0-.19,0-.22.08Z"/><path class="cls-1" d="M102.61,14a9.2,9.2,0,0,0-1.22,2.27,3.79,3.79,0,0,0-.3,1.75c0,.32.9.71.85.25,0-.09,0,0,0,0V18.2a.91.91,0,0,1,0-.17,2.6,2.6,0,0,1,0-.39,5.58,5.58,0,0,1,.26-.91,9.51,9.51,0,0,1,1.18-2.17c.21-.28-.6-.82-.82-.53Z"/><path class="cls-1" d="M112.42,9.13c-.09-.08,0,0,0,0s0-.07,0,0a1.62,1.62,0,0,1,.1.18l0,.05a.36.36,0,0,1,0,.09l.06.2a4.16,4.16,0,0,1,.12.93,16,16,0,0,1-.11,1.83c0,.3.81.75.85.41a13.28,13.28,0,0,0,.11-2,2.77,2.77,0,0,0-.77-2c-.12-.12-.41-.29-.59-.2s.06.35.14.42Z"/><path class="cls-1" d="M123.77,29.55a5.08,5.08,0,0,1,.43.38l0,.05s0-.05,0,0l.09.11a1.55,1.55,0,0,1,.19.24s0,.07,0,0,0,0,0,0l.07.12.06.13,0,.06s0-.05,0,0a2.25,2.25,0,0,1,.11.54.58.58,0,0,0,.4.48c.11.05.47.14.47-.09a3.36,3.36,0,0,0-1.43-2.38c-.15-.12-.42-.29-.61-.17s0,.38.1.47Z"/><path class="cls-1" d="M126.37,28.56a3.09,3.09,0,0,1,.49.46,3,3,0,0,1,.34.49,4.69,4.69,0,0,1,.48,1.26.8.8,0,0,0,.52.43c.15.05.37,0,.32-.17a5,5,0,0,0-1.68-2.71c-.14-.11-.41-.29-.6-.19s0,.35.13.43Z"/><path class="cls-1" d="M129.21,17.2h.12c-.07,0,0,0,0,0l.06,0s.07.05,0,0l.12.05,0,0c-.12-.06-.06,0,0,0l.11.07.06,0s-.09-.07,0,0l.11.09.09.09c.07.06,0-.06,0,0a.12.12,0,0,0,0,.05l.18.22c0,.06,0,0,0,0l0,.05a.75.75,0,0,1,.07.12.41.41,0,0,1,.05.09s0,0,0,.06,0-.06,0,0a.76.76,0,0,0,.51.43c.12,0,.42,0,.33-.18a3.26,3.26,0,0,0-.88-1.17,2.44,2.44,0,0,0-1.4-.66c-.07,0-.16,0-.21.06a.22.22,0,0,0,0,.22.78.78,0,0,0,.58.38Z"/><path class="cls-1" d="M125.28,21.34l.12.06,0,0,.06,0,.09.06,0,0,0,0a.49.49,0,0,1,.17.15l0,0s0,0,0,0l.07.08.14.16,0,.06s0,0,0,0L126,22c.09.13.17.26.25.4a.77.77,0,0,0,.58.37.21.21,0,0,0,.21-.06.25.25,0,0,0,0-.22,3.94,3.94,0,0,0-1.73-1.72c-.12,0-.43-.15-.45.06s.26.4.41.47Z"/><path class="cls-1" d="M127.59,19.59l.1,0,0,0,0,0,.17.08c-.15-.06,0,0,0,0l.06,0,0,0,0,0,.07.06.07.06,0,0a.08.08,0,0,0,0,0l0,.06,0,0s0,0,0,0,.05.07.06.09l0,.07,0,.09s0,0,0,0l0,.05a.75.75,0,0,0,.51.44c.08,0,.2,0,.27,0a.15.15,0,0,0,.07-.19A2.57,2.57,0,0,0,127.42,19a.45.45,0,0,0-.28,0,.18.18,0,0,0-.06.2.75.75,0,0,0,.51.44Z"/><path class="cls-1" d="M97.61,14.7a.73.73,0,0,1-1-.09.74.74,0,0,1,.1-1,.73.73,0,0,1,1,.1A.72.72,0,0,1,97.61,14.7Z"/><path class="cls-1" d="M98.16,12.52a.72.72,0,0,1-1-.1.72.72,0,1,1,1,.1Z"/><path class="cls-1" d="M103,12a1,1,0,1,1,.15-1.46A1,1,0,0,1,103,12Z"/><path class="cls-1" d="M105.34,13.24a1,1,0,1,1,.14-1.46A1,1,0,0,1,105.34,13.24Z"/><path class="cls-1" d="M108.62,13.55a1,1,0,1,1,.15-1.46A1,1,0,0,1,108.62,13.55Z"/><path class="cls-1" d="M104.11,9.69a1,1,0,1,1,.15-1.46A1,1,0,0,1,104.11,9.69Z"/><path class="cls-1" d="M100.56,10.69a1,1,0,1,1,.14-1.46A1,1,0,0,1,100.56,10.69Z"/><path class="cls-1" d="M101,13.63a.57.57,0,0,1-.79-.08.56.56,0,0,1,.08-.79.55.55,0,0,1,.78.08A.56.56,0,0,1,101,13.63Z"/><path class="cls-1" d="M95.75,11.31a.56.56,0,1,1-.71-.87.56.56,0,1,1,.71.87Z"/><path class="cls-1" d="M105.61,10.33a.56.56,0,0,1-.79-.08.56.56,0,0,1,.86-.71A.56.56,0,0,1,105.61,10.33Z"/><path class="cls-1" d="M107.8,10.91a.57.57,0,0,1-.79-.08.56.56,0,1,1,.87-.71A.57.57,0,0,1,107.8,10.91Z"/></g></g></svg>