<svg xmlns="http://www.w3.org/2000/svg" viewBox="0 0 62.36 86.47"><defs><style>.cls-1{fill:#57423b;}.cls-1,.cls-2,.cls-3,.cls-4,.cls-5{fill-rule:evenodd;}.cls-2{fill:#cd9d81;}.cls-3{fill:#fff;}.cls-4,.cls-5{fill:none;stroke:#57423b;stroke-miterlimit:10;stroke-width:1.02px;}.cls-5{stroke-linecap:round;}</style></defs><g id="Layer_2" data-name="Layer 2"><g id="Layer_1-2" data-name="Layer 1"><path class="cls-1" d="M28.14,72.16,26.91,77H25.57l-.78-3L24,77H22.69l-1.23-4.86h1.27l.67,3.25.81-3.25h1.21l.78,3.26.7-3.26Zm2.55,3.9V75.3l-.47,0a1.47,1.47,0,0,0-.35.08.48.48,0,0,0-.23.16.47.47,0,0,0-.08.28.39.39,0,0,0,.14.36.71.71,0,0,0,.4.1.92.92,0,0,0,.31-.07,1,1,0,0,0,.28-.2Zm0,.57-.21.18a1.37,1.37,0,0,1-.25.15,1.25,1.25,0,0,1-.3.12,1.4,1.4,0,0,1-.4,0,1.09,1.09,0,0,1-.81-.33A1.14,1.14,0,0,1,28.4,76a1.29,1.29,0,0,1,.16-.66,1.16,1.16,0,0,1,.47-.4,2.58,2.58,0,0,1,.74-.21q.43-.06.93-.09v0a.42.42,0,0,0-.23-.42,1.44,1.44,0,0,0-.66-.12,1.84,1.84,0,0,0-.48.08,3.2,3.2,0,0,0-.52.18h-.1v-.88a3.18,3.18,0,0,1,.55-.12,3.84,3.84,0,0,1,.76-.07,2.38,2.38,0,0,1,1.38.32,1.1,1.1,0,0,1,.43,1V77H30.69v-.39Zm3.54.45a1.24,1.24,0,0,1-.37,1,1.32,1.32,0,0,1-1,.35,4.91,4.91,0,0,1-.57,0L32,78.31v-.84h.09l.24.06.22,0a.49.49,0,0,0,.45-.2,1.4,1.4,0,0,0,.12-.67V74.15h-.66v-.79h1.8v3.72Zm0-4.25H33v-.89h1.22v.89Zm2,4.19H35.1V73.36h1.14V77Zm0-4.19H35.07v-.89h1.21v.89Zm3.27,2.33a1.41,1.41,0,0,0-.17-.78.57.57,0,0,0-.51-.23,1.06,1.06,0,0,0-.31,0,2.1,2.1,0,0,0-.3.15v1.84a1,1,0,0,0,.23.06l.23,0a.7.7,0,0,0,.62-.28,1.32,1.32,0,0,0,.21-.82Zm1.17,0a2.13,2.13,0,0,1-.45,1.41,1.37,1.37,0,0,1-1.1.54,1.75,1.75,0,0,1-.48-.06,2.58,2.58,0,0,1-.43-.19l0,.18H37.12V71.94h1.14v1.8a3.1,3.1,0,0,1,.51-.35,1.33,1.33,0,0,1,.61-.13,1.12,1.12,0,0,1,1,.5,2.39,2.39,0,0,1,.35,1.38ZM9.4,85.09H8.18V81.87L7.3,84H6.47l-.89-2.08v3.22H4.43V80.23H5.84l1.08,2.4L8,80.23H9.4v4.86Zm2.82.1a2.34,2.34,0,0,1-1.6-.49,1.84,1.84,0,0,1-.55-1.42,2,2,0,0,1,.52-1.43A1.89,1.89,0,0,1,12,81.31a1.66,1.66,0,0,1,1.27.46,1.79,1.79,0,0,1,.43,1.3v.41H11.21a1.09,1.09,0,0,0,.11.43.78.78,0,0,0,.24.27,1,1,0,0,0,.35.15,1.91,1.91,0,0,0,.43,0,1.72,1.72,0,0,0,.39,0,1.6,1.6,0,0,0,.35-.12,1.26,1.26,0,0,0,.26-.14l.2-.13h.12v1l-.25.1a2.49,2.49,0,0,1-.32.1,2.66,2.66,0,0,1-.39.07,3.23,3.23,0,0,1-.48,0Zm.38-2.4a.91.91,0,0,0-.16-.56A.63.63,0,0,0,12,82a.71.71,0,0,0-.53.2.83.83,0,0,0-.21.55Zm5.15,2.3H16.6V83.28a3.39,3.39,0,0,0,0-.45,1.07,1.07,0,0,0-.06-.32.42.42,0,0,0-.17-.18.67.67,0,0,0-.3,0,.74.74,0,0,0-.29,0,1.21,1.21,0,0,0-.31.17v2.59H14.31V81.43h1.14v.4a2.79,2.79,0,0,1,.55-.37,1.28,1.28,0,0,1,.59-.13,1.09,1.09,0,0,1,.86.35,1.56,1.56,0,0,1,.3,1v2.38Zm2.64.1a3.09,3.09,0,0,1-.83-.11,1.9,1.9,0,0,1-.66-.35,1.63,1.63,0,0,1-.42-.6,2,2,0,0,1-.16-.85,2.22,2.22,0,0,1,.17-.9,1.73,1.73,0,0,1,.45-.61,1.77,1.77,0,0,1,.64-.33,2.54,2.54,0,0,1,.78-.11,2.46,2.46,0,0,1,.6.07,2.49,2.49,0,0,1,.61.22v1h-.14l-.17-.14a1.07,1.07,0,0,0-.22-.15l-.28-.11a1.29,1.29,0,0,0-.35,0,.81.81,0,0,0-.68.31,1.27,1.27,0,0,0-.24.82,1.17,1.17,0,0,0,.26.82.9.9,0,0,0,.68.27,1.46,1.46,0,0,0,.38-.05,1,1,0,0,0,.28-.12.72.72,0,0,0,.19-.14l.15-.13h.14v1l-.22.1-.27.09-.31.07-.38,0Zm5.14-.1H24.38v-.4a3.27,3.27,0,0,1-.54.37,1.25,1.25,0,0,1-.59.13,1.09,1.09,0,0,1-.86-.34,1.56,1.56,0,0,1-.3-1V81.43h1.14v1.81c0,.19,0,.35,0,.47a.83.83,0,0,0,.07.3.3.3,0,0,0,.16.17.66.66,0,0,0,.31.06.93.93,0,0,0,.29-.06.87.87,0,0,0,.3-.16V81.43h1.15v3.66Zm2.66.1a3.14,3.14,0,0,1-.83-.11,1.86,1.86,0,0,1-.65-.35,1.65,1.65,0,0,1-.43-.6,2.48,2.48,0,0,1,0-1.75,1.73,1.73,0,0,1,.45-.61,1.69,1.69,0,0,1,.64-.33,2.73,2.73,0,0,1,2,.18v1h-.15a.85.85,0,0,0-.17-.14.8.8,0,0,0-.21-.15l-.28-.11a1.29,1.29,0,0,0-.35,0,.79.79,0,0,0-.68.31,1.27,1.27,0,0,0-.24.82,1.17,1.17,0,0,0,.26.82.88.88,0,0,0,.68.27,1.46,1.46,0,0,0,.38-.05,1.18,1.18,0,0,0,.28-.12.94.94,0,0,0,.19-.14l.14-.13h.15v1l-.23.1-.26.09-.31.07-.39,0Zm2.88-.1H29.92V81.43h1.15v3.66Zm0-4.18H29.89V80H31.1v.89Zm3.8,4.18V81.16H33.47v-.93h4.1v.93H36.13v3.93Zm5.12-1v-.77l-.47,0a1.37,1.37,0,0,0-.35.08.5.5,0,0,0-.23.16.42.42,0,0,0-.08.28.4.4,0,0,0,.13.36.75.75,0,0,0,.41.1.82.82,0,0,0,.3-.07,1.12,1.12,0,0,0,.29-.19Zm0,.56-.21.18-.25.16a1.38,1.38,0,0,1-.3.11,1.48,1.48,0,0,1-.41,0,1.06,1.06,0,0,1-.8-.33,1.12,1.12,0,0,1-.32-.82,1.2,1.2,0,0,1,.16-.66,1.16,1.16,0,0,1,.47-.4,2.49,2.49,0,0,1,.74-.21c.28,0,.59-.07.92-.09v0a.43.43,0,0,0-.22-.42,1.46,1.46,0,0,0-.67-.12,1.84,1.84,0,0,0-.47.08,4.72,4.72,0,0,0-.53.18H38V81.5a4.78,4.78,0,0,1,.54-.12,5,5,0,0,1,.77-.07,2.38,2.38,0,0,1,1.38.32,1.1,1.1,0,0,1,.43,1v2.5H40V84.7Zm5.42.39H44.29V83.28c0-.15,0-.3,0-.45a1.42,1.42,0,0,0-.07-.32.42.42,0,0,0-.17-.18.67.67,0,0,0-.3,0,.74.74,0,0,0-.29,0,1.21,1.21,0,0,0-.31.17v2.59H42V81.43h1.14v.4a2.79,2.79,0,0,1,.55-.37,1.28,1.28,0,0,1,.59-.13,1.09,1.09,0,0,1,.86.35,1.56,1.56,0,0,1,.3,1v2.38Zm3-1.16V82.27a.73.73,0,0,0-.21-.07l-.25,0a.76.76,0,0,0-.62.26,1.19,1.19,0,0,0-.21.75,2.25,2.25,0,0,0,0,.4.84.84,0,0,0,.12.29.5.5,0,0,0,.22.19.78.78,0,0,0,.34.07.8.8,0,0,0,.3-.06.85.85,0,0,0,.28-.15Zm1.15.74a2.17,2.17,0,0,1-.15.86,1.32,1.32,0,0,1-.4.56,1.69,1.69,0,0,1-.62.29,3.18,3.18,0,0,1-.79.09,5.09,5.09,0,0,1-.69,0c-.22,0-.41-.07-.58-.11v-.92h.14l.2.08.23.07.28.06.28,0a1.65,1.65,0,0,0,.48-.06.72.72,0,0,0,.3-.17.62.62,0,0,0,.13-.27,1.41,1.41,0,0,0,0-.39v-.07a1.44,1.44,0,0,1-.44.28,1.61,1.61,0,0,1-.53.1,1.39,1.39,0,0,1-1.1-.46A2.16,2.16,0,0,1,46,83.17a2.37,2.37,0,0,1,.12-.78,1.68,1.68,0,0,1,.34-.58,1.39,1.39,0,0,1,.49-.36,1.53,1.53,0,0,1,.6-.12,1.59,1.59,0,0,1,.5.07,1.92,1.92,0,0,1,.41.19l0-.16h1.11v3.24Zm2.89-.53v-.77l-.47,0a1.47,1.47,0,0,0-.35.08.56.56,0,0,0-.23.16.49.49,0,0,0-.08.28c0,.18,0,.3.14.36a.71.71,0,0,0,.4.1.92.92,0,0,0,.31-.07,1.26,1.26,0,0,0,.28-.19Zm0,.56-.21.18a2.22,2.22,0,0,1-.25.16,1.21,1.21,0,0,1-.3.11,1.4,1.4,0,0,1-.4,0,1.09,1.09,0,0,1-.81-.33,1.12,1.12,0,0,1-.32-.82,1.29,1.29,0,0,1,.16-.66,1.16,1.16,0,0,1,.47-.4,2.49,2.49,0,0,1,.74-.21c.29,0,.6-.07.92-.09v0a.43.43,0,0,0-.22-.42,1.46,1.46,0,0,0-.67-.12,1.84,1.84,0,0,0-.47.08,4.56,4.56,0,0,0-.52.18h-.1V81.5a4.58,4.58,0,0,1,.55-.12,4.77,4.77,0,0,1,.76-.07,2.38,2.38,0,0,1,1.38.32,1.1,1.1,0,0,1,.43,1v2.5H52.51V84.7Zm5.42.39H56.79V83.28c0-.15,0-.3,0-.45a1,1,0,0,0-.07-.32.42.42,0,0,0-.17-.18.65.65,0,0,0-.3,0,.77.77,0,0,0-.29,0,1,1,0,0,0-.3.17v2.59H54.49V81.43h1.15v.4a2.74,2.74,0,0,1,.54-.37,1.31,1.31,0,0,1,.59-.13,1.07,1.07,0,0,1,.86.35,1.56,1.56,0,0,1,.3,1Z"/><path class="cls-2" d="M62.36,31.18A31.18,31.18,0,1,0,31.18,62.36,31.18,31.18,0,0,0,62.36,31.18Z"/><path class="cls-3" d="M42.73,12.44a27.78,27.78,0,0,0-3.87,7.7,8.25,8.25,0,0,0-.47,2.18,4.49,4.49,0,0,0,4.49,4.49,4.55,4.55,0,0,0,4.55-4.49,5.09,5.09,0,0,0-.32-1.47A32.14,32.14,0,0,0,42.73,12.44Z"/><path class="cls-4" d="M42.73,12.44a27.78,27.78,0,0,0-3.87,7.7,8.25,8.25,0,0,0-.47,2.18,4.49,4.49,0,0,0,4.49,4.49,4.55,4.55,0,0,0,4.55-4.49,5.09,5.09,0,0,0-.32-1.47A32.14,32.14,0,0,0,42.73,12.44Z"/><path class="cls-5" d="M43.46,24.25a2.62,2.62,0,0,1-2.62-2.62"/><path class="cls-3" d="M50.93,38.29A1.46,1.46,0,0,0,49.49,37L35,36.59a.51.51,0,0,1,0-1l13.15-.91A1.41,1.41,0,0,0,49.41,33a1.48,1.48,0,0,0-1.5-1.17l-8.16.21a95,95,0,0,1-10.17-.69,1.46,1.46,0,0,1-1.35-1.49,1.5,1.5,0,0,1,.67-1.19l1.59-1a6.71,6.71,0,0,0,3.24-3.38l.17-.42a2,2,0,0,0-1.14-2.68.86.86,0,0,0-1,.28l-1.83,2-5.39,2.83c-4.79,3-5.77,6.25-5.77,6.25l-7.35-.09v12l7.19.13a12.86,12.86,0,0,0,7.12,3A43.43,43.43,0,0,0,31,47.9l10.41,2a1.25,1.25,0,0,0,1.4-.72A1.2,1.2,0,0,0,42,47.56L32.36,45a.49.49,0,0,1,.18-1L47,45.4A1.41,1.41,0,0,0,48.47,44a1.45,1.45,0,0,0-1.3-1.39L34.68,40.94a.48.48,0,0,1-.42-.57.49.49,0,0,1,.49-.42l14.82-.11A1.4,1.4,0,0,0,50.93,38.29Z"/><path class="cls-4" d="M50.93,38.29A1.46,1.46,0,0,0,49.49,37L35,36.59a.51.51,0,0,1,0-1l13.15-.91A1.41,1.41,0,0,0,49.41,33a1.48,1.48,0,0,0-1.5-1.17l-8.16.21a95,95,0,0,1-10.17-.69,1.46,1.46,0,0,1-1.35-1.49,1.5,1.5,0,0,1,.67-1.19l1.59-1a6.71,6.71,0,0,0,3.24-3.38l.17-.42a2,2,0,0,0-1.14-2.68.86.86,0,0,0-1,.28l-1.83,2-5.39,2.83c-4.79,3-5.77,6.25-5.77,6.25l-7.35-.09v12l7.19.13a12.86,12.86,0,0,0,7.12,3A43.43,43.43,0,0,0,31,47.9l10.41,2a1.25,1.25,0,0,0,1.4-.72A1.2,1.2,0,0,0,42,47.56L32.36,45a.49.49,0,0,1,.18-1L47,45.4A1.41,1.41,0,0,0,48.47,44a1.45,1.45,0,0,0-1.3-1.39L34.68,40.94a.48.48,0,0,1-.42-.57.49.49,0,0,1,.49-.42l14.82-.11A1.4,1.4,0,0,0,50.93,38.29Z"/></g></g></svg>