<svg xmlns="http://www.w3.org/2000/svg" viewBox="0 0 62.36 85.19"><defs><style>.cls-1{fill:#57423b;}.cls-1,.cls-2,.cls-3,.cls-4,.cls-5{fill-rule:evenodd;}.cls-2{fill:#cd9d81;}.cls-3,.cls-4,.cls-5,.cls-6,.cls-7{fill:#fff;}.cls-3,.cls-5,.cls-7,.cls-8{stroke:#57423b;stroke-miterlimit:10;}.cls-3,.cls-7,.cls-8{stroke-width:1.02px;}.cls-5{stroke-width:1.28px;}.cls-8{fill:none;}</style></defs><g id="Layer_2" data-name="Layer 2"><g id="Layer_1-2" data-name="Layer 1"><path class="cls-1" d="M27.93,72.16,26.7,77H25.36l-.78-3-.75,3H22.49l-1.23-4.86h1.27l.66,3.25L24,72.16h1.21L26,75.42l.7-3.26Zm2.55,3.9V75.3l-.46,0a1.37,1.37,0,0,0-.35.08.44.44,0,0,0-.23.16.41.41,0,0,0-.09.28.42.42,0,0,0,.14.36.75.75,0,0,0,.41.1.82.82,0,0,0,.3-.07.8.8,0,0,0,.28-.2Zm0,.57a1.68,1.68,0,0,1-.21.18A1.09,1.09,0,0,1,30,77a1.38,1.38,0,0,1-.29.12,1.48,1.48,0,0,1-.41,0,1.06,1.06,0,0,1-.8-.33A1.1,1.1,0,0,1,28.2,76a1.2,1.2,0,0,1,.16-.66,1.1,1.1,0,0,1,.47-.4,2.4,2.4,0,0,1,.74-.21c.28,0,.59-.07.92-.09v0a.41.41,0,0,0-.22-.42,1.46,1.46,0,0,0-.67-.12,1.78,1.78,0,0,0-.47.08,3.31,3.31,0,0,0-.53.18h-.1v-.88a3.71,3.71,0,0,1,.55-.12,3.94,3.94,0,0,1,.77-.07,2.32,2.32,0,0,1,1.37.32,1.11,1.11,0,0,1,.44,1V77H30.48v-.39Zm3.55.45a1.28,1.28,0,0,1-.37,1,1.37,1.37,0,0,1-1,.35,4.86,4.86,0,0,1-.56,0l-.37-.06v-.84h.08l.25.06.22,0a.48.48,0,0,0,.44-.2,1.4,1.4,0,0,0,.12-.67V74.15h-.66v-.79H34v3.72Zm0-4.25H32.81v-.89H34v.89ZM36,77H34.89V73.36H36V77Zm0-4.19H34.86v-.89h1.21v.89Zm3.27,2.33a1.41,1.41,0,0,0-.17-.78.57.57,0,0,0-.51-.23,1.15,1.15,0,0,0-.31,0,1.59,1.59,0,0,0-.29.15v1.84a.86.86,0,0,0,.23.06l.23,0a.72.72,0,0,0,.62-.28,1.39,1.39,0,0,0,.2-.82Zm1.17,0a2.18,2.18,0,0,1-.44,1.41,1.39,1.39,0,0,1-1.11.54,1.63,1.63,0,0,1-.47-.06,2.27,2.27,0,0,1-.43-.19L38,77h-1.1V71.94h1.15v1.8a2.44,2.44,0,0,1,.51-.35,1.29,1.29,0,0,1,.6-.13,1.12,1.12,0,0,1,1,.5,2.39,2.39,0,0,1,.35,1.38Zm-32.44,10H6.86V81.87L6,84H5.14l-.88-2.08v3.22H3.11V80.23h1.4l1.08,2.4,1.07-2.4H8.07v4.86Zm2.82.1A2.31,2.31,0,0,1,9.3,84.7a1.82,1.82,0,0,1-.56-1.42,2,2,0,0,1,.52-1.43,1.91,1.91,0,0,1,1.45-.54,1.65,1.65,0,0,1,1.26.46,1.79,1.79,0,0,1,.43,1.3v.41H9.89a1.09,1.09,0,0,0,.1.43.93.93,0,0,0,.25.27,1,1,0,0,0,.34.15,1.91,1.91,0,0,0,.43,0,1.72,1.72,0,0,0,.39,0,1.9,1.9,0,0,0,.36-.12l.26-.14.19-.13h.12v1l-.25.1a2.49,2.49,0,0,1-.32.1,2.44,2.44,0,0,1-.39.07,3.23,3.23,0,0,1-.48,0Zm.39-2.4a1,1,0,0,0-.17-.56.63.63,0,0,0-.49-.19.71.71,0,0,0-.53.2.94.94,0,0,0-.21.55Zm6.09,2.3V83.26c0-.18,0-.33,0-.45a1.13,1.13,0,0,0-.06-.31.31.31,0,0,0-.15-.17.6.6,0,0,0-.29,0,.75.75,0,0,0-.26,0,1.75,1.75,0,0,0-.28.17v2.59H15.17V83.26c0-.18,0-.33,0-.45a.68.68,0,0,0-.06-.31.31.31,0,0,0-.15-.17.58.58,0,0,0-.29,0,.66.66,0,0,0-.27.06l-.27.16v2.59H13V81.43h1.14v.4a3.45,3.45,0,0,1,.53-.37,1.18,1.18,0,0,1,.56-.13,1,1,0,0,1,.59.16,1,1,0,0,1,.39.47,3.75,3.75,0,0,1,.62-.47,1.22,1.22,0,0,1,.59-.16,1.08,1.08,0,0,1,.46.08.76.76,0,0,1,.34.24,1.08,1.08,0,0,1,.23.42,1.92,1.92,0,0,1,.08.64v2.38Zm4-1v-.77l-.47,0a1.47,1.47,0,0,0-.35.08.56.56,0,0,0-.23.16.49.49,0,0,0-.08.28c0,.18,0,.3.14.36a.71.71,0,0,0,.4.1.92.92,0,0,0,.31-.07,1.26,1.26,0,0,0,.28-.19Zm0,.56-.21.18a2.22,2.22,0,0,1-.25.16,1.21,1.21,0,0,1-.3.11,1.4,1.4,0,0,1-.4,0,1.07,1.07,0,0,1-.81-.33,1.12,1.12,0,0,1-.32-.82,1.29,1.29,0,0,1,.16-.66,1.16,1.16,0,0,1,.47-.4,2.49,2.49,0,0,1,.74-.21c.29,0,.59-.07.92-.09v0a.43.43,0,0,0-.22-.42,1.46,1.46,0,0,0-.67-.12,1.84,1.84,0,0,0-.47.08,4.56,4.56,0,0,0-.52.18h-.1V81.5a4.58,4.58,0,0,1,.55-.12,4.77,4.77,0,0,1,.76-.07,2.38,2.38,0,0,1,1.38.32,1.1,1.1,0,0,1,.43,1v2.5H21.38V84.7Zm5.66.39H25.68l-1-1.59-.17.24v1.35H23.36V80h1.15v2.85l1.08-1.43H27L25.66,83,27,85.09Zm2.37-1v-.77l-.47,0a1.59,1.59,0,0,0-.35.08.63.63,0,0,0-.23.16.49.49,0,0,0-.08.28.41.41,0,0,0,.14.36.71.71,0,0,0,.4.1.92.92,0,0,0,.31-.07,1.07,1.07,0,0,0,.28-.19Zm0,.56-.21.18A1.57,1.57,0,0,1,29,85a1.21,1.21,0,0,1-.3.11,1.4,1.4,0,0,1-.4,0,1.1,1.1,0,0,1-.81-.33,1.12,1.12,0,0,1-.32-.82,1.2,1.2,0,0,1,.17-.66,1.07,1.07,0,0,1,.46-.4,2.58,2.58,0,0,1,.74-.21q.44-.06.93-.09v0a.44.44,0,0,0-.23-.42,1.41,1.41,0,0,0-.66-.12,1.71,1.71,0,0,0-.47.08,4.72,4.72,0,0,0-.53.18h-.1V81.5a5.09,5.09,0,0,1,.55-.12,4.88,4.88,0,0,1,.76-.07,2.38,2.38,0,0,1,1.38.32,1.1,1.1,0,0,1,.43,1v2.5H29.41V84.7Zm3.13.39H31.39V81.43h1.15v3.66Zm0-4.18H31.36V80h1.21v.89Zm7.84,4.18H39.19V81.87L38.31,84h-.84l-.88-2.08v3.22H35.44V80.23h1.41l1.07,2.4L39,80.23h1.41v4.86Zm3-1v-.77l-.46,0a1.37,1.37,0,0,0-.35.08.5.5,0,0,0-.23.16.43.43,0,0,0-.09.28.41.41,0,0,0,.14.36.75.75,0,0,0,.41.1.82.82,0,0,0,.3-.07.92.92,0,0,0,.28-.19Zm0,.56a1.68,1.68,0,0,1-.21.18,1.57,1.57,0,0,1-.25.16,1.31,1.31,0,0,1-.29.11,1.48,1.48,0,0,1-.41,0,1.06,1.06,0,0,1-.8-.33,1.08,1.08,0,0,1-.32-.82,1.2,1.2,0,0,1,.16-.66,1.1,1.1,0,0,1,.47-.4,2.4,2.4,0,0,1,.74-.21c.28,0,.59-.07.92-.09v0a.43.43,0,0,0-.22-.42,1.46,1.46,0,0,0-.67-.12,1.78,1.78,0,0,0-.47.08,4.72,4.72,0,0,0-.53.18h-.1V81.5c.12,0,.3-.07.55-.12a4.9,4.9,0,0,1,.77-.07,2.32,2.32,0,0,1,1.37.32,1.11,1.11,0,0,1,.44,1v2.5H43.36V84.7Zm3.11.49a3.19,3.19,0,0,1-.77-.09,2.25,2.25,0,0,1-.59-.2v-1h.09l.19.13a1.78,1.78,0,0,0,.29.16,3,3,0,0,0,.36.13,2,2,0,0,0,.44,0,1.09,1.09,0,0,0,.42-.07.26.26,0,0,0,.19-.24.24.24,0,0,0-.09-.2,1.16,1.16,0,0,0-.33-.12l-.33-.07a2.53,2.53,0,0,1-.35-.09,1.33,1.33,0,0,1-.65-.39,1,1,0,0,1-.22-.69,1,1,0,0,1,.11-.46,1.23,1.23,0,0,1,.33-.39,1.65,1.65,0,0,1,.55-.26,2.28,2.28,0,0,1,.72-.1,3.11,3.11,0,0,1,.71.07,3.48,3.48,0,0,1,.55.19v.93H48l-.19-.13-.25-.13a2,2,0,0,0-.32-.11,1.47,1.47,0,0,0-.36,0,1,1,0,0,0-.42.08.27.27,0,0,0-.18.23.25.25,0,0,0,.09.2,1.22,1.22,0,0,0,.37.14l.34.07a2.11,2.11,0,0,1,.36.09,1.27,1.27,0,0,1,.61.37,1,1,0,0,1,.2.66,1.07,1.07,0,0,1-.12.49,1.26,1.26,0,0,1-.34.39,1.71,1.71,0,0,1-.56.27,2.78,2.78,0,0,1-.76.09Zm6-.1H51.1l-1-1.59-.18.24v1.35H48.79V80h1.14v2.85L51,81.43h1.35L51.09,83l1.38,2.08Zm2.23.1a2.34,2.34,0,0,1-1.6-.49,1.84,1.84,0,0,1-.55-1.42,2,2,0,0,1,.52-1.43,1.9,1.9,0,0,1,1.44-.54,1.66,1.66,0,0,1,1.27.46,1.79,1.79,0,0,1,.43,1.3v.41H53.69a1.29,1.29,0,0,0,.11.43.72.72,0,0,0,.25.27.88.88,0,0,0,.34.15,1.91,1.91,0,0,0,.43,0,1.72,1.72,0,0,0,.39,0,1.9,1.9,0,0,0,.36-.12l.26-.14.19-.13h.12v1l-.25.1a2.49,2.49,0,0,1-.32.1,2.66,2.66,0,0,1-.39.07,3.23,3.23,0,0,1-.48,0Zm.39-2.4a1,1,0,0,0-.17-.56.63.63,0,0,0-.49-.19.71.71,0,0,0-.53.2.83.83,0,0,0-.21.55Zm4.17-.28h-.1a.68.68,0,0,0-.19,0l-.27,0a1.31,1.31,0,0,0-.38.06,2.91,2.91,0,0,0-.39.12v2.45H56.79V81.43h1.14V82l.22-.18.25-.17a1.36,1.36,0,0,1,.3-.13.89.89,0,0,1,.31-.06h.25Z"/><path class="cls-2" d="M62.36,31.18A31.18,31.18,0,1,1,31.18,0,31.18,31.18,0,0,1,62.36,31.18Z"/><path class="cls-3" d="M20.17,30.21a6.55,6.55,0,1,1-6.55-6.54A6.55,6.55,0,0,1,20.17,30.21Z"/><path class="cls-3" d="M42.08,30.16a6.61,6.61,0,1,0,6.61-6.61A6.61,6.61,0,0,0,42.08,30.16Z"/><path class="cls-4" d="M40.51,22.37c-3.06-.94-4-4.11-9.34-4.11s-5.71,2.94-9.23,4.11a24,24,0,0,1-7.26,1.39l-.1,13.06s6.79,7.28,16.65,7.28,16.66-7.28,16.66-7.28V23.66A26.13,26.13,0,0,1,40.51,22.37Z"/><path class="cls-5" d="M40.51,22.37c-3.06-.94-4-4.11-9.34-4.11s-5.71,2.94-9.23,4.11a24,24,0,0,1-7.26,1.39l-.1,13.06s6.79,7.28,16.65,7.28,16.66-7.28,16.66-7.28V23.66A26.13,26.13,0,0,1,40.51,22.37Z"/><rect class="cls-6" x="26.75" y="28.77" width="8.99" height="8.99"/><rect class="cls-7" x="26.75" y="28.77" width="8.99" height="8.99"/><path class="cls-4" d="M14.51,27.92h0Z"/><line class="cls-8" x1="14.51" y1="27.92" x2="17.23" y2="27.92"/><path class="cls-4" d="M14.51,32.7h0Z"/><line class="cls-8" x1="14.51" y1="32.7" x2="17.23" y2="32.7"/><path class="cls-4" d="M48,27.92h0Z"/><line class="cls-8" x1="47.96" y1="27.92" x2="45.24" y2="27.92"/><path class="cls-4" d="M32.6,33.27h0Z"/><line class="cls-8" x1="32.6" y1="33.27" x2="29.88" y2="33.27"/><path class="cls-4" d="M48,32.7h0Z"/><line class="cls-8" x1="47.96" y1="32.7" x2="45.24" y2="32.7"/></g></g></svg>