<svg xmlns="http://www.w3.org/2000/svg" viewBox="0 0 62.36 86.81"><defs><style>.cls-1,.cls-4{fill:#57423b;}.cls-1,.cls-2{fill-rule:evenodd;}.cls-2{fill:#cd9d81;}.cls-3{fill:#fff;stroke:#57423b;stroke-linecap:round;stroke-linejoin:round;}.cls-4{font-size:7.32px;font-family:Gilroy-Bold, Gilroy;font-weight:700;}</style></defs><g id="Layer_2" data-name="Layer 2"><g id="Layer_1-2" data-name="Layer 1"><path class="cls-1" d="M12.94,85.46V81.53H11.5V80.6h4.1v.93H14.16v3.93Zm5,.1a2.34,2.34,0,0,1-1.6-.49,1.8,1.8,0,0,1-.55-1.42,2,2,0,0,1,.52-1.43,1.88,1.88,0,0,1,1.44-.53,1.65,1.65,0,0,1,1.27.45,1.81,1.81,0,0,1,.43,1.3v.41H16.9a1.09,1.09,0,0,0,.11.43.78.78,0,0,0,.24.27,1,1,0,0,0,.35.15,1.91,1.91,0,0,0,.43,0,1.72,1.72,0,0,0,.39,0,1.6,1.6,0,0,0,.35-.12,1.26,1.26,0,0,0,.26-.14l.2-.13h.12v1l-.26.1a1.89,1.89,0,0,1-.31.1l-.39.08-.48,0Zm.38-2.4a.8.8,0,0,0-.17-.55.57.57,0,0,0-.48-.2.68.68,0,0,0-.53.21.78.78,0,0,0-.21.54Zm5.31.42A2.19,2.19,0,0,1,23.16,85a1.39,1.39,0,0,1-1.11.54,1.43,1.43,0,0,1-.48-.07,2,2,0,0,1-.43-.19v1.53H20v-5h1.14v.38a2.79,2.79,0,0,1,.52-.35,1.26,1.26,0,0,1,.6-.13,1.14,1.14,0,0,1,1,.5,2.35,2.35,0,0,1,.35,1.38Zm-1.17,0a1.42,1.42,0,0,0-.16-.78.59.59,0,0,0-.52-.24.84.84,0,0,0-.31,0,1.35,1.35,0,0,0-.3.14v1.85a.65.65,0,0,0,.2.05,1.1,1.1,0,0,0,.27,0,.73.73,0,0,0,.62-.27,1.42,1.42,0,0,0,.2-.82Zm3.8.9v-.77l-.47.05a1.47,1.47,0,0,0-.35.08.5.5,0,0,0-.23.16.43.43,0,0,0-.08.29.39.39,0,0,0,.13.35.69.69,0,0,0,.41.1.82.82,0,0,0,.3-.07,1.12,1.12,0,0,0,.29-.19Zm0,.56-.21.18a1.81,1.81,0,0,1-.25.16,1.21,1.21,0,0,1-.3.11,1.45,1.45,0,0,1-.4,0,1.1,1.1,0,0,1-.81-.32,1.16,1.16,0,0,1-.32-.83,1.2,1.2,0,0,1,.16-.66,1.16,1.16,0,0,1,.47-.4,2.49,2.49,0,0,1,.74-.21c.29,0,.59-.07.92-.09v0a.43.43,0,0,0-.22-.42,1.46,1.46,0,0,0-.67-.12,1.84,1.84,0,0,0-.47.08,3.75,3.75,0,0,0-.53.19h-.09v-.89l.55-.12a4.77,4.77,0,0,1,.76-.06,2.39,2.39,0,0,1,1.38.31,1.1,1.1,0,0,1,.43,1v2.5H26.23v-.39Zm3.39.47a1.53,1.53,0,0,1-1-.29,1.23,1.23,0,0,1-.32-.94V82.59h-.43V81.8h.43v-1h1.15v1h1.1v.79h-1.1v1.64a.67.67,0,0,0,.05.26.35.35,0,0,0,.16.18.66.66,0,0,0,.34.07.8.8,0,0,0,.24,0l.21-.07h.1v.8a2.45,2.45,0,0,1-.39.08,3.84,3.84,0,0,1-.52,0Zm9.67-4.94-1.23,4.86H36.72l-.78-3-.75,3H33.84L32.61,80.6h1.27l.67,3.25.81-3.25h1.22l.77,3.26.7-3.26Zm2.55,3.91v-.77l-.46.05a1.37,1.37,0,0,0-.35.08.6.6,0,0,0-.24.16.5.5,0,0,0-.08.29.4.4,0,0,0,.14.35.67.67,0,0,0,.41.1.87.87,0,0,0,.3-.07,1.07,1.07,0,0,0,.28-.19Zm0,.56-.21.18a1.08,1.08,0,0,1-.25.16,1.21,1.21,0,0,1-.3.11,1.4,1.4,0,0,1-.4,0,1.09,1.09,0,0,1-.8-.32,1.13,1.13,0,0,1-.33-.83,1.2,1.2,0,0,1,.17-.66,1.07,1.07,0,0,1,.46-.4,2.58,2.58,0,0,1,.74-.21q.44-.06.93-.09v0a.44.44,0,0,0-.23-.42,1.41,1.41,0,0,0-.66-.12,1.78,1.78,0,0,0-.47.08,3.35,3.35,0,0,0-.53.19h-.1v-.89l.55-.12a4.87,4.87,0,0,1,.76-.06,2.39,2.39,0,0,1,1.38.31A1.1,1.1,0,0,1,43,83v2.5H41.84v-.39Zm5.66.39H46.14l-1-1.59-.18.24v1.35H43.82V80.38H45v2.85l1.09-1.43h1.35l-1.29,1.58,1.38,2.08Zm1.77.08a3.68,3.68,0,0,0,.51,0,2.24,2.24,0,0,0,.39-.08v-.8h-.09l-.21.07a.85.85,0,0,1-.24,0,.64.64,0,0,1-.34-.07.31.31,0,0,1-.16-.18.66.66,0,0,1-.06-.26V82.59h1.1V81.8h-1.1v-1H47.93v1h-.44v.79h.44v1.72a1.19,1.19,0,0,0,.32.94,1.5,1.5,0,0,0,1,.29ZM54,85.46H52.9v-.4a2.94,2.94,0,0,1-.55.37,1.2,1.2,0,0,1-.59.13,1.09,1.09,0,0,1-.85-.34,1.56,1.56,0,0,1-.3-1V81.8h1.14v1.82c0,.18,0,.34,0,.46a.82.82,0,0,0,.08.3.31.31,0,0,0,.16.18.78.78,0,0,0,.3,0,1.1,1.1,0,0,0,.29,0,1.51,1.51,0,0,0,.31-.16V81.8H54Zm-26.47-8.1v-.77l-.46.06a1.37,1.37,0,0,0-.35.08.44.44,0,0,0-.23.16.41.41,0,0,0-.09.28.43.43,0,0,0,.14.36.76.76,0,0,0,.41.09.8.8,0,0,0,.3-.06,1,1,0,0,0,.28-.2Zm0,.57a1.68,1.68,0,0,1-.21.18,1.09,1.09,0,0,1-.25.15l-.29.12a1.48,1.48,0,0,1-.41,0,1.06,1.06,0,0,1-.8-.33,1.1,1.1,0,0,1-.32-.82,1.15,1.15,0,0,1,.16-.66,1,1,0,0,1,.47-.4,2.4,2.4,0,0,1,.74-.21c.28,0,.59-.07.92-.09v0a.41.41,0,0,0-.22-.42,1.46,1.46,0,0,0-.67-.12,2.23,2.23,0,0,0-.47.07,4.76,4.76,0,0,0-.53.19h-.1v-.89l.55-.11a3.94,3.94,0,0,1,.77-.07,2.32,2.32,0,0,1,1.37.32,1.11,1.11,0,0,1,.44,1v2.5H27.57v-.39Zm6.79-.46V76.7l-.47,0a1.47,1.47,0,0,0-.35.08.56.56,0,0,0-.23.16.5.5,0,0,0-.08.29.4.4,0,0,0,.14.35.64.64,0,0,0,.4.1.73.73,0,0,0,.31-.07,1.07,1.07,0,0,0,.28-.19Zm0,.57-.21.18a1.08,1.08,0,0,1-.25.16,1.21,1.21,0,0,1-.3.11,1.4,1.4,0,0,1-.4,0,1.13,1.13,0,0,1-.81-.32,1.16,1.16,0,0,1-.32-.83,1.2,1.2,0,0,1,.17-.66,1.07,1.07,0,0,1,.46-.4,2.58,2.58,0,0,1,.74-.21q.44-.06.93-.09v0a.44.44,0,0,0-.23-.42,1.41,1.41,0,0,0-.66-.12,1.84,1.84,0,0,0-.48.08,3.63,3.63,0,0,0-.52.19h-.1v-.89l.55-.12a4.87,4.87,0,0,1,.76-.06,2.39,2.39,0,0,1,1.38.31,1.1,1.1,0,0,1,.43,1v2.5H34.36V78Z"/><path class="cls-2" d="M62.36,31.18A31.18,31.18,0,1,1,31.18,0,31.18,31.18,0,0,1,62.36,31.18Z"/><circle class="cls-3" cx="31.18" cy="31.18" r="21.26" transform="translate(-12.92 31.18) rotate(-45)"/><path class="cls-1" d="M39.28,14.93h.56v.33l-1,.65-.31-.48.75-.5Zm0,2.89h.57V15.61l-.57.08Z"/><path class="cls-1" d="M47,23.86h-2.1v-.51H47v.51Zm-1.1-2.34a.5.5,0,0,0-.27.08.48.48,0,0,0-.17.23l-.56-.16a.89.89,0,0,1,.15-.29,1,1,0,0,1,.23-.24,1.32,1.32,0,0,1,.29-.15,1,1,0,0,1,.33-.06,1.16,1.16,0,0,1,.42.08,1.13,1.13,0,0,1,.34.2.94.94,0,0,1,.3.69.89.89,0,0,1-.08.35,1.56,1.56,0,0,1-.24.35q-.15.18-.33.36l-.39.34-.6-.27.2-.16.23-.2.23-.2.2-.21a1.82,1.82,0,0,0,.14-.19.32.32,0,0,0,.05-.17.29.29,0,0,0,0-.16.41.41,0,0,0-.1-.13l-.15-.07A.55.55,0,0,0,45.87,21.52Z"/><path class="cls-1" d="M49.56,29.55v.55h-2v-.55Zm-.46,1.12a1.14,1.14,0,0,1,.34.38,1.1,1.1,0,0,1,.12.51,1.16,1.16,0,0,1-.08.42,1.25,1.25,0,0,1-.23.35,1.18,1.18,0,0,1-.35.23,1,1,0,0,1-.42.09,1,1,0,0,1-.34-.06,1.08,1.08,0,0,1-.3-.16.91.91,0,0,1-.24-.24,1.05,1.05,0,0,1-.15-.3L48,31.7a.78.78,0,0,0,0,.14l.09.12a.57.57,0,0,0,.13.08.34.34,0,0,0,.18,0,.65.65,0,0,0,.21,0,.58.58,0,0,0,.15-.11.53.53,0,0,0,.08-.17.64.64,0,0,0,0-.2.44.44,0,0,0-.13-.33.49.49,0,0,0-.34-.12h-.3v-.47l.58-.49.63.28Z"/><path class="cls-1" d="M46.29,39h.58v.55l-.58-.29V39Zm1,.61h-1.6l.9-1.85h-.64L45,39.62v.53h1.31v.51h.58v-.51h.38Z"/><path class="cls-1" d="M39,45l.07-.51h1.61V45Zm.72.44a1,1,0,0,1,.45.09,1,1,0,0,1,.52.55,1.12,1.12,0,0,1,.06.35,1,1,0,0,1-.07.38.85.85,0,0,1-.21.31,1,1,0,0,1-.33.21,1,1,0,0,1-.42.08.81.81,0,0,1-.31,0,1.2,1.2,0,0,1-.28-.13,1.15,1.15,0,0,1-.23-.21.72.72,0,0,1-.15-.27l.55-.2a.61.61,0,0,0,0,.12.23.23,0,0,0,.07.1.57.57,0,0,0,.13.08.4.4,0,0,0,.17,0,.58.58,0,0,0,.19,0,.71.71,0,0,0,.14-.1.5.5,0,0,0,.08-.12.4.4,0,0,0,0-.15v-.05a.41.41,0,0,0-.11-.3.68.68,0,0,0-.31-.13,1.76,1.76,0,0,0-.42,0h-.45l.08-.61.66-.29,0,.38Z"/><path class="cls-1" d="M31.44,47.54a1.09,1.09,0,0,1,.31.14,1.07,1.07,0,0,1,.25.22,1.08,1.08,0,0,1,.16.3,1,1,0,0,1,.06.35.92.92,0,0,1-.08.4,1,1,0,0,1-.22.33,1.23,1.23,0,0,1-.33.23,1.11,1.11,0,0,1-.41.08,1.1,1.1,0,0,1-.4-.08,1.14,1.14,0,0,1-.56-.56,1.1,1.1,0,0,1-.08-.4.93.93,0,0,1,.06-.34.75.75,0,0,1,.16-.29l1-1.42h.76l-1.26,1.77a.34.34,0,0,0-.09.14.41.41,0,0,0,0,.16.48.48,0,0,0,0,.18.71.71,0,0,0,.1.14A.56.56,0,0,0,31,49a.47.47,0,0,0,.17,0l.18,0a.52.52,0,0,0,.24-.24.48.48,0,0,0,0-.18.44.44,0,0,0-.09-.27.41.41,0,0,0-.23-.16Z"/><path class="cls-1" d="M21.88,44.21h1.89v.52H21.88v-.52ZM22,47.1l1.17-2.32.54.22-1.07,2.1Z"/><path class="cls-1" d="M16.87,39.38a1,1,0,0,1,.22.31.79.79,0,0,1,.09.38.73.73,0,0,1-.06.3.72.72,0,0,1-.15.27.7.7,0,0,1-.22.2,1,1,0,0,1-.28.14l-.23-.5a.44.44,0,0,0,.15,0,.27.27,0,0,0,.12-.09.34.34,0,0,0,.09-.12.4.4,0,0,0,0-.15.53.53,0,0,0,0-.17.38.38,0,0,0-.09-.13l-.15-.09a.5.5,0,0,0-.34,0l-.15.09a.64.64,0,0,0-.1.13.51.51,0,0,0,0,.17.41.41,0,0,0,0,.16.45.45,0,0,0,.1.13.38.38,0,0,0,.15.09.47.47,0,0,0,.17,0V41a1,1,0,0,1-.39-.07,1.16,1.16,0,0,1-.32-.2,1,1,0,0,1-.21-.3,1,1,0,0,1-.08-.37.92.92,0,0,1,.08-.38,1.19,1.19,0,0,1,.23-.31.8.8,0,0,1-.17-.5.87.87,0,0,1,.06-.32.83.83,0,0,1,.19-.26.8.8,0,0,1,.27-.18,1,1,0,0,1,.68,0,.64.64,0,0,1,.27.18.83.83,0,0,1,.19.26.88.88,0,0,1,.07.32.81.81,0,0,1-.05.27.86.86,0,0,1-.13.23Zm-.69-.21a.33.33,0,0,0,.23-.09.27.27,0,0,0,0-.4.33.33,0,0,0-.23-.09.29.29,0,0,0-.22.09.27.27,0,0,0,0,.4A.29.29,0,0,0,16.18,39.17Z"/><path class="cls-1" d="M13.87,29.63a.9.9,0,0,1,.4.09,1,1,0,0,1,.56.56.9.9,0,0,1,.08.4.93.93,0,0,1-.05.34,1.08,1.08,0,0,1-.16.3l-1,1.41H13L14.21,31a.47.47,0,0,0,.08-.14.45.45,0,0,0,0-.16.57.57,0,0,0,0-.18.71.71,0,0,0-.1-.14.33.33,0,0,0-.14-.1.43.43,0,0,0-.36,0,.33.33,0,0,0-.14.1.45.45,0,0,0-.1.14.57.57,0,0,0,0,.18.44.44,0,0,0,.09.27.45.45,0,0,0,.24.16l-.14.6a.92.92,0,0,1-.32-.14.84.84,0,0,1-.24-.22,1.11,1.11,0,0,1-.17-.3,1,1,0,0,1-.06-.35,1.06,1.06,0,0,1,.08-.4,1.36,1.36,0,0,1,.23-.34,1.06,1.06,0,0,1,.33-.22A1,1,0,0,1,13.87,29.63Z"/><path class="cls-1" d="M16,21.54h.56v.33l-1,.65L15.21,22l.75-.5Zm0,2.89h.57V22.22L16,22.3v2.13Zm1.87-2.92a1,1,0,0,1,.51.11,1,1,0,0,1,.32.31,1.36,1.36,0,0,1,.17.48,2.67,2.67,0,0,1,.05.58,4.12,4.12,0,0,1,0,.51,1.35,1.35,0,0,1-.12.43,1,1,0,0,1-.23.32.91.91,0,0,1-.38.19l-.23-.51a.34.34,0,0,0,.19-.09.58.58,0,0,0,.13-.2.82.82,0,0,0,.08-.29,2,2,0,0,0,0-.36,2.17,2.17,0,0,0,0-.38,1.07,1.07,0,0,0-.09-.3.62.62,0,0,0-.15-.2.38.38,0,0,0-.22-.07.38.38,0,0,0-.21.07.62.62,0,0,0-.15.2,1.07,1.07,0,0,0-.09.3,2.17,2.17,0,0,0,0,.38,2.3,2.3,0,0,0,0,.38,1.6,1.6,0,0,0,.08.3.62.62,0,0,0,.15.2.45.45,0,0,0,.23.07v.53a.94.94,0,0,1-.49-.12A.86.86,0,0,1,17,24a1.21,1.21,0,0,1-.18-.47,2.72,2.72,0,0,1-.06-.58,3.48,3.48,0,0,1,.05-.58,1.37,1.37,0,0,1,.18-.48.87.87,0,0,1,.32-.31A1,1,0,0,1,17.82,21.51Z"/><path class="cls-1" d="M22.09,15.14h.56v.33l-1,.65-.31-.48.75-.5Zm0,2.89h.58V15.82l-.58.07V18Zm1.62-2.89h.56v.33l-1,.65-.31-.48.75-.5Zm0,2.89h.58V15.82l-.58.07Z"/><path class="cls-1" d="M30,12.84h.59v.35l-1.06.69-.33-.51.8-.53Zm0,3.06h.61V13.56l-.61.08V15.9Zm3.14,0H30.92v-.54h2.22v.54ZM32,13.42a.5.5,0,0,0-.29.09.49.49,0,0,0-.18.25l-.6-.18a1.3,1.3,0,0,1,.16-.31,1.14,1.14,0,0,1,.25-.24,1.11,1.11,0,0,1,.3-.17A1.09,1.09,0,0,1,32,12.8a1.27,1.27,0,0,1,.44.08,1.09,1.09,0,0,1,.36.22.9.9,0,0,1,.23.32,1,1,0,0,1,.09.41.76.76,0,0,1-.1.37,1.94,1.94,0,0,1-.24.37c-.11.12-.23.25-.36.37L32,15.3,31.36,15l.21-.17c.08-.07.16-.13.24-.21l.25-.22a2.13,2.13,0,0,0,.21-.22l.15-.2a.41.41,0,0,0,0-.17.34.34,0,0,0,0-.18.45.45,0,0,0-.11-.13l-.16-.08Z"/><path class="cls-1" d="M31.18,30.93a.25.25,0,1,1-.25.25A.25.25,0,0,1,31.18,30.93Z"/><polygon class="cls-1" points="31.5 31.43 31.5 19.99 31.82 19.99 31.18 17.8 30.54 19.99 30.86 19.99 30.86 31.43 31.5 31.43"/><polygon class="cls-1" points="31.46 31.27 27.68 24.66 27.95 24.5 26.31 22.92 26.85 25.14 27.12 24.98 30.9 31.59 31.46 31.27"/><text class="cls-4" transform="translate(32.27 78.47)"><tspan xml:space="preserve">  ng</tspan></text><text class="cls-4" transform="translate(20 78.44)">D</text><text class="cls-4" transform="translate(28.96 78.44)">t </text></g></g></svg>