<svg xmlns="http://www.w3.org/2000/svg" viewBox="0 0 62.36 86.47"><defs><style>.cls-1{fill:#57423b;}.cls-1,.cls-2,.cls-3,.cls-4,.cls-5,.cls-6{fill-rule:evenodd;}.cls-2{fill:#cd9d81;}.cls-3{fill:#fff;}.cls-4,.cls-5,.cls-6{fill:none;stroke:#57423b;stroke-width:1.02px;}.cls-4{stroke-miterlimit:10;}.cls-5,.cls-6{stroke-linejoin:round;}.cls-6{stroke-linecap:round;}</style></defs><g id="Layer_2" data-name="Layer 2"><g id="Layer_1-2" data-name="Layer 1"><path class="cls-1" d="M27.89,72.16,26.66,77H25.32l-.78-3-.75,3H22.45l-1.23-4.86h1.26l.67,3.25L24,72.16h1.21L26,75.42l.7-3.26Zm2.55,3.9V75.3l-.46,0a1.37,1.37,0,0,0-.35.08.5.5,0,0,0-.23.16.41.41,0,0,0-.09.28.42.42,0,0,0,.14.36.75.75,0,0,0,.41.1.82.82,0,0,0,.3-.07.9.9,0,0,0,.28-.2Zm0,.57-.21.18A1.57,1.57,0,0,1,30,77a2.12,2.12,0,0,1-.29.11,1.48,1.48,0,0,1-.41,0,1.06,1.06,0,0,1-.8-.33,1.08,1.08,0,0,1-.32-.82,1.2,1.2,0,0,1,.16-.66,1.1,1.1,0,0,1,.47-.4,2.4,2.4,0,0,1,.74-.21c.28,0,.59-.07.92-.09v0a.44.44,0,0,0-.22-.42,1.46,1.46,0,0,0-.67-.12,1.78,1.78,0,0,0-.47.08,3.31,3.31,0,0,0-.53.18h-.1v-.88a3.71,3.71,0,0,1,.55-.12,4.9,4.9,0,0,1,.77-.07,2.32,2.32,0,0,1,1.37.32,1.11,1.11,0,0,1,.44,1V77H30.44v-.39Zm3.54.45a1.28,1.28,0,0,1-.36,1,1.37,1.37,0,0,1-1,.35,4.86,4.86,0,0,1-.56,0l-.38-.06v-.84h.09l.25.06.22,0a.48.48,0,0,0,.44-.2,1.4,1.4,0,0,0,.12-.67V74.15h-.66v-.79H34v3.72Zm0-4.25H32.77V72H34v.88ZM36,77H34.85V73.36H36V77Zm0-4.19H34.82V72H36v.88Zm3.27,2.33a1.41,1.41,0,0,0-.17-.78.57.57,0,0,0-.51-.23,1.15,1.15,0,0,0-.31,0,1.59,1.59,0,0,0-.29.15v1.84a.86.86,0,0,0,.23.06l.23,0A.72.72,0,0,0,39.1,76a1.39,1.39,0,0,0,.2-.82Zm1.17,0A2.13,2.13,0,0,1,40,76.55a1.36,1.36,0,0,1-1.1.54,1.63,1.63,0,0,1-.47-.06,1.77,1.77,0,0,1-.43-.19L38,77h-1.1V71.94H38v1.8a2.44,2.44,0,0,1,.51-.35,1.26,1.26,0,0,1,.6-.13,1.12,1.12,0,0,1,1,.5,2.39,2.39,0,0,1,.35,1.38Zm-28.67,10H10.59V81.87L9.7,84H8.87L8,81.87v3.22H6.84V80.23h1.4l1.08,2.4,1.08-2.4h1.4v4.86Zm2.82.1A2.31,2.31,0,0,1,13,84.7a1.82,1.82,0,0,1-.56-1.42A2,2,0,0,1,13,81.85a1.92,1.92,0,0,1,1.45-.54,1.69,1.69,0,0,1,1.27.46,1.83,1.83,0,0,1,.42,1.3v.41H13.62a.94.94,0,0,0,.11.43.78.78,0,0,0,.24.27,1,1,0,0,0,.34.15,2,2,0,0,0,.43,0,1.72,1.72,0,0,0,.39,0,1.9,1.9,0,0,0,.36-.12l.26-.14.19-.13h.12v1l-.25.1a2.49,2.49,0,0,1-.32.1l-.38.08-.49,0Zm.39-2.4a.92.92,0,0,0-.17-.55.6.6,0,0,0-.49-.2.71.71,0,0,0-.53.2.94.94,0,0,0-.21.55Zm5.14,2.3H19V83.28c0-.15,0-.3,0-.45a1,1,0,0,0-.07-.32.42.42,0,0,0-.17-.18.81.81,0,0,0-.3,0,1,1,0,0,0-.29,0,1.17,1.17,0,0,0-.3.17v2.59H16.71V81.43h1.15v.4a2.74,2.74,0,0,1,.54-.37,1.31,1.31,0,0,1,.59-.13,1.07,1.07,0,0,1,.86.35,1.56,1.56,0,0,1,.3,1v2.38Zm2.4.07a1.24,1.24,0,0,1-.37,1,1.32,1.32,0,0,1-.95.35,4.91,4.91,0,0,1-.57,0l-.37,0v-.85h.09a1.68,1.68,0,0,0,.24.06l.22,0a.49.49,0,0,0,.45-.2,1.4,1.4,0,0,0,.12-.67V82.22h-.66v-.79h1.8v3.73Zm0-4.25H21.33V80h1.22v.89Zm2.89,3.23v-.77l-.47,0a1.47,1.47,0,0,0-.35.08.56.56,0,0,0-.23.16.49.49,0,0,0-.08.28c0,.18,0,.3.14.36a.71.71,0,0,0,.4.1.92.92,0,0,0,.31-.07,1.26,1.26,0,0,0,.28-.19Zm0,.56-.21.18A2.22,2.22,0,0,1,25,85a1.21,1.21,0,0,1-.3.11,1.4,1.4,0,0,1-.4,0,1.12,1.12,0,0,1-.81-.32,1.16,1.16,0,0,1-.32-.83,1.29,1.29,0,0,1,.16-.66,1.16,1.16,0,0,1,.47-.4,2.58,2.58,0,0,1,.74-.21q.43-.06.93-.09v0a.44.44,0,0,0-.23-.42,1.44,1.44,0,0,0-.66-.12,1.84,1.84,0,0,0-.48.08,4.56,4.56,0,0,0-.52.18h-.1V81.5a5.09,5.09,0,0,1,.55-.12,4.88,4.88,0,0,1,.76-.07,2.38,2.38,0,0,1,1.38.32,1.1,1.1,0,0,1,.43,1v2.5H25.44V84.7Zm4.18-.77V82.27a1,1,0,0,0-.21-.07l-.25,0a.77.77,0,0,0-.63.26,1.19,1.19,0,0,0-.2.75,2.25,2.25,0,0,0,0,.4.83.83,0,0,0,.11.29.5.5,0,0,0,.22.19.69.69,0,0,0,.34.07.8.8,0,0,0,.3-.06.89.89,0,0,0,.29-.15Zm1.14.74a2.17,2.17,0,0,1-.15.86,1.32,1.32,0,0,1-.4.56,1.72,1.72,0,0,1-.61.29,3.32,3.32,0,0,1-.8.09,5.09,5.09,0,0,1-.69,0,5.28,5.28,0,0,1-.57-.11v-.92h.13l.2.08.24.07.27.06.28,0a1.73,1.73,0,0,0,.49-.06.68.68,0,0,0,.29-.17.77.77,0,0,0,.14-.27,2,2,0,0,0,0-.39v-.07a1.48,1.48,0,0,1-.45.28,1.55,1.55,0,0,1-.52.1,1.4,1.4,0,0,1-1.11-.46,2.16,2.16,0,0,1-.38-1.41,2.67,2.67,0,0,1,.11-.78,2.06,2.06,0,0,1,.34-.58,1.48,1.48,0,0,1,.49-.36,1.53,1.53,0,0,1,.6-.12,1.55,1.55,0,0,1,.5.07,1.72,1.72,0,0,1,.41.19l0-.16h1.11v3.24Zm2.89-.53v-.77l-.46,0a1.37,1.37,0,0,0-.35.08.6.6,0,0,0-.24.16.49.49,0,0,0-.08.28.41.41,0,0,0,.14.36.74.74,0,0,0,.4.1.87.87,0,0,0,.31-.07,1.07,1.07,0,0,0,.28-.19Zm0,.56-.21.18a1.57,1.57,0,0,1-.25.16,1.21,1.21,0,0,1-.3.11,1.4,1.4,0,0,1-.4,0,1.09,1.09,0,0,1-.8-.32,1.13,1.13,0,0,1-.33-.83,1.2,1.2,0,0,1,.17-.66A1.07,1.07,0,0,1,32,83a2.58,2.58,0,0,1,.74-.21q.44-.06.93-.09v0a.44.44,0,0,0-.23-.42,1.41,1.41,0,0,0-.66-.12,1.78,1.78,0,0,0-.47.08,4.72,4.72,0,0,0-.53.18h-.1V81.5c.12,0,.3-.07.55-.12a4.88,4.88,0,0,1,.76-.07,2.38,2.38,0,0,1,1.38.32,1.1,1.1,0,0,1,.43,1v2.5H33.65V84.7Zm6.41-1a1.49,1.49,0,0,1-.11.6,1.19,1.19,0,0,1-.32.47,1.51,1.51,0,0,1-.58.33,2.53,2.53,0,0,1-.76.11,5.79,5.79,0,0,1-.61,0,3.17,3.17,0,0,1-.5-.07v-1h.11l.31.11a1.47,1.47,0,0,0,.41,0,1.07,1.07,0,0,0,.49-.09.53.53,0,0,0,.25-.26,1,1,0,0,0,.08-.37c0-.14,0-.29,0-.46V81.12H37.73v-.89h2.33v3.43Zm2.9.48v-.77l-.47,0a1.59,1.59,0,0,0-.35.08.63.63,0,0,0-.23.16.49.49,0,0,0-.08.28.41.41,0,0,0,.14.36.74.74,0,0,0,.4.1.92.92,0,0,0,.31-.07,1.07,1.07,0,0,0,.28-.19Zm0,.56-.21.18a1.57,1.57,0,0,1-.25.16,1.21,1.21,0,0,1-.3.11,1.4,1.4,0,0,1-.4,0,1.13,1.13,0,0,1-.81-.32,1.16,1.16,0,0,1-.32-.83,1.2,1.2,0,0,1,.17-.66,1.07,1.07,0,0,1,.46-.4,2.58,2.58,0,0,1,.74-.21q.43-.06.93-.09v0a.44.44,0,0,0-.23-.42,1.41,1.41,0,0,0-.66-.12,1.71,1.71,0,0,0-.47.08,4.72,4.72,0,0,0-.53.18H41V81.5a5.09,5.09,0,0,1,.55-.12,4.88,4.88,0,0,1,.76-.07,2.38,2.38,0,0,1,1.38.32,1.1,1.1,0,0,1,.43,1v2.5H43V84.7Zm4.45-2.19h-.09a.84.84,0,0,0-.19,0l-.28,0a1.36,1.36,0,0,0-.38.06,2.4,2.4,0,0,0-.38.12v2.45H44.94V81.43h1.15V82s.12-.11.22-.18a1.59,1.59,0,0,1,.25-.17,1.11,1.11,0,0,1,.29-.13.89.89,0,0,1,.31-.06h.25v1.08Zm2.45,1.63v-.77l-.46,0a1.37,1.37,0,0,0-.35.08.5.5,0,0,0-.23.16.43.43,0,0,0-.09.28.41.41,0,0,0,.14.36.75.75,0,0,0,.41.1.82.82,0,0,0,.3-.07.92.92,0,0,0,.28-.19Zm0,.56a1.68,1.68,0,0,1-.21.18,2,2,0,0,1-.24.16,1.6,1.6,0,0,1-.3.11,1.48,1.48,0,0,1-.41,0,1.09,1.09,0,0,1-.8-.32,1.12,1.12,0,0,1-.32-.83,1.2,1.2,0,0,1,.16-.66,1.1,1.1,0,0,1,.47-.4,2.4,2.4,0,0,1,.74-.21c.28,0,.59-.07.92-.09v0a.43.43,0,0,0-.22-.42,1.46,1.46,0,0,0-.67-.12,1.84,1.84,0,0,0-.47.08,4.72,4.72,0,0,0-.53.18h-.1V81.5c.12,0,.3-.07.55-.12a5,5,0,0,1,.77-.07,2.38,2.38,0,0,1,1.38.32,1.13,1.13,0,0,1,.43,1v2.5H49.86V84.7Zm5.67.39H54.16l-1-1.59-.18.24v1.35H51.85V80H53v2.85l1.09-1.43h1.35L54.15,83Z"/><path class="cls-2" d="M62.36,31.18A31.18,31.18,0,1,1,31.18,0,31.18,31.18,0,0,1,62.36,31.18Z"/><path class="cls-3" d="M19.91,21.19a3,3,0,1,1-3-3A3,3,0,0,1,19.91,21.19Z"/><path class="cls-4" d="M19.91,21.19a3,3,0,1,1-3-3A3,3,0,0,1,19.91,21.19Z"/><path class="cls-3" d="M26,33.87l-4.08-6.64A3.41,3.41,0,0,0,19,25.61H14.76a3.39,3.39,0,0,0-2.88,1.61L7.81,33.78a1.59,1.59,0,0,0,.4,2.12,1.55,1.55,0,0,0,2.21-.39l2.41-3.77.08,4.34-.37,10.55a1.76,1.76,0,0,0,1.31,1.8,1.73,1.73,0,0,0,2.09-1.64l.37-10.71h1.23l.37,10.67a1.77,1.77,0,0,0,1.41,1.7,1.72,1.72,0,0,0,2-1.78l-.37-10.59L21,31.89l2.29,3.57a1.59,1.59,0,0,0,2.11.58A1.55,1.55,0,0,0,26,33.87Z"/><path class="cls-5" d="M26,33.87l-4.08-6.64A3.41,3.41,0,0,0,19,25.61H14.76a3.39,3.39,0,0,0-2.88,1.61L7.81,33.78a1.59,1.59,0,0,0,.4,2.12,1.55,1.55,0,0,0,2.21-.39l2.41-3.77.08,4.34-.37,10.55a1.76,1.76,0,0,0,1.31,1.8,1.73,1.73,0,0,0,2.09-1.64l.37-10.71h1.23l.37,10.67a1.77,1.77,0,0,0,1.41,1.7,1.72,1.72,0,0,0,2-1.78l-.37-10.59L21,31.89l2.29,3.57a1.59,1.59,0,0,0,2.11.58A1.55,1.55,0,0,0,26,33.87Z"/><path class="cls-3" d="M48.51,21.19a3,3,0,1,1-3-3A3,3,0,0,1,48.51,21.19Z"/><path class="cls-4" d="M48.51,21.19a3,3,0,1,1-3-3A3,3,0,0,1,48.51,21.19Z"/><path class="cls-3" d="M54.56,33.87l-4.08-6.64a3.41,3.41,0,0,0-2.89-1.62H43.36a3.39,3.39,0,0,0-2.88,1.61l-4.07,6.56a1.59,1.59,0,0,0,.4,2.12A1.55,1.55,0,0,0,39,35.51l2.42-3.77.07,4.34-.37,10.55a1.76,1.76,0,0,0,1.31,1.8,1.73,1.73,0,0,0,2.09-1.64l.37-10.71h1.23l.37,10.67a1.77,1.77,0,0,0,1.41,1.7,1.72,1.72,0,0,0,2-1.78l-.37-10.59.07-4.19,2.29,3.57A1.59,1.59,0,0,0,54,36,1.55,1.55,0,0,0,54.56,33.87Z"/><path class="cls-5" d="M54.56,33.87l-4.08-6.64a3.41,3.41,0,0,0-2.89-1.62H43.36a3.39,3.39,0,0,0-2.88,1.61l-4.07,6.56a1.59,1.59,0,0,0,.4,2.12A1.55,1.55,0,0,0,39,35.51l2.42-3.77.07,4.34-.37,10.55a1.76,1.76,0,0,0,1.31,1.8,1.73,1.73,0,0,0,2.09-1.64l.37-10.71h1.23l.37,10.67a1.77,1.77,0,0,0,1.41,1.7,1.72,1.72,0,0,0,2-1.78l-.37-10.59.07-4.19,2.29,3.57A1.59,1.59,0,0,0,54,36,1.55,1.55,0,0,0,54.56,33.87Z"/><polyline class="cls-6" points="22.21 17.09 22.21 13.88 40.15 13.88 40.15 16.69"/></g></g></svg>