<svg xmlns="http://www.w3.org/2000/svg" viewBox="0 0 62.36 86.47"><defs><style>.cls-1{fill:#57423b;}.cls-1,.cls-2,.cls-3,.cls-4,.cls-5{fill-rule:evenodd;}.cls-2{fill:#cd9d81;}.cls-3{fill:#fff;}.cls-4{fill:#806b64;}.cls-5{fill:none;stroke:#57423b;stroke-linecap:round;stroke-linejoin:round;}</style></defs><g id="Layer_2" data-name="Layer 2"><g id="Layer_1-2" data-name="Layer 1"><path class="cls-1" d="M23.4,77V73.09H22v-.93h4.1v.93H24.62V77Zm4.23,0H26.49V73.36h1.14V77Zm0-4.19H26.45v-.89h1.21v.89ZM31.84,77H30.7v-.38a2.93,2.93,0,0,1-.26.19,1,1,0,0,1-.25.16,1,1,0,0,1-.27.1,1.45,1.45,0,0,1-.32,0,1.16,1.16,0,0,1-1-.52,2.37,2.37,0,0,1-.36-1.38,2.66,2.66,0,0,1,.12-.84,2,2,0,0,1,.35-.61,1.5,1.5,0,0,1,.48-.38,1.39,1.39,0,0,1,.61-.13,1.53,1.53,0,0,1,.47.06,3.36,3.36,0,0,1,.43.18V71.94h1.14V77ZM30.7,76V74.2l-.22-.07-.24,0a.72.72,0,0,0-.62.29,1.39,1.39,0,0,0-.21.81,1.46,1.46,0,0,0,.16.79.61.61,0,0,0,.54.24.89.89,0,0,0,.31-.06A1.12,1.12,0,0,0,30.7,76Zm4,0V75.3l-.46,0a1.37,1.37,0,0,0-.35.08.44.44,0,0,0-.23.16.41.41,0,0,0-.09.28.42.42,0,0,0,.14.36.75.75,0,0,0,.41.1.82.82,0,0,0,.3-.07.8.8,0,0,0,.28-.2Zm0,.57a1.68,1.68,0,0,1-.21.18,1.09,1.09,0,0,1-.25.15,1.38,1.38,0,0,1-.29.12,1.48,1.48,0,0,1-.41,0,1.06,1.06,0,0,1-.8-.33,1.1,1.1,0,0,1-.32-.82,1.2,1.2,0,0,1,.16-.66,1.1,1.1,0,0,1,.47-.4,2.4,2.4,0,0,1,.74-.21c.28,0,.59-.07.92-.09v0a.41.41,0,0,0-.22-.42,1.46,1.46,0,0,0-.67-.12,1.78,1.78,0,0,0-.47.08,3.31,3.31,0,0,0-.53.18h-.1v-.88a3.71,3.71,0,0,1,.55-.12,3.94,3.94,0,0,1,.77-.07,2.32,2.32,0,0,1,1.37.32,1.11,1.11,0,0,1,.44,1V77H34.73v-.39ZM40.4,77H39l-1-1.59-.18.24V77H36.72V71.94h1.14v2.85L39,73.36H40.3L39,74.94,40.4,77ZM7.66,83.6a1.41,1.41,0,0,1-.13.64,1.36,1.36,0,0,1-.37.45,1.72,1.72,0,0,1-.6.31,3.26,3.26,0,0,1-.84.09H3.77V80.23H5.49a5.74,5.74,0,0,1,.82,0,1.8,1.8,0,0,1,.51.17.9.9,0,0,1,.39.38,1.08,1.08,0,0,1,.13.54,1.1,1.1,0,0,1-.17.63,1,1,0,0,1-.5.41v0a1.27,1.27,0,0,1,.72.39,1.09,1.09,0,0,1,.27.78Zm-1.56-2A.57.57,0,0,0,6,81.36a.37.37,0,0,0-.19-.18,1.06,1.06,0,0,0-.28-.06H5v1h.59a.51.51,0,0,0,.26-.07.32.32,0,0,0,.2-.19.61.61,0,0,0,.06-.28Zm.31,2a.61.61,0,0,0-.09-.35A.58.58,0,0,0,6,83a.78.78,0,0,0-.3-.05H5V84.2h.73a1.33,1.33,0,0,0,.37-.09.5.5,0,0,0,.24-.21.66.66,0,0,0,.08-.32Zm3.76,1.61a2.31,2.31,0,0,1-1.59-.49A1.81,1.81,0,0,1,8,83.28a2,2,0,0,1,.51-1.43A1.92,1.92,0,0,1,10,81.31a1.69,1.69,0,0,1,1.27.46,1.83,1.83,0,0,1,.42,1.3v.41H9.17a1.09,1.09,0,0,0,.11.43.78.78,0,0,0,.24.27,1,1,0,0,0,.34.15,2,2,0,0,0,.43,0,1.75,1.75,0,0,0,.4,0,1.8,1.8,0,0,0,.35-.12l.26-.14.2-.13h.12v1l-.26.1a2.06,2.06,0,0,1-.32.1,2.32,2.32,0,0,1-.38.07,3.48,3.48,0,0,1-.49,0Zm.39-2.4a.91.91,0,0,0-.17-.56A.63.63,0,0,0,9.9,82a.69.69,0,0,0-.52.2.83.83,0,0,0-.21.55Zm4.17-.28h-.09a.84.84,0,0,0-.19,0l-.28,0a1.36,1.36,0,0,0-.38.06,2.4,2.4,0,0,0-.38.12v2.45H12.26V81.43h1.15V82a1.64,1.64,0,0,1,.22-.18,1.59,1.59,0,0,1,.25-.17,1.11,1.11,0,0,1,.29-.13.89.89,0,0,1,.31-.06h.25v1.08Zm2,2.65V81.43h-1.8v.79h.66v2.53a1.4,1.4,0,0,1-.12.67.49.49,0,0,1-.45.2l-.21,0-.25-.06h-.09v.85l.37,0a4.91,4.91,0,0,0,.57,0,1.32,1.32,0,0,0,1-.35,1.24,1.24,0,0,0,.37-1Zm0-4.25H15.51V80h1.21v.89Zm2.89,3.23v-.77l-.47,0a1.59,1.59,0,0,0-.35.08.63.63,0,0,0-.23.16.49.49,0,0,0-.08.28.41.41,0,0,0,.14.36.71.71,0,0,0,.4.1.92.92,0,0,0,.31-.07,1.07,1.07,0,0,0,.28-.19Zm0,.56-.21.18a1.57,1.57,0,0,1-.25.16,1.21,1.21,0,0,1-.3.11,1.4,1.4,0,0,1-.4,0,1.1,1.1,0,0,1-.81-.33,1.12,1.12,0,0,1-.32-.82,1.2,1.2,0,0,1,.17-.66A1.07,1.07,0,0,1,18,83a2.58,2.58,0,0,1,.74-.21q.43-.06.93-.09v0a.44.44,0,0,0-.23-.42,1.41,1.41,0,0,0-.66-.12,1.71,1.71,0,0,0-.47.08,4.72,4.72,0,0,0-.53.18h-.1V81.5a5.09,5.09,0,0,1,.55-.12,4.88,4.88,0,0,1,.76-.07,2.38,2.38,0,0,1,1.38.32,1.1,1.1,0,0,1,.43,1v2.5H19.61V84.7ZM24,83.23a1.42,1.42,0,0,0-.16-.78.6.6,0,0,0-.52-.23.79.79,0,0,0-.3,0,1.35,1.35,0,0,0-.3.14v1.84a.86.86,0,0,0,.23.06l.23,0a.73.73,0,0,0,.62-.27,1.45,1.45,0,0,0,.2-.83Zm1.17,0a2.21,2.21,0,0,1-.44,1.42,1.39,1.39,0,0,1-1.1.54,1.62,1.62,0,0,1-.48-.07,1.77,1.77,0,0,1-.43-.19l0,.18h-1.1V80h1.15v1.8a3.1,3.1,0,0,1,.51-.35,1.33,1.33,0,0,1,.61-.13,1.11,1.11,0,0,1,1,.5,2.31,2.31,0,0,1,.35,1.38Zm2.65.93v-.77l-.47,0a1.47,1.47,0,0,0-.35.08.56.56,0,0,0-.23.16.49.49,0,0,0-.08.28c0,.18,0,.3.14.36a.71.71,0,0,0,.4.1.92.92,0,0,0,.31-.07,1.26,1.26,0,0,0,.28-.19Zm0,.56-.21.18a2.22,2.22,0,0,1-.25.16,1.21,1.21,0,0,1-.3.11,1.4,1.4,0,0,1-.4,0,1.09,1.09,0,0,1-.81-.33,1.12,1.12,0,0,1-.32-.82,1.2,1.2,0,0,1,.17-.66,1.07,1.07,0,0,1,.46-.4,2.58,2.58,0,0,1,.74-.21q.43-.06.93-.09v0a.44.44,0,0,0-.23-.42,1.44,1.44,0,0,0-.66-.12,1.84,1.84,0,0,0-.48.08,4.56,4.56,0,0,0-.52.18h-.1V81.5a5.09,5.09,0,0,1,.55-.12,4.88,4.88,0,0,1,.76-.07,2.38,2.38,0,0,1,1.38.32,1.1,1.1,0,0,1,.43,1v2.5H27.84V84.7Zm3.39.47a1.49,1.49,0,0,1-1-.29,1.19,1.19,0,0,1-.32-.94V82.22h-.44v-.79h.44V80.38H31v1.05h1.1v.79H31v1.64a.71.71,0,0,0,.06.26.31.31,0,0,0,.16.18.64.64,0,0,0,.34.07.85.85,0,0,0,.24,0l.21-.07h.09v.8l-.39.08a3.74,3.74,0,0,1-.52,0Zm4.33-.08V81.16H34.13v-.93h4.1v.93H36.79v3.93Zm5.12-1v-.77l-.47,0a1.37,1.37,0,0,0-.35.08.5.5,0,0,0-.23.16.42.42,0,0,0-.08.28.4.4,0,0,0,.13.36.75.75,0,0,0,.41.1.82.82,0,0,0,.3-.07,1.12,1.12,0,0,0,.29-.19Zm0,.56-.21.18-.25.16a1.38,1.38,0,0,1-.3.11,1.48,1.48,0,0,1-.41,0,1.06,1.06,0,0,1-.8-.33,1.12,1.12,0,0,1-.32-.82,1.2,1.2,0,0,1,.16-.66A1.16,1.16,0,0,1,39,83a2.49,2.49,0,0,1,.74-.21c.28,0,.59-.07.92-.09v0a.43.43,0,0,0-.22-.42,1.46,1.46,0,0,0-.67-.12,1.84,1.84,0,0,0-.47.08,4.72,4.72,0,0,0-.53.18H38.7V81.5a4.78,4.78,0,0,1,.54-.12,5,5,0,0,1,.77-.07,2.38,2.38,0,0,1,1.38.32,1.1,1.1,0,0,1,.43,1v2.5H40.68V84.7Zm5.42.39H45V83.28c0-.15,0-.3,0-.45a1.42,1.42,0,0,0-.07-.32.42.42,0,0,0-.17-.18.67.67,0,0,0-.3,0,.74.74,0,0,0-.29,0,1.21,1.21,0,0,0-.31.17v2.59H42.66V81.43H43.8v.4a2.79,2.79,0,0,1,.55-.37,1.28,1.28,0,0,1,.59-.13,1.09,1.09,0,0,1,.86.35,1.56,1.56,0,0,1,.3,1v2.38Zm3-1.16V82.27a.73.73,0,0,0-.21-.07l-.25,0a.76.76,0,0,0-.62.26,1.19,1.19,0,0,0-.21.75,2.25,2.25,0,0,0,0,.4.84.84,0,0,0,.12.29.5.5,0,0,0,.22.19.78.78,0,0,0,.34.07.8.8,0,0,0,.3-.06.85.85,0,0,0,.28-.15Zm1.15.74a2.17,2.17,0,0,1-.15.86,1.32,1.32,0,0,1-.4.56,1.69,1.69,0,0,1-.62.29,3.18,3.18,0,0,1-.79.09,5.09,5.09,0,0,1-.69,0c-.22,0-.41-.07-.58-.11v-.92h.14l.2.08.23.07.28.06.28,0a1.65,1.65,0,0,0,.48-.06.72.72,0,0,0,.3-.17.62.62,0,0,0,.13-.27,1.41,1.41,0,0,0,0-.39v-.07a1.44,1.44,0,0,1-.44.28,1.61,1.61,0,0,1-.53.1,1.39,1.39,0,0,1-1.1-.46,2.16,2.16,0,0,1-.39-1.41,2.37,2.37,0,0,1,.12-.78,1.68,1.68,0,0,1,.34-.58,1.39,1.39,0,0,1,.49-.36,1.53,1.53,0,0,1,.6-.12,1.59,1.59,0,0,1,.5.07,1.92,1.92,0,0,1,.41.19l0-.16h1.11v3.24Zm2.89-.53v-.77l-.47,0a1.47,1.47,0,0,0-.35.08.56.56,0,0,0-.23.16.49.49,0,0,0-.08.28c0,.18,0,.3.14.36a.71.71,0,0,0,.4.1.92.92,0,0,0,.31-.07,1.26,1.26,0,0,0,.28-.19Zm0,.56-.21.18a2.22,2.22,0,0,1-.25.16,1.21,1.21,0,0,1-.3.11,1.4,1.4,0,0,1-.4,0,1.09,1.09,0,0,1-.81-.33,1.12,1.12,0,0,1-.32-.82,1.29,1.29,0,0,1,.16-.66,1.16,1.16,0,0,1,.47-.4,2.49,2.49,0,0,1,.74-.21c.29,0,.6-.07.92-.09v0a.43.43,0,0,0-.22-.42,1.46,1.46,0,0,0-.67-.12,1.84,1.84,0,0,0-.47.08,4.56,4.56,0,0,0-.52.18h-.1V81.5a4.58,4.58,0,0,1,.55-.12,4.77,4.77,0,0,1,.76-.07,2.38,2.38,0,0,1,1.38.32,1.1,1.1,0,0,1,.43,1v2.5H53.17V84.7Zm5.42.39H57.45V83.28c0-.15,0-.3,0-.45a1,1,0,0,0-.07-.32.42.42,0,0,0-.17-.18.65.65,0,0,0-.3,0,.77.77,0,0,0-.29,0,1,1,0,0,0-.3.17v2.59H55.15V81.43H56.3v.4a2.74,2.74,0,0,1,.54-.37,1.31,1.31,0,0,1,.59-.13,1.07,1.07,0,0,1,.86.35,1.56,1.56,0,0,1,.3,1Z"/><path class="cls-2" d="M62.36,31.18A31.18,31.18,0,1,1,31.18,0,31.18,31.18,0,0,1,62.36,31.18Z"/><path class="cls-3" d="M32.1,43.28a6.06,6.06,0,0,1-2.61-.73c-1.5,1.66-3.54.22-3.42-.45-2.43-.37-4.15-3-6.28-5.09a7.12,7.12,0,0,1-1.74-2l-7.87-.94a21,21,0,0,1-.47-4.45,21.55,21.55,0,0,1,1.91-8.87l7.78,1.79a3.48,3.48,0,0,0,.79.09A3.52,3.52,0,0,0,22,22.17c2.61-1.53,5.92-3.36,6.87-3.36h.08a21.72,21.72,0,0,1,5,1.45c.65.44,8.19,9.64,9,10.68v0l1.47,2.93.33.67c0,.11.56,2.1-2.22,3.74l-.48.27a4.63,4.63,0,0,1-.15.44,3.36,3.36,0,0,1-2.44,2.23,3.45,3.45,0,0,1-.57,0,3.63,3.63,0,0,1-.64-.06,2.67,2.67,0,0,1-.12.24,2.79,2.79,0,0,1-2.27,1.33h-.33a5.49,5.49,0,0,1-1.49-.22l-.14,0A2.33,2.33,0,0,1,32.1,43.28Z"/><path class="cls-4" d="M42.32,38.15h-.53a3.59,3.59,0,0,1-.15.48v0h0v0h0v0h0v0h0v0h0v0h0l0,0h0v0h0v0h0v0h0v0h0v0h0l0,0h0l0,0h0l0,0h0l0,0h0l0,0h0v0l0,0h0v0a.56.56,0,0,0,0,.08h0l0,0h0l0,0h0l0,0v0h0v0l0,0,0,0h0l0,0h0l0,0h0l0,0h0l0,0v0l0,0,0,0h0l0,0,0,0h0l0,0h0l0,0h0l-.07.08,0,0h0l0,0,0,0h0l0,0h0l0,0h0l0,0h0l0,0h0l0,0h0l0,0h0l0,0h0l0,0h0l-.05,0h0l0,0-.09,0h0a2.88,2.88,0,0,1-.7.23l-.26,0H38.8a4.2,4.2,0,0,1-.67-.08,2,2,0,0,1-.15.33A2.55,2.55,0,0,1,35.9,42.5h-.32l-.31,0H35a5.51,5.51,0,0,1-.88-.18l-.21-.06s-1,1.58-4,.11a3.58,3.58,0,0,0,0-3h0a.83.83,0,0,1,.5.47,2.58,2.58,0,0,1,.17.69,2.62,2.62,0,0,0,.37,1,1.15,1.15,0,0,0,.78.5,1.43,1.43,0,0,0,.91-.15c.43-.37-.5-.78-.71-1a6.17,6.17,0,0,1-.54-.48,3.87,3.87,0,0,0-.47-.52c.55.34,1.11.66,1.67,1a3.82,3.82,0,0,0,1.65.62,5.7,5.7,0,0,0,1.65,0A2,2,0,0,0,37,40.84l0-.06a15.37,15.37,0,0,1-4.81-3.53,2.9,2.9,0,0,0,.66.4l.7.4c.5.29,1,.56,1.52.81s1,.62,1.5.84a3.22,3.22,0,0,0,1,.19h0c.35,0,.7,0,1.08-.07H39l.11,0h.15l.11,0h.07l0,0h.36l0,0h0l.07,0h0l0,0h0l0,0h0l.07,0h0l0,0h0l.07,0,0,0h0l0,0h0l0,0h0l0,0h0l0,0h0v0h.07l0,0h0l0,0h0l0,0h0l0,0h0l0,0h0l0,0h0l0,0h0l0,0h0l0,0,.18-.2c-.54-.27-1.06-.56-1.59-.85a16.39,16.39,0,0,1-5.13-3.69c.64.28,1.25.69,1.86,1l1.54.86c.49.27,1,.48,1.5.76a3.87,3.87,0,0,0,1.46.55h.71l0,0H42l0,0h0l0,0h.08a2.21,2.21,0,0,1,.29-.22c.49-.3,1.44-.81.91-1.5a1.85,1.85,0,0,0-.79-.52,22.19,22.19,0,0,1-3-2.22c1.63.4.85.65,4.85,2.26a1.36,1.36,0,0,1,.11.63A3.41,3.41,0,0,1,43,37.71h-.65Z"/><path class="cls-1" d="M42.44,38.87c0,.1-.07.2-.1.3a3.75,3.75,0,0,1-2.77,2.5,3.49,3.49,0,0,1-.65.06l-.4,0a3.24,3.24,0,0,1-2.59,1.52l-.37,0a6.38,6.38,0,0,1-1.5-.21,2.9,2.9,0,0,1-2,.68,5.8,5.8,0,0,1-2.34-.57,2,2,0,0,1-1.5.84h-.09a3.72,3.72,0,0,1-1.55-.5,1.78,1.78,0,0,1-.89-1,1.14,1.14,0,0,1-.07-.32,1.45,1.45,0,0,1-.51.11H25a3,3,0,0,1-1.52-.46,2.79,2.79,0,0,1-1.25-1.5,1.51,1.51,0,0,1-.05-.47h-.12a1.25,1.25,0,0,1-.85-.32l-.77-.68a2.09,2.09,0,0,1-.69-1.49l-.24-.32h0a1.59,1.59,0,0,1-.87-.27,2.48,2.48,0,0,1-.83-1,2.35,2.35,0,0,1-.14-.37l-7.48-.89a.26.26,0,0,1-.23-.21c0-.11,0-.23-.08-.34a.27.27,0,0,1,.07-.24.25.25,0,0,1,.23-.09l7.56.9.13-.19,0,0v0l0,0a7.76,7.76,0,0,1,1.18-1.38l.05,0a2.35,2.35,0,0,1,1.37-.74h.1a2.12,2.12,0,0,1,.81.18l.19.09a.22.22,0,0,1,.09.07,2.34,2.34,0,0,1,.45.37,1.51,1.51,0,0,1,.4.83h0l.26-.27A2.13,2.13,0,0,1,24,32.77l.37,0a2.13,2.13,0,0,1,1.3.44l.08.07.27.23a1.51,1.51,0,0,1,.5.9s0,.09,0,.13a2.36,2.36,0,0,1,.78-.24h.23l.31,0a1.85,1.85,0,0,1,1.31.93l0,0a3,3,0,0,1,.33,1.62,3.82,3.82,0,0,1-.12.69,2.75,2.75,0,0,1-.39.74h0a2,2,0,0,1,1,.28l.16.1.07.06,0,0a1.92,1.92,0,0,1,.67,1.12,3.93,3.93,0,0,1,.06.48,3.82,3.82,0,0,1-.69,2.06,4.83,4.83,0,0,0,1.82.42,2,2,0,0,0,1.54-.63A.28.28,0,0,1,34,42.1l.21.06a5.1,5.1,0,0,0,1.4.21h.3a2.34,2.34,0,0,0,1.92-1.12.84.84,0,0,0,.13-.27.27.27,0,0,1,.32-.19,3.25,3.25,0,0,0,.69.08,2.63,2.63,0,0,0,.49,0,2.85,2.85,0,0,0,2.11-2,2.54,2.54,0,0,0,.15-.44.27.27,0,0,1,.14-.2,5.36,5.36,0,0,0,.53-.28,4.1,4.1,0,0,0,2-2.18,2.23,2.23,0,0,0,.08-1l-.32-.64-1.44-2.89q-2.2-2.69-4.43-5.36c-1-1.17-1.95-2.33-2.95-3.49a16.1,16.1,0,0,0-1.56-1.71,20.43,20.43,0,0,0-4.79-1.38h-.05c-1,0-5.56,2.66-6.63,3.3a4,4,0,0,1-2,.55A3.8,3.8,0,0,1,19.3,23L11.5,21.2a.28.28,0,0,1-.19-.14.29.29,0,0,1,0-.24c0-.1.09-.2.14-.3a.26.26,0,0,1,.31-.15l7.73,1.78a3.33,3.33,0,0,0,.7.07,3.09,3.09,0,0,0,1.57-.43c1.18-.69,5.76-3.42,7.09-3.42H29a20.51,20.51,0,0,1,5.19,1.52,15.62,15.62,0,0,1,1.73,1.88c1,1.19,2,2.39,3.05,3.6q2.19,2.64,4.36,5.29l0,0,0,0,1.47,3,.34.69,0,0v0A2.9,2.9,0,0,1,45.15,36a4.89,4.89,0,0,1-2.36,2.72l-.35.19ZM19.58,36.36l.19,0a1.27,1.27,0,0,0,.55-.33l.06,0a7,7,0,0,0,.9-1l.25-.31a1.23,1.23,0,0,0,.31-.6.55.55,0,0,0,0-.22.88.88,0,0,0-.25-.51,2,2,0,0,0-.34-.27.26.26,0,0,0-.09,0h0l-.08,0a1.29,1.29,0,0,0-.54-.12H20.5a1.78,1.78,0,0,0-1,.54l-.05,0a5.86,5.86,0,0,0-1,1.14l0,0,0,0a.47.47,0,0,0-.14.38,1.25,1.25,0,0,0,.12.46,1.84,1.84,0,0,0,.59.72,1,1,0,0,0,.53.17ZM30,40.94h0a1.76,1.76,0,0,0,.07-.56,1.71,1.71,0,0,0,0-.31,1,1,0,0,0-.36-.61.91.91,0,0,0-.16-.11l0,0a1.07,1.07,0,0,0-.51-.15.76.76,0,0,0-.21,0h0l-.15.06h-.05a2.43,2.43,0,0,0-1,.85,7.88,7.88,0,0,0-.7,1l0,0a1.31,1.31,0,0,0-.25.67.65.65,0,0,0,0,.39,1,1,0,0,0,.48.47,2.85,2.85,0,0,0,1.19.4h.05a.94.94,0,0,0,.64-.33,3.56,3.56,0,0,0,.57-.67A3.08,3.08,0,0,0,30,40.94Zm-9.35-3.81h0a1.35,1.35,0,0,0,.45,1.07l.64.57a.75.75,0,0,0,.48.18.7.7,0,0,0,.55-.27l2.61-3.23a1,1,0,0,0,.2-.63.64.64,0,0,0,0-.31.63.63,0,0,0-.21-.38l-.26-.23-.07,0a1.18,1.18,0,0,0-.75-.26l-.21,0-.26.07a1.46,1.46,0,0,0-.73.4l-2.08,2.15a1.16,1.16,0,0,0-.24.34,1.33,1.33,0,0,0-.14.48s0,0,0,.06Zm7.9.07a2.38,2.38,0,0,0,.06-.37,2.28,2.28,0,0,0-.22-1.15l0,0a1,1,0,0,0-.7-.51h-.31a1.39,1.39,0,0,0-.44.13,1.58,1.58,0,0,0-.79.46L23.5,38.67h0a1.69,1.69,0,0,0-.32.55,1.34,1.34,0,0,0,0,.74c.33,1.24,2.05,2.26,3.14.68.24-.35.5-.7.75-1l.1-.14.4-.52c.12-.14.23-.28.34-.43l.13-.16a2.56,2.56,0,0,0,.49-.79A2,2,0,0,0,28.57,37.2Z"/><path class="cls-3" d="M44.2,34.6a36.91,36.91,0,0,1-5-2.93A25.73,25.73,0,0,1,36,29a19.37,19.37,0,0,1-1.42-1.62c-.3-.37-.6-.75-.92-1.1a1.52,1.52,0,0,1-.17-.25l-.14-.21h-.2a3.94,3.94,0,0,0-.58.06l-.31.05L30.86,26h-.08c-.45,0-.66.27-.93.61l-.31.35a4.09,4.09,0,0,1-1.67,1.16,4.72,4.72,0,0,1-1.18.21h-.24a3.56,3.56,0,0,1-2.53-.88l0,0c-.21-.18-.07-.56,0-.77l0,0,.09-.24.12-.26a7,7,0,0,1,.43-.76,13.49,13.49,0,0,1,1.52-2,6.38,6.38,0,0,1,.46-.45,10,10,0,0,1,2.5-1.7,15,15,0,0,1,2.9-.91L33,20l.26-.07a17.65,17.65,0,0,1,1.94-.45l.24,0c1.5,0,4,1.94,5.32,3l.55.42a2.84,2.84,0,0,0,1.68.5,2.87,2.87,0,0,0,.51,0L50.8,21a21.34,21.34,0,0,1,1.8,8.61h0a21.84,21.84,0,0,1-.25,3.26L44.62,34.8Z"/><path class="cls-1" d="M44.67,34.34l7.64-1.87a.29.29,0,0,1,.34.31l-.06.35a.27.27,0,0,1-.2.22l-7.61,1.86-.12,0a.28.28,0,0,1-.18,0L44,35a36.34,36.34,0,0,1-5-3,27.13,27.13,0,0,1-3.31-2.75c-.52-.52-1-1.09-1.45-1.66-.3-.36-.59-.73-.91-1.08a2.11,2.11,0,0,1-.21-.31l0,0-.46.06-.36,0-1.36.08h-.08c-.3,0-.45.24-.63.46s-.21.25-.32.37A4.61,4.61,0,0,1,28,28.51a5.13,5.13,0,0,1-1.29.22h-.26a4,4,0,0,1-2.82-1l0,0c-.4-.34-.27-.83-.12-1.25l0,0a2,2,0,0,1,.1-.26,2.39,2.39,0,0,1,.13-.28,6.48,6.48,0,0,1,.46-.81,12.8,12.8,0,0,1,1.57-2c.15-.16.31-.32.47-.47a10.28,10.28,0,0,1,2.61-1.77,15,15,0,0,1,3-.94l1-.25.26-.07a16.72,16.72,0,0,1,2-.46,1.63,1.63,0,0,1,.31,0c1.68,0,4.27,2.06,5.59,3.08.18.14.36.29.54.42A2.38,2.38,0,0,0,43,23l.41,0,7.29-2.3a.27.27,0,0,1,.33.15c.05.1.09.2.14.31a.28.28,0,0,1-.17.36l-7.37,2.33h0a3.9,3.9,0,0,1-.59,0A3.21,3.21,0,0,1,41,23.25c-1.25-.92-4-3.33-5.61-3.33l-.17,0a20.5,20.5,0,0,0-2.16.51,22.51,22.51,0,0,0-3.86,1.14,9.88,9.88,0,0,0-2.36,1.59,5.27,5.27,0,0,1,.68.71,1.18,1.18,0,0,1,.2,1.06,3.05,3.05,0,0,1-1.7,2,2.73,2.73,0,0,1-1.2.3h-.09a1.72,1.72,0,0,1-.48-.1,3.11,3.11,0,0,0,2.19.74h.22a4,4,0,0,0,1.07-.19,3.77,3.77,0,0,0,1.49-1c.49-.52.71-1.05,1.52-1.1l1.45-.09c.31,0,.59-.11.92-.11a1.33,1.33,0,0,1,.28,0,.59.59,0,0,1,.16.07c.16.1.27.39.39.53.8.88,1.48,1.86,2.33,2.7a24.59,24.59,0,0,0,3.19,2.66,36.32,36.32,0,0,0,4.93,2.89l.27.13ZM27.11,25a.72.72,0,0,0-.12-.63c0-.08-.65-.73-.71-.67L26,24a9.74,9.74,0,0,0-1.13,1.51c-.11.18-.22.37-.32.57l-.09.19c-.11.28.34.37.52.38a2.15,2.15,0,0,0,.93-.22A2.25,2.25,0,0,0,27.11,25Z"/><path class="cls-1" d="M24.31,35.81h0a1.08,1.08,0,0,1-.85-.48,1.35,1.35,0,0,1-.24-.58.81.81,0,0,1,.1-.56A5.1,5.1,0,0,1,24,33.3h0a1.62,1.62,0,0,1,1.32.36l.27.23a1,1,0,0,1,.33.6v0l0,0c-.19.26-.36.47-.52.65A1.57,1.57,0,0,1,24.31,35.81Z"/><path class="cls-1" d="M27.32,38h0a1.25,1.25,0,0,1-1-.55,1.64,1.64,0,0,1-.27-.67,1,1,0,0,1,.12-.65A6.48,6.48,0,0,1,27.08,35l.21-.22,0,0h0a1.08,1.08,0,0,1,.4,0,1.28,1.28,0,0,1,.94.67A2.41,2.41,0,0,1,29,36.85v0l0,0a4.26,4.26,0,0,1-.32.38A1.79,1.79,0,0,1,27.32,38Z"/><path class="cls-1" d="M20.73,34.7h-.05a.86.86,0,0,1-.68-.42.93.93,0,0,1-.17-.48.61.61,0,0,1,.1-.46,3.68,3.68,0,0,1,.59-.67l0,0h.09a1.39,1.39,0,0,1,.77.23,2.3,2.3,0,0,1,.39.31,1,1,0,0,1,.27.54v0l0,0c-.14.17-.27.32-.4.45A1.27,1.27,0,0,1,20.73,34.7Z"/><path class="cls-1" d="M29,41.3a1,1,0,0,1-.75-.36,1.26,1.26,0,0,1-.27-.51.63.63,0,0,1,0-.52,5.33,5.33,0,0,1,.64-1l.05-.06h0a1.41,1.41,0,0,1,1.22.32,1.37,1.37,0,0,1,.48.82v0l0,0c-.14.23-.25.4-.36.55a1.39,1.39,0,0,1-1,.69ZM30,40a1,1,0,0,0-1.13-.76,3.69,3.69,0,0,0-.48.71.46.46,0,0,0,0,.33.72.72,0,0,0,.18.33.62.62,0,0,0,.53.24,1,1,0,0,0,.67-.46C29.82,40.29,29.9,40.16,30,40Z"/><path class="cls-3" d="M25.51,34.5a5.07,5.07,0,0,1-.36.45,1.07,1.07,0,0,1-.77.43.74.74,0,0,1-.56-.32.84.84,0,0,1-.15-.38.45.45,0,0,1,.06-.36,3.24,3.24,0,0,1,.5-.62,1.07,1.07,0,0,1,.88.25l.19.16A.63.63,0,0,1,25.51,34.5Z"/><path class="cls-3" d="M28.49,36.72a2.75,2.75,0,0,1-.22.26,1.21,1.21,0,0,1-.9.5.82.82,0,0,1-.65-.37.9.9,0,0,1-.18-.45.54.54,0,0,1,.07-.41,5,5,0,0,1,.79-.93h.27a.9.9,0,0,1,.63.45A1.71,1.71,0,0,1,28.49,36.72Z"/><path class="cls-3" d="M21.67,33.7c-.09.11-.18.22-.27.31a.84.84,0,0,1-.64.32.58.58,0,0,1-.44-.27.68.68,0,0,1-.11-.31.42.42,0,0,1,.06-.29,3,3,0,0,1,.41-.47h0a1,1,0,0,1,.52.16,1.64,1.64,0,0,1,.26.2A.61.61,0,0,1,21.67,33.7Z"/><path class="cls-3" d="M30,40c-.08.13-.16.26-.25.39a1,1,0,0,1-.67.46.62.62,0,0,1-.53-.24.72.72,0,0,1-.18-.33.46.46,0,0,1,0-.33,3.69,3.69,0,0,1,.48-.71A1,1,0,0,1,30,40Z"/><path class="cls-5" d="M11.6,20.84c-2,4-2.08,8.42-1.44,13.17"/><path class="cls-5" d="M50.83,21.11a24.17,24.17,0,0,1,1.73,11.65"/><path class="cls-1" d="M14,9.64h0a.89.89,0,0,1,1.24.14l33.36,41.7a.88.88,0,0,1-.14,1.24h0a.88.88,0,0,1-1.24-.14L13.81,10.88A.89.89,0,0,1,14,9.64Z"/></g></g></svg>