<svg xmlns="http://www.w3.org/2000/svg" viewBox="0 0 148.04 158.22"><defs><style>.cls-1{fill:#57423b;}.cls-1,.cls-2{fill-rule:evenodd;}.cls-2{fill:#c3967b;}</style></defs><g id="Layer_2" data-name="Layer 2"><g id="Layer_1-2" data-name="Layer 1"><path class="cls-1" d="M44,50.12a.48.48,0,0,1,.09.4.42.42,0,0,1-.26.26,2.48,2.48,0,0,0-1.58-.84,2.73,2.73,0,0,0-1.58.45,8.08,8.08,0,0,0-2.54,3.2,27.69,27.69,0,0,0-1.88,4.86,24.22,24.22,0,0,0-1,6c0,1.82.43,2.72,1.28,2.72.37,0,.84-.61,1.39-1.84s1.11-2.69,1.66-4.3q1.06-3,1.84-5.78l.88-3.12c.18-.43.74-.73,1.71-.87a2.4,2.4,0,0,1,2.1.3.57.57,0,0,1,.22.35.7.7,0,0,1,0,.44c-.2-.06-.48.71-.83,2.28s-.69,3.35-1,5.4c-.26,1.6-.49,3.23-.69,4.86s-.38,2.94-.44,4a9.51,9.51,0,0,0,0,1.32c0,.32.09.49.17.52.44.06,1.08-.59,1.93-2s1.74-2.94,2.58-4.61c.71-1.36,1.35-2.66,1.93-3.9s1-2,1.18-2.45a1.81,1.81,0,0,1,.66-.05,1.69,1.69,0,0,1,.7.27c-.2.38-.59,1.22-1.18,2.54s-1.23,2.72-2,4.21a51.81,51.81,0,0,1-3,5.09q-1.53,2.19-2.67,2.19h-.13a2.79,2.79,0,0,1-1.67-.75A3.78,3.78,0,0,1,41,69.76,7.45,7.45,0,0,1,40.65,68a14.48,14.48,0,0,1,0-2A31,31,0,0,1,41,62.31c.18-1.14.33-2.09.44-2.85-.08.32-.22.79-.39,1.4s-.47,1.48-.79,2.33c-.5,1.25-1,2.45-1.62,3.58s-1.19,1.75-1.75,1.81a7.46,7.46,0,0,1-4.36-.92A4,4,0,0,1,30.42,64v-.48a18.24,18.24,0,0,1,1-5.87A20.51,20.51,0,0,1,34,52.54a13.52,13.52,0,0,1,1.71-2,8,8,0,0,1,1.7-1.28,3.85,3.85,0,0,1,1-.35,9,9,0,0,1,1.28-.18h.53a7.83,7.83,0,0,1,2,.27A3.09,3.09,0,0,1,44,50.12ZM54,48a1.62,1.62,0,0,0-.4-.05,4.27,4.27,0,0,0-1.05.14,2.22,2.22,0,0,0-1.13,1c.52.41.66,1.52.39,3.33s-.56,3.83-.87,6.14c-.18,1.26-.31,2.54-.4,3.86-.06.62-.09,1.23-.09,1.85s0,1.33.09,2c.65,1.32,1.4,1.83,2.28,1.53a6,6,0,0,0,2.44-1.62,7.28,7.28,0,0,0,.31-1.84c.09-.94.16-2,.22-3.16,0-.61.06-1.24.09-1.88s0-1.25.05-1.81.39-1.09.65-1.7.56-1.17.88-1.76A17,17,0,0,1,59.42,51c.67-.84,1.25-1.25,1.75-1.22.29,0,.27,1-.05,3s-.55,4.22-.78,6.7a47,47,0,0,0-.17,5,13.26,13.26,0,0,0,.61,4.26,5.48,5.48,0,0,0,1,1.88,3,3,0,0,0,1.62,1,2.8,2.8,0,0,0,.48,0,4,4,0,0,0,2.89-1.84A33.33,33.33,0,0,0,70.11,65c.64-1.2,1.23-2.35,1.75-3.46S72.75,59.6,73,59a.94.94,0,0,0-.74-.31,1.49,1.49,0,0,0-.7.18c-.26.58-.66,1.37-1.18,2.36s-1,2-1.63,3.11A47.39,47.39,0,0,1,66,68.71c-.93,1.31-1.69,1.88-2.28,1.7-.23,0-.3-.7-.21-1.92s.23-2.72.43-4.47c.09-1,.18-1.95.26-3s.17-2,.23-3.07a31.54,31.54,0,0,0-.26-6.31c-.3-1.87-1.06-2.84-2.28-2.93a2.62,2.62,0,0,0-1.45.35,6,6,0,0,0-1.4,1A11.92,11.92,0,0,0,57,53a14.36,14.36,0,0,0-1.15,2.72c-.06-1.14-.1-2.28-.13-3.41a11.22,11.22,0,0,0-.4-2.94,2.91,2.91,0,0,0-.48-1A1,1,0,0,0,54,48Zm18.06,3.4A2.24,2.24,0,0,1,73.58,50a3.47,3.47,0,0,1,1.1-.21,1.7,1.7,0,0,1,.87.21,1.67,1.67,0,0,1,.44.44,1.44,1.44,0,0,1,.13.66c0,.14-.18,1-.44,2.71s-.49,3.56-.7,5.66c-.21,1.66-.35,3.31-.44,4.95a25.6,25.6,0,0,0,0,4,5.24,5.24,0,0,0,.21,1.36c.12.32.28.5.49.53.46,0,1.26-.72,2.36-2.24s2.19-3.14,3.25-4.86l1.84-3.15c.55-1,.92-1.64,1.09-2a1.19,1.19,0,0,1,.7-.13,1.3,1.3,0,0,1,.66.35c-.09.2-.23.51-.44.92s-.45.88-.74,1.4c-.56,1-1.21,2.09-2,3.37a40.72,40.72,0,0,1-2.36,3.6,26.4,26.4,0,0,1-2.45,2.93,3.18,3.18,0,0,1-2,1.1H75a4.13,4.13,0,0,1-2.5-1,5.23,5.23,0,0,1-1.35-2.23,11.55,11.55,0,0,1-.48-3.24v-.49a28.92,28.92,0,0,1,.17-3.19,59,59,0,0,1,1-6.53c.41-2,.48-3.21.22-3.59Zm.34-8.62a.8.8,0,0,1-.05-.23,2.28,2.28,0,0,1,.7-1.48,2.32,2.32,0,0,1,1.8-.92,1.48,1.48,0,0,0,1.05,1,1.09,1.09,0,0,1,.92,1.09v.14a3.36,3.36,0,0,1-.44,1.53,1.63,1.63,0,0,1-1.36,1,.75.75,0,0,1-.26,0,2,2,0,0,1-1.49-.7,2.73,2.73,0,0,1-.87-1.44Zm16.68,9.44a4.49,4.49,0,0,0-.48-1.84,4.13,4.13,0,0,0-1-1.19,3.43,3.43,0,0,0-1.89-.57,2.94,2.94,0,0,0-.88.14,4.77,4.77,0,0,0-2.62,1.4,3.42,3.42,0,0,0-.92,1.36,3.34,3.34,0,0,0-.27,1.36v.26a5.63,5.63,0,0,0,.7,2.32,10.51,10.51,0,0,0,1.5,2.15,39.67,39.67,0,0,0,3.49,3.6A6.93,6.93,0,0,1,89,64.46a6.52,6.52,0,0,1,.14.83l-.84.65c-.64.54-1.24,1.06-1.79,1.58a12,12,0,0,0-2.24,2.81,1.84,1.84,0,0,0,.26,2.37,3.77,3.77,0,0,0,2.68,1.09h.26a6.26,6.26,0,0,0,3.2-1.13,8,8,0,0,0,1.58-1.32,10.54,10.54,0,0,0,1.23-1.75A8.76,8.76,0,0,0,94.41,67a7.63,7.63,0,0,0,0-2.94,8.25,8.25,0,0,0-.22-.92,20.75,20.75,0,0,0,2.37-1.79A12.3,12.3,0,0,0,98,59.94a6.55,6.55,0,0,0,1.06-1.76,1.16,1.16,0,0,0-.66-.26,2.22,2.22,0,0,0-.7.14,8.58,8.58,0,0,1-3.42,3.55,6.16,6.16,0,0,0-.57.35,5.1,5.1,0,0,0-.52-.88A11.43,11.43,0,0,0,91,58.89a28.31,28.31,0,0,0-3.11-2.1,16.85,16.85,0,0,1-2.76-1.93,7,7,0,0,1-1-1.19,3.08,3.08,0,0,1-.49-1.32,2.87,2.87,0,0,1,.83-2.58c.68-.56,1.27-.59,1.81-.09a2.22,2.22,0,0,1,.56,1,5.31,5.31,0,0,1,.22,1.7c.17.44.52.59,1,.44a1.37,1.37,0,0,0,.92-.61ZM87.75,68.31a17.52,17.52,0,0,0-2.23,2.37,3.34,3.34,0,0,0-.53,1,.52.52,0,0,0,.14.61c.37.36.9.21,1.57-.43A8.72,8.72,0,0,0,89,67.17l-1.23,1.14Zm22.57-18.19a.48.48,0,0,1,.09.4.42.42,0,0,1-.26.26,2.53,2.53,0,0,0-1.58-.84,2.71,2.71,0,0,0-1.58.45,8,8,0,0,0-2.54,3.2,28.52,28.52,0,0,0-1.89,4.86,24.18,24.18,0,0,0-1,6c0,1.82.43,2.72,1.27,2.72.37,0,.85-.61,1.4-1.84s1.11-2.69,1.66-4.3q1-3,1.84-5.78l.88-3.12c.17-.43.74-.73,1.7-.87a2.43,2.43,0,0,1,2.11.3.62.62,0,0,1,.22.35.77.77,0,0,1,0,.44c-.2-.06-.48.71-.83,2.28s-.69,3.35-1,5.4c-.26,1.6-.5,3.23-.7,4.86s-.38,2.94-.44,4a9.51,9.51,0,0,0,0,1.32c0,.32.09.49.17.52.44.06,1.09-.59,1.93-2s1.74-2.94,2.59-4.61c.7-1.36,1.34-2.66,1.93-3.9s1-2,1.18-2.45a1.79,1.79,0,0,1,.66-.05,1.75,1.75,0,0,1,.7.27c-.21.38-.6,1.22-1.19,2.54s-1.23,2.72-2,4.21a51.81,51.81,0,0,1-3,5.09c-1,1.46-1.91,2.19-2.68,2.19h-.12a2.76,2.76,0,0,1-1.67-.75,3.68,3.68,0,0,1-.92-1.58,7.45,7.45,0,0,1-.35-1.74,14.47,14.47,0,0,1,0-2,31,31,0,0,1,.4-3.73c.17-1.14.32-2.09.43-2.85-.08.32-.21.79-.39,1.4s-.47,1.48-.79,2.33a39.13,39.13,0,0,1-1.61,3.58c-.62,1.15-1.2,1.75-1.75,1.81a7.51,7.51,0,0,1-4.37-.92A4,4,0,0,1,96.71,64v-.48a18,18,0,0,1,1-5.87,20.51,20.51,0,0,1,2.58-5.13,14.12,14.12,0,0,1,1.7-2,7.76,7.76,0,0,1,1.71-1.28,3.7,3.7,0,0,1,1-.35,8.83,8.83,0,0,1,1.27-.18h.53a7.72,7.72,0,0,1,2,.27A3.08,3.08,0,0,1,110.32,50.12Z"/><path class="cls-1" d="M82.29,77.49c.29,0,.69,0,1.17,0l1.24,0a.62.62,0,0,1,.23.25c.07.1,0,.16-.13.17l-.53,0h-.63a8.6,8.6,0,0,1-.56,2.26l.56.28a1.94,1.94,0,0,0,.75.18.68.68,0,0,0,.54-.19c.39.07.58.25.58.54a.36.36,0,0,1,0,.1,1,1,0,0,1-.64.76,2.21,2.21,0,0,1-.43.12,1.77,1.77,0,0,1-.51,0,3.11,3.11,0,0,1-1.38-.66,6.06,6.06,0,0,1-.62.82,4,4,0,0,1-1.69,1.14,2.67,2.67,0,0,1-.84.15,2.27,2.27,0,0,1-.86-.16,2.3,2.3,0,0,1-.78-.53,3.41,3.41,0,0,1-.61-.93,3.92,3.92,0,0,1-.32-1.24v-.13a3.11,3.11,0,0,1,.15-1,5.05,5.05,0,0,1,1.11-1.85l1.06-1.23a12.58,12.58,0,0,1-.58-1.69,6.25,6.25,0,0,1-.2-1.07,3,3,0,0,1,0-.86,3.63,3.63,0,0,1,.46-1.23,2.94,2.94,0,0,1,.75-.81,2.21,2.21,0,0,1,1.33-.44,1.72,1.72,0,0,1,1.19.41,1.63,1.63,0,0,1,.42.58,2,2,0,0,1,.18.81,3.58,3.58,0,0,1-.4,1.66,10.25,10.25,0,0,1-1,1.67c-.38.53-.76,1-1.16,1.55l.25.39a12.43,12.43,0,0,0,1.62,2,6,6,0,0,0,.73.63.56.56,0,0,1,0-.12,5.57,5.57,0,0,0,.52-1.9l-1,0c-.12,0-.16-.07-.13-.17a.76.76,0,0,1,.17-.22Zm-.43,3.61a3.33,3.33,0,0,0,.25-.28,11.19,11.19,0,0,1-1.39-1.67,15.54,15.54,0,0,1-1-1.73,9.21,9.21,0,0,0-1.16,1.74,3.67,3.67,0,0,0-.32.93,1.66,1.66,0,0,0,0,.83,1.51,1.51,0,0,0,1.51,1.16,2.87,2.87,0,0,0,2.1-1Zm-2.69-6.22c.11.32.24.63.37.92l.06-.08a9.75,9.75,0,0,0,1.08-1.65,3.89,3.89,0,0,0,.44-2c0-.58-.17-.95-.52-1.09a.9.9,0,0,0-1,.23,1.88,1.88,0,0,0-.38.51,3,3,0,0,0-.25.76A4.81,4.81,0,0,0,79.17,74.88Z"/><path class="cls-1" d="M46.7,76.9c-.32,0-.48-.15-.48-.35v-.09a1.89,1.89,0,0,1,.35-.73l3.64-.09.09-.53c.09-.76.14-1.4.17-1.9a1.59,1.59,0,0,0-.17-.93,2.94,2.94,0,0,1,1.62-1.63,3.35,3.35,0,0,1,1.5-.44,1.23,1.23,0,0,1,.57.14.88.88,0,0,1,.44.35,1.28,1.28,0,0,1,.13.66s0,.27-.09.71-.09,1-.18,1.67-.11,1.24-.17,2c.94.06,1.9.13,2.89.22q.57.21.57.6v0c0,.23-.13.35-.39.35H57.1c-.76-.09-1.78-.15-3.07-.18-.06.64-.11,1.33-.17,2-.18,2.07-.35,4.28-.53,6.61q-.26,4.29-.48,8.5t-.09,6.9a15.49,15.49,0,0,0,.22,2.33c.12.58.26.9.44,1,.58.12,1.4-.53,2.45-1.93A48.72,48.72,0,0,0,59,97.46c.82-1.4,1.56-2.72,2.24-4s1.1-2.1,1.31-2.54a1.8,1.8,0,0,1,.66-.13,1.32,1.32,0,0,1,.7.35,10.41,10.41,0,0,0-.48,1c-.21.44-.46.93-.75,1.49-.52,1.08-1.17,2.32-1.93,3.72s-1.6,2.67-2.45,3.89a18.36,18.36,0,0,1-2.58,3.11,3.28,3.28,0,0,1-2.11,1h-.31A4.54,4.54,0,0,1,50.82,104a8.41,8.41,0,0,1-1.54-2.72,20.35,20.35,0,0,1-.92-6.22,8.44,8.44,0,0,1,0-.87,64,64,0,0,1,.35-6.57q.31-3.68.84-7,.35-2.23.57-4c-1.18,0-2.3.11-3.38.23ZM81.49,91.38a24.82,24.82,0,0,1-3.63,5.56c-1.08,1.23-2.1,2.29-3.07,3.2,0-.41,0-.82,0-1.23V95.18c0-1.19-.06-2.31-.09-3.37,0-2,0-3.57,0-4.86s.16-1.91.4-2a1.92,1.92,0,0,0-1-1.27,1.48,1.48,0,0,0-1.49-.14,1.23,1.23,0,0,0-.53.49,3.41,3.41,0,0,0-.26.92,16.94,16.94,0,0,1-.09,3.42,39.43,39.43,0,0,1-.57,4A29,29,0,0,1,69.63,98c-.66,1.63-1.35,2.47-2,2.5-1.13,0-1.87-.87-2.18-2.68a29.11,29.11,0,0,1-.35-6.17c.06-1.55.19-3.09.4-4.6s.36-2.83.56-3.91c-.49-1.08-1.16-1.6-2-1.57a2.18,2.18,0,0,0-.44,0,2.1,2.1,0,0,0-1.79,1.67c-.05,1.63-.09,3.15-.09,4.55a34.76,34.76,0,0,0,1,9.38c.85,2.8,2.32,4.21,4.41,4.21a3.24,3.24,0,0,0,2.62-1.58,10.13,10.13,0,0,0,1.61-4c0,1,0,2.4,0,4.12L71.16,103a1.84,1.84,0,0,1-.27.23,7.23,7.23,0,0,0-1.58,1.53,14.23,14.23,0,0,0-1.4,2.23,19.51,19.51,0,0,0-1.66,4.86,6.78,6.78,0,0,0,.17,4.12,2.35,2.35,0,0,0,.75.92,2.49,2.49,0,0,0,1.18.35h.09a3.74,3.74,0,0,0,2.36-.78,6.72,6.72,0,0,0,1.76-2.24,20.13,20.13,0,0,0,1.75-6.83c.21-1.88.35-3.73.44-5.57a33.9,33.9,0,0,0,3.33-3.24c.79-.91,1.59-1.93,2.41-3.07a40.17,40.17,0,0,0,2.41-3.94.82.82,0,0,0-.7-.4,1.8,1.8,0,0,0-.71.23ZM69.75,106.93a5.91,5.91,0,0,1,1.32-2.28l.05-.05-.05.66c-.12,1.78-.26,3.51-.44,5.18a22.2,22.2,0,0,1-.79,4.07,4.58,4.58,0,0,1-.61,1.31.85.85,0,0,1-.7.48c-.35,0-.5-.61-.44-1.83a22.9,22.9,0,0,1,.62-4.08,29.31,29.31,0,0,1,1-3.46ZM94,83a.48.48,0,0,1,.09.4.42.42,0,0,1-.26.26,2.5,2.5,0,0,0-1.58-.84,2.79,2.79,0,0,0-1.58.44,8.23,8.23,0,0,0-2.54,3.2,27.79,27.79,0,0,0-1.88,4.87,23.77,23.77,0,0,0-1,6c0,1.82.43,2.72,1.27,2.72.38,0,.85-.61,1.4-1.84s1.11-2.69,1.66-4.3c.7-2,1.32-3.91,1.84-5.78l.88-3.12c.18-.44.74-.73,1.71-.88a2.43,2.43,0,0,1,2.1.31.57.57,0,0,1,.22.35.7.7,0,0,1,0,.44c-.2-.06-.48.71-.83,2.28s-.69,3.34-1,5.39c-.26,1.61-.49,3.23-.69,4.87s-.39,2.94-.45,4q0,.84,0,1.32c0,.32.09.49.18.52.44.06,1.08-.6,1.93-2s1.74-2.94,2.58-4.61c.71-1.37,1.35-2.67,1.93-3.9s.95-2,1.18-2.45a1.6,1.6,0,0,1,.66,0,1.88,1.88,0,0,1,.7.26c-.21.39-.59,1.23-1.19,2.55s-1.22,2.72-2,4.21a51.81,51.81,0,0,1-3,5.09c-1,1.45-1.91,2.19-2.67,2.19h-.13a2.79,2.79,0,0,1-1.67-.75,3.68,3.68,0,0,1-.92-1.58,7.43,7.43,0,0,1-.35-1.75,14.3,14.3,0,0,1,0-2A30.6,30.6,0,0,1,91,95.2c.17-1.14.32-2.09.44-2.85L91,93.75c-.21.7-.47,1.48-.79,2.32-.5,1.26-1,2.46-1.62,3.59s-1.2,1.74-1.75,1.8a7.36,7.36,0,0,1-4.37-.92,4,4,0,0,1-2.1-3.64v-.48a18.23,18.23,0,0,1,1-5.86,20.51,20.51,0,0,1,2.58-5.13,14.23,14.23,0,0,1,1.7-2,8.18,8.18,0,0,1,1.71-1.27,3.85,3.85,0,0,1,1-.35,8.83,8.83,0,0,1,1.27-.18h.54a7.83,7.83,0,0,1,2,.27A3.09,3.09,0,0,1,94,83Zm10-2.17a1.64,1.64,0,0,0-.4,0,4.19,4.19,0,0,0-1,.13,2.3,2.3,0,0,0-1.13,1c.52.41.66,1.52.39,3.33s-.56,3.83-.87,6.14c-.18,1.26-.31,2.54-.4,3.86-.06.62-.09,1.23-.09,1.85s0,1.33.09,2c.65,1.31,1.4,1.82,2.28,1.53A6.07,6.07,0,0,0,105.26,99a7.38,7.38,0,0,0,.31-1.84c.09-.94.16-2,.22-3.16,0-.62.06-1.24.09-1.89s0-1.24.05-1.8.39-1.09.65-1.7.56-1.18.88-1.76a16.43,16.43,0,0,1,1.93-2.94c.67-.84,1.25-1.25,1.75-1.22.29,0,.27,1,0,3s-.55,4.23-.78,6.71a47,47,0,0,0-.18,5,13.24,13.24,0,0,0,.62,4.26,5.64,5.64,0,0,0,1,1.88,3,3,0,0,0,1.63,1,2.71,2.71,0,0,0,.47,0c.94,0,1.9-.61,2.9-1.84a34,34,0,0,0,3.29-4.85c.64-1.2,1.22-2.35,1.75-3.47s.89-1.92,1.18-2.53a.94.94,0,0,0-.74-.31,1.6,1.6,0,0,0-.7.17c-.27.59-.66,1.38-1.19,2.37s-1,2-1.62,3.11A48.78,48.78,0,0,1,116,101.6c-.93,1.31-1.69,1.88-2.28,1.7-.23-.06-.3-.7-.21-1.93s.23-2.71.43-4.46c.09-1,.18-2,.26-3s.17-2,.23-3.07a30.76,30.76,0,0,0-.27-6.31c-.29-1.87-1-2.84-2.28-2.93a2.59,2.59,0,0,0-1.44.35,5.7,5.7,0,0,0-1.4,1,12,12,0,0,0-2.11,2.89,15.14,15.14,0,0,0-1.14,2.71c-.06-1.13-.1-2.27-.13-3.4a11.22,11.22,0,0,0-.4-2.94,2.82,2.82,0,0,0-.48-1A1.06,1.06,0,0,0,104,80.84Z"/><path class="cls-2" d="M68.89,14.91a3.58,3.58,0,0,0,.26-.29l-1.22-.77-.22.31,1.18.75ZM43.45,19.4l.41.08.33-1.4L43.76,18c-.1.47-.21.93-.31,1.4Zm-1.08,96.54.5.11.3-1.6-.39-.07c-.13.52-.27,1-.41,1.56ZM105.11,22.4a1.59,1.59,0,0,0,.37-2.13,1.86,1.86,0,0,0-.37,2.13ZM9.93,53.82l.55,0c-.14-.69-.27-1.38-.41-2.07l-.41.06.27,2ZM21.15,75.58l-.4,0a2.11,2.11,0,0,0,.82,2.2l-.42-2.23Zm111.72,47c-1.08-.06-1.94-.24-2.65.52.83,0,1.74.43,2.65-.52ZM20.83,40.1l.44.08c.2-.88.41-1.77.61-2.65l-.47-.09c-.2.88-.39,1.77-.58,2.66ZM19.54,98.2c-1.37.24-1.45.29-1.89,1.19,1.37-.08,1.37-.08,1.89-1.19Zm-7.91-5.42.38.28A1.77,1.77,0,0,0,13.28,91l-1.65,1.83ZM30.44,20.43c-1.61,1-1.62,1-1.76,2.06a3.67,3.67,0,0,0,1.76-2.06ZM132.22,77.51a4,4,0,0,0-2.44,2.16c1.33-.53,2.13-1.1,2.44-2.16ZM87.94,122.64l.45,0c-.13-.89-.25-1.79-.38-2.68a2,2,0,0,0-.07,2.71ZM3.76,52.71C5.51,51.85,5.68,51.5,5.09,50L3.76,52.71ZM107.23,13.26a4.06,4.06,0,0,0,3.1,1.62,3.78,3.78,0,0,0-3.1-1.62Zm32.46,78c-1.38,0-1.91.47-2.34,2a3.42,3.42,0,0,0,2.34-2ZM98.52,26.89c-1.19-1.21-1.68-1.42-2.85-1.24a3.45,3.45,0,0,0,2.85,1.24Zm-87.42,86a4.22,4.22,0,0,0-.51-3.61,3.74,3.74,0,0,0,.51,3.61ZM138.35,79.62c.9-.78,1.83-1.57,1.85-3-1.4,1-1.59,1.24-1.85,3ZM65.75,22.37c-1.39.55-1.57,1.6-1.88,2.8a2.61,2.61,0,0,0,1.88-2.8Zm13.4,7.46A5.25,5.25,0,0,0,76.37,28c.33,1.45.83,1.79,2.78,1.84ZM45.48,123c1.42-1.39,1.57-1.86,1-3.37a4.15,4.15,0,0,0-1,3.37Zm65.61-99.6-3,1c1.4,1.25,2.32,1,3-1Zm14-1.21A3.3,3.3,0,0,0,127.23,25a2.93,2.93,0,0,0-2.18-2.84Zm-15.44,7.34a11,11,0,0,0-4.38-1.11,4.59,4.59,0,0,0,4.38,1.11ZM40.2,121.06c-.72-1.12-1.21-2.41-2.71-3.35.52,1.63,1,2.89,2.71,3.35ZM20.71,33.17c1.41-.61,2.83-1.22,3.41-2.85a6.34,6.34,0,0,0-3.41,2.85Zm90.78,3a3.47,3.47,0,0,0-2.38-2.82c0,1.54.47,2.13,2.38,2.82Zm26-5.87a2.73,2.73,0,0,0,.5,3.55c.5-1.32.79-2.47-.5-3.55ZM97.78,23.12A3.61,3.61,0,0,0,96.3,19.5a3.6,3.6,0,0,0,1.48,3.62Zm3.47,108.14c-1.89.2-3.27.72-4.2,2.06,1.52-.27,3.1-.43,4.2-2.06Zm3.7-.49c.26-2.46-.09-3.2-1.69-3.72a6.81,6.81,0,0,0,1.69,3.72ZM94.51,26.65c-1.45,1.67-1.69,2.91-.88,4.18a5.1,5.1,0,0,0,.88-4.18Zm45.06,79.24c-2,.33-3,1.06-3.36,2.43a4.51,4.51,0,0,0,3.36-2.43ZM71.83,17.29c1.34.93,1.52,2.48,2.94,3.29.18-2.15-.65-3.1-2.94-3.29Zm15.72,9c-2-.45-2.92-.36-4,.39a2.8,2.8,0,0,0,4-.39Zm46.38,16.77c1.19,1.66,2.56,2.23,4,1.67-1.17-.87-2.26-1.8-4-1.67ZM88.38,140.48A2.51,2.51,0,0,0,91,141.83c.3-.07.53-.41.8-.62-.27-.27-.51-.73-.8-.76a23.59,23.59,0,0,0-2.64,0ZM18.1,53.68A3.11,3.11,0,0,0,19,57.76c.64-1.56.07-2.81-.86-4.08ZM42.75,27.46a4.22,4.22,0,0,0,2.63-3.7,6,6,0,0,0-2.63,3.7Zm82.06,102.71a2.8,2.8,0,0,0,1.75,3.6c0-1.47-.13-2.82-1.75-3.6ZM81.35,14.27c.1,1.83,1.42,2.61,2.59,3.6.18-1.73-.49-2.69-2.59-3.6ZM62,138.47c.93-1.13,1-1.69.58-3.51-1.6,1-1.79,2-.58,3.51Zm41.27,1.15c-1.58.83-2.21,1.89-2,3.38,1.88-1,2.32-1.77,2-3.38ZM.58,107.69c1.2,1.9,2.5,2.61,4.09,2.3a6,6,0,0,0-4.09-2.3ZM141.89,28c-1.56-1-3-1.57-4.7-.94a4.16,4.16,0,0,0,4.7.94ZM88.31,13.84c2.37.19,3.4-.28,4.23-2-1.68.26-3.17.58-4.23,2ZM14.84,124c1.81.69,3.78.19,4.39-1a5,5,0,0,0-4.39,1Zm74,24.59a10.09,10.09,0,0,0,1.94-5.06c-1.65,1.35-2,3.15-1.94,5.06Zm-54-114.57c2.18.87,3.79.77,4.95-.24a5.2,5.2,0,0,0-4.95.24ZM141.78,52.9a5.72,5.72,0,0,0,4.47,2.71,5.9,5.9,0,0,0-4.47-2.71ZM82.36,153.81c-1.89.94-2.31,2.12-1.38,3.69a2.8,2.8,0,0,0,1.38-3.69Zm-4.25-18.47c2.65-.43,3.91-1.6,3.53-3.15-1.87.31-2.79,1.5-3.53,3.15Zm57.66-6.15c-.67-1.84-.68-3.57-1.81-5.08-1,2.23-.49,3.71,1.81,5.08Zm-57.72,14.6c-2.2.14-4.08.18-5.1,2,1.81-.18,3.67-.24,5.1-2ZM27.17,40.2A6.26,6.26,0,0,0,22,41.63c2.73.52,4.45.06,5.22-1.43Zm-9-9.08c-1.7,2.2-3,4.17-2.73,6.74.93-2.12,2.87-3.88,2.73-6.74ZM49.9,18.46c2.27,1.45,4.46,1.6,6.08.44a8.81,8.81,0,0,0-6.08-.44ZM86.17,7.73a10.26,10.26,0,0,0-5.66-1.25c.86,1.92,2.57,2.31,5.66,1.25ZM22.22,88.94c.23-2.35-.67-3.63-3-4.46.11,2,1.23,3.26,3,4.46Zm46.54-58.7c-.07-1.88-1.57-3.13-4.55-3.74.82,2.07,2.52,3.05,4.55,3.74ZM127,111c1.2,2.07,2.91,2.66,4.82,1.8-.44-1.36-1.67-1.83-4.82-1.8Zm-90.2,21.38c.17-1.48.43-2.84.46-4.21a2.82,2.82,0,0,0-1.2-2.46c-.66,3.2-.45,5.33.74,6.67ZM129.55,117c-2.87,1.23-4.69,3.23-4.77,5.17,2-1.36,3.81-2.71,4.77-5.17ZM51.42,138.69a5.21,5.21,0,0,0-5.7,1.93c2.6.32,4.79-.39,5.7-1.93ZM18,61.83a5.63,5.63,0,0,0,5.48-4c-1.84,1.42-4.59,1.59-5.48,4ZM135.28,86.67c.32-2.57-1.24-4.24-2.41-6.34-.9,2.8.4,4.56,2.41,6.34ZM24,115.55a6.93,6.93,0,0,0,2.34,6.31A7.09,7.09,0,0,0,24,115.55ZM58.73,10.79c-2.89.89-6,3.43-6.1,4.9a12.53,12.53,0,0,0,6.1-4.9ZM3.82,63.63A6,6,0,0,0,7.7,68.49c.08-2.49-1.52-3.81-3.88-4.86Zm35.25,41c-.33,2.33-.47,4.61,1.39,6.77.55-2.6.46-4.84-1.39-6.77Zm81.81-64.1c2.31-.67,3.55-2.4,3.26-4.4-1.94.06-3.29,1.85-3.26,4.4Zm-4.28,89.32c-2-1.73-4-2.89-6.92-2.71,2,1.89,3.93,3.17,6.92,2.71Zm19.11-75.36a4.53,4.53,0,0,0,0-5.82c-1.8,1.51-1.44,3.74,0,5.82ZM91,.61c-2.46.58-4.39,1.52-5.5,3.6A5,5,0,0,0,91,.61Zm-74.86,77c-2.33,1-4.32,3.35-4.18,4.89.7-.36,1.39-.76,2.11-1.09,1.91-.87,2.34-1.63,2.07-3.8Zm110.38,11,.33.22c1.18-1,2.4-2,3.55-3a2.65,2.65,0,0,0,.86-2.58c-2.35,1.43-4.72,2.53-4.74,5.39ZM6.21,82.65c.27,3.15,2.06,5.69,4.26,6.19-.19-2.73-1.83-4.52-4.26-6.19ZM140,66.75c-2.77.34-5.56.64-7.55,3.29,3.1-.45,6-.57,7.55-3.29ZM59.82,34.13c-1.23-3.45-2.66-6-3.77-6.76a5.12,5.12,0,0,0,3.77,6.76Zm53.79,104c2.38-1.85,4.64-3.52,3.77-6.7-2.45.92-3.93,3.52-3.77,6.7Zm-89.37-7.64a19.47,19.47,0,0,1,6.74.75,14.54,14.54,0,0,0,1.6.3,2.19,2.19,0,0,0,1.92-.46c-2.3-2.6-7-2.93-10.26-.59ZM142.8,87c.34,6.23-1,12-6,16.58a79.62,79.62,0,0,1,2.14-8.51A85.07,85.07,0,0,1,142.8,87ZM132.5,42.1c-3.5-2.57-6.65-5-8.84-8.22s-4.09-6.53-6.12-9.81c0-.07,0-.18,0-.28,5.36,1.52,13.11,10.84,15,18.31ZM95.25,124.47l-.44-.77A5.09,5.09,0,0,1,99,125.59a2.24,2.24,0,0,1-2.15-.3l-1.65-.88c1.3,1.42,2,1.73,4.61,1.84.59,1,1.25,2.12,2,3.46-3.16-.75-6-1.3-8.8-2.13a5.24,5.24,0,0,1-4.12-5.24,10.53,10.53,0,0,0-.91-4,3.74,3.74,0,0,0-.45,4.82,9,9,0,0,1,1.1,1.8,6.58,6.58,0,0,0,4.59,3.58c1.45.4,3,.64,4.45,1,.35.08.69.22,1.12.36-2.3.54-4.44,1.22-6.65,1.51a43.32,43.32,0,0,1-6.35.16c-1.57,0-3.15-.25-4.73-.29a24.44,24.44,0,0,1-6.58-.94c-3-.91-5.5.18-7.82,2.17a1.78,1.78,0,0,0,1.68-.5c2.12-1.53,4.35-1.53,6.79-.74a43.41,43.41,0,0,0,4.65,1,8.07,8.07,0,0,0-2.37,3.67c2.74-.11,4.6-1.4,5.25-3.62,1.21,0,2.45-.06,3.68,0a24,24,0,0,0,9.19-1,12.44,12.44,0,0,1,3.55-.4c-1.33,1-2.75,1.79-3.61,3.51,2.53-.86,5.16-.93,6.72-3.19,3,.44,6,1.25,9.13,1-.29.14-.58.29-.88.41-3.3,1.33-6.61,2.62-9.89,4A14.43,14.43,0,0,1,93.92,138c-4.22-.33-8.06.83-11.93,2.05-1.64.52-3.31,1-5,1.44a4.67,4.67,0,0,1-1.29.18A35.38,35.38,0,0,1,62.65,139c1-1.67.84-3.41.73-5.16-2.08.38-3,1.85-2.71,4.49a4.12,4.12,0,0,1-.9-.32c-3.14-2-6.29-4-9.38-6a7.75,7.75,0,0,1-3.3-4.54,22,22,0,0,0-1.48-3.31,5.39,5.39,0,0,0,1.66-5.72c-1.22.55-1.22.55-2.64,3.66-.32-.9-.56-1.67-.88-2.43s-.72-1.56-1.11-2.38a3,3,0,0,0,.56-4c-1,.21-.71,1.22-1.53,1.75a10,10,0,0,1-.42-1.84,28.48,28.48,0,0,1,.09-3.92,7.76,7.76,0,0,0-2.49-6,1.51,1.51,0,0,0-.32.47,9.85,9.85,0,0,0,.52,6.8,2.23,2.23,0,0,0,.71,1c1,.6,1.05,1.47,1.23,2.44a21.74,21.74,0,0,0,1.36,4.33,28.93,28.93,0,0,1,1.71,4.83A5.09,5.09,0,0,1,41,120.88a24.65,24.65,0,0,0-2.66-3.43,12.83,12.83,0,0,0-1.53-1.29c-.16,1.89.71,3.11,1.33,4.39-1.37-.12-1.37-.12-5-3a4.94,4.94,0,0,0,2.43,2.52c1.57.79,3.22,1.46,4.85,2.16.74.32,1.52.56,2.24.9a6.3,6.3,0,0,1,3.79,4.32,8.69,8.69,0,0,0,3.77,5.3,62.16,62.16,0,0,0,9.22,5.89,6.4,6.4,0,0,1-1,0c-4.62-.69-9.25-1.34-13.86-2.12A18.36,18.36,0,0,1,38.5,134a1.63,1.63,0,0,1-1-1.72c.09-.65,0-1.32.13-2,.4-2.69.15-3.62-1.81-6.25-.78,1.84-.55,3.69-1,5.49-1.78-3-4.78-4.68-7.61-6.75.5-3.5-1.08-6.37-3.76-9.2a10.6,10.6,0,0,0,1,7.26,8,8,0,0,1-2.74-1.73A16,16,0,0,1,16.56,109a48.57,48.57,0,0,1-.31-5,30.31,30.31,0,0,1,.52-3.78c2,0,3.29-.72,3.7-2.71l-1.85.14c.42-.51.76-.93,1.12-1.35,2.82-3.33,4.17-7,3.51-11.29-.46-3-.95-6-1.49-9a19.13,19.13,0,0,0-.84-2.48A2.65,2.65,0,0,0,20.19,76,5.42,5.42,0,0,0,21,78.57c1.62,2.24,1.27,4.74,1.7,7.37l-4.1-2.77a5.78,5.78,0,0,0-.14,1.13,6,6,0,0,0,3.05,4.77,1.19,1.19,0,0,1,.6,1.65,15.66,15.66,0,0,1-3.7,6,9.28,9.28,0,0,0-2.66,4.6,12.55,12.55,0,0,0-.19,5,6.09,6.09,0,0,1,0,2.17c-3.57-4.28-4.13-9.25-4.25-14.18a14.32,14.32,0,0,0,2.22-1.79,5,5,0,0,0,.53-1.82l-.29-.21-2.07,1.09c-.07-.84-.19-1.61-.18-2.38,0-1.56.15-3.12.16-4.68a1.55,1.55,0,0,1,.8-1.4,15.27,15.27,0,0,1,2.1-1.15,3,3,0,0,0,2.05-2.52,14.14,14.14,0,0,0,.12-2.86A19.31,19.31,0,0,0,11.88,80a36.28,36.28,0,0,1,5.53-17.41c4.12-.12,6.69-2.39,7.37-6.69-1.72,1.31-3.15,2.71-5.42,3,.27-.65.48-1.2.72-1.74a11.54,11.54,0,0,0,1.07-5.45c-.07-1.64.11-3.29.18-5.09a8.58,8.58,0,0,0-.92,4.61c0,1.15-.09,2.3-.18,3.44,0,.27-.25.51-.41.84L18,52.19c-1.57,2.49-1,4.49.57,6.49l-4,7.51c-.09-.24-.17-.33-.15-.4A14.09,14.09,0,0,0,15,58.94a17.1,17.1,0,0,1,2.82-12c1-1.56,2.11-3.05,3.16-4.56a38.06,38.06,0,0,0,3.87,0c1.87-.19,2.62-.9,3-2.54a17.1,17.1,0,0,0-4.74,0A13.38,13.38,0,0,1,24.75,38a16.42,16.42,0,0,1,8.49-3.61,2.44,2.44,0,0,1,1.21.25,6.16,6.16,0,0,0,4.75.26c.74-.24,1.53-.35,2.47-.56a10.08,10.08,0,0,0-4.51-1.57,27.87,27.87,0,0,1,5.75-4,22,22,0,0,1,7.64-2.56,10.86,10.86,0,0,1,4.73.55,6.44,6.44,0,0,0,1,5.95,4.75,4.75,0,0,0,2.63,1.93,2.37,2.37,0,0,0,2-.19c-1.36-2.56-2.69-5.09-4.09-7.74a15.57,15.57,0,0,1,5.76-.65,1.35,1.35,0,0,1,.9.74c1.12,2.67,3.64,3.52,6.45,4.35a7.15,7.15,0,0,0-4.17-5c3.41.14,6.57,1.29,9.86,1.54.34,2.23,1.59,3,4.33,2.83-.24-.89-.24-.89-2.22-2.62l4.75-1.13.75.52a3.54,3.54,0,0,0,3.84.15c.46-.22,1.14-.51.88-1.08a1.66,1.66,0,0,0-1.24-.77,16.61,16.61,0,0,0-3.23.14,19.71,19.71,0,0,0-2.51.66,14.56,14.56,0,0,1-6.94.37,62.29,62.29,0,0,1-6.39-1.44c.42-.15.85-.28,1.25-.46,1.72-.74,3.49-1.41,5.15-2.26a5,5,0,0,0,2.63-3.5c.34-1.5-.4-2.8-2.3-3.63,1.06,1.29,2.15,2.36,1.46,3.89a18.37,18.37,0,0,0-2.2-2.21,3.75,3.75,0,0,0-3.22-.29,24,24,0,0,1,2.31,2.09,22.21,22.21,0,0,1,1.68,2.53C71.92,23.28,69,24.18,65.64,25c.53-1.23,1.08-2.23.59-3.39a3,3,0,0,0-2.62,2.21c-.33,1.29-1.14,1.61-2.45,1.66s-2.9.37-4.35.55a4.15,4.15,0,0,1-1.45,0,14.46,14.46,0,0,0-10.15,1,6,6,0,0,1-.61.16c.52-1,1-1.78,1.43-2.67s.62-1.78,1-2.83a2.18,2.18,0,0,0-.57.2c-2.16,1.66-4.14,3.44-4.62,6.19a1.78,1.78,0,0,1-.69,1c-1.62,1.19-3.23,2.4-4.95,3.46a9.48,9.48,0,0,1-3.25,1.32,17.66,17.66,0,0,0-7.07,2.61,8.77,8.77,0,0,1-1.06.5c.71-1.28,1.25-2.24,1.76-3.21a33.55,33.55,0,0,1,7.32-9.21,12.26,12.26,0,0,1,5.19-2.74q4.55-1.22,9-2.66a3,3,0,0,1,2.3.38,7.32,7.32,0,0,0,6.44-.08,3.35,3.35,0,0,0,.47-.37,14.76,14.76,0,0,0-5.91-1.6,44.67,44.67,0,0,1,15.05-4.6c.52,1,.74,2.17,2,2.53a1.82,1.82,0,0,0,1.95-.45L67.92,13c2.06-.69,8.41-.09,12.74,1.19.12,2.33,2,3.39,3.9,4.65.33-1.93.27-2.19-1-4.3a11,11,0,0,1,4.6.74,32.55,32.55,0,0,1,4.54,2.06c1.31.71,1.57,2,1.59,3.32-.89.4-1.83.75-2,2.05l2.12-.23c.22,1.44.48,2.73-.66,4.1a4.21,4.21,0,0,0-.18,5.64,9.91,9.91,0,0,0,1.77-4.36l.91.74c-.13-.66-.23-1.18-.36-1.8a11.93,11.93,0,0,0,2.05.58,15.2,15.2,0,0,0,2.41-.2c-1.71-1.28-3.1-2.25-5-2.52-.22-2.06-.44-4.08-.67-6.15.62.06,1,.22,1,.89.12,2.89.39,3.33,3.06,5.38.44-.67-.07-1.24-.16-1.83s-.2-1.18-.34-1.94a10.21,10.21,0,0,1,2.48,2.9c1.43,2,2.87,3.92,4.35,5.85a7.86,7.86,0,0,0,1.45,1.43,4.65,4.65,0,0,1,2.08,3c.25,1.62,1.8,2.44,3.52,2.23-.15-.43-.28-.85-.45-1.26s-.36-.73-.6-1.22l2.36.34c-2.56-1.08-5.14-2-7.12-4.27,1.65.16,3.13.62,4.77-.35a8.27,8.27,0,0,0-1.64-.89,34,34,0,0,0-4.11-.94,2,2,0,0,1-1.59-.85c-.58-.85-1.21-1.66-1.9-2.61l5.72.37a3.52,3.52,0,0,0,.39.45,2.05,2.05,0,0,0,3.34-.58c.28-.58.46-1.22.78-2.08-2.29.61-4.19,1.88-6.59,1.61.14-1.53,1.7-3.07.1-4.61a2.25,2.25,0,0,0-.88,3c.2.4.68.82.14,1.18a2.34,2.34,0,0,1-1.33.22,3.73,3.73,0,0,1-2.79-1.42,18.31,18.31,0,0,0-7.26-5.49,7.85,7.85,0,0,1-2.13-1.46c1.21.3,2.44.53,3.62.92a72.87,72.87,0,0,0,12.87,2.79A16.69,16.69,0,0,1,115,22a6,6,0,0,1,1.63,1.83c1.76,2.9,3.44,5.84,5.17,8.76.55.92,1.17,1.81,1.75,2.72-2.56,1.22-3.39,2.85-3.06,5.9,2.29-.23,2.88-.75,4.58-4.16l1,.76c1.75,1.45,3.47,2.92,5.24,4.33A9.19,9.19,0,0,1,133.82,45a8.79,8.79,0,0,0,.93,1.6,1.42,1.42,0,0,1-.1,2.14,3.41,3.41,0,0,0-.55,3.72c.39,1,.87,1.92,1.38,3,1.76-1.63,2-3.48,1.65-5.67,3.06,2.37,5.13,5,5.18,8.58a31.6,31.6,0,0,1-.28,4.66,3.27,3.27,0,0,1-3.15,3,15.7,15.7,0,0,0-2.7.6A8.84,8.84,0,0,0,131,71l7.12-1.29c-.69.87-1.31,1.62-1.9,2.4-.77,1-1.56,2.07-2.24,3.16a3.31,3.31,0,0,1-1.85,1.56,5.13,5.13,0,0,0-3.41,4.26l3.21-1.74c0,1.72-.28,3-2,3.82a9.68,9.68,0,0,0-2.52,1.89,4.46,4.46,0,0,0-1.27,4.46c1.37-.45,3.67-2.37,5.74-4.81a6.27,6.27,0,0,1-.72,3.26,9.71,9.71,0,0,0-.93,4.42,3.17,3.17,0,0,0,2.67,2.93c-.33-.31-.47-.45-.62-.58a3.78,3.78,0,0,1-1.25-4c.24-.88.58-1.73.86-2.6s.58-1.83.89-2.83c1.13.46,1.52,1.58,2.33,2.4.89-.24.89-.94.93-1.56a6.16,6.16,0,0,0-1-3.45c-.42-.76-.87-1.51-1.23-2.3a3.33,3.33,0,0,1,.12-3.21c.67-1.15,1.31-2.33,2.09-3.41,1.52-2.09,3.13-4.13,4.7-6.19.15-.18.34-.34.7-.69-.13,1.25-.25,2.24-.33,3.23-.1,1.21-.2,2.41-.22,3.62A2.55,2.55,0,0,1,139.68,76a4.92,4.92,0,0,0-2.08,3.64,7.55,7.55,0,0,0,.11,1.42l.33.08,2.76-3.44c.54,1.89,1.15,3.64,1.54,5.44.52,2.41-.48,4.57-1.75,6.6-.23.37-.86.55-1.35.73a3.78,3.78,0,0,0-2.77,3.73l2-.88a74.16,74.16,0,0,1-5.67,19c-1.86-2-4.34-1.73-6.59-2.24,0,2.34,1.71,3.55,5.3,3.87a3.94,3.94,0,0,1-2.41,2.41,8.27,8.27,0,0,0-5.36,5.89,4.31,4.31,0,0,0,0,1c1.73-.32,2.75-1.52,4.09-2.4a1.55,1.55,0,0,1-.46,1.56,24.38,24.38,0,0,1-8.52,6.93,1.83,1.83,0,0,1-1.36,0,17.31,17.31,0,0,1-2.21-1.27,8.73,8.73,0,0,0-6.18-1.31c.21,1.5,2.67,3.24,5.59,3.95a4.22,4.22,0,0,1-2.56.73c-1.63.09-3.28.09-4.91,0-1.31,0-1.52-.24-1.52-1.47a3.85,3.85,0,0,0-2.36-3.53,4.46,4.46,0,0,0-.85-.15c.51,1.58,1,3,1.43,4.46A2.2,2.2,0,0,1,102,129.3a26.71,26.71,0,0,0-2.35-4,5.74,5.74,0,0,0-5.57-2.19,1,1,0,0,0-.31.09s0,.08-.14.23a2.79,2.79,0,0,0,1.62,1ZM145,35.12c-1.49.7-3,.47-3.61-.77-.53-1.06-1.57-1.43-2.59-2.36-.09,1.14-.15,2-.22,2.87a3,3,0,0,1-2.15-3,2.23,2.23,0,0,1,.15-1c.8-1.41.16-2.59-.79-3.58A19.68,19.68,0,0,0,126.6,22c.81,1.65,1.51,3.08,2.21,4.53-1.93,0-3.66-1.83-5.15-5.29l-3,.68-3.22.71c.52.38.91.68,1.33.95a44.39,44.39,0,0,1,7.39,6,27.87,27.87,0,0,1,6.63,11.16l.55,1.71c2.64-.14,4.35,1.43,6.47,2.94a24.47,24.47,0,0,1-2.55.24c-.74,0-1.48-.18-2.51-.31a27.32,27.32,0,0,0,1.74,2.52A47.42,47.42,0,0,0,140,51.39a3.85,3.85,0,0,0,1.85.82c3.06.52,4.79,2.38,5.87,5L142.61,55l.1.92c.16,1.45.44,2.9.47,4.35a13.79,13.79,0,0,0,1,4.85A52.38,52.38,0,0,1,146.62,72a32.14,32.14,0,0,1,.55,5.56,5.63,5.63,0,0,1-.24,1.38h-.37c-.28-2.47-.42-5-.88-7.4s-1.63-4.65-2.52-7h-.35c-.16.49-.37,1-.48,1.47a41.27,41.27,0,0,0-.66,11.14,21.56,21.56,0,0,0,.82,3.84c.26,1.07,1.21,1.65,2.08,2.24A8,8,0,0,1,147.74,87c.1.27.15.57.3,1.18-1.14-1-2.67-.87-3.17-2.19l1.9,1,.24-.29a6.9,6.9,0,0,0-3.39-3.4,4.72,4.72,0,0,0,1.31,2.78l-1.17-.25c0,.61-.07,1.18-.06,1.75a28.84,28.84,0,0,1-.95,7.78,20.49,20.49,0,0,1-4.89,8.46,5.36,5.36,0,0,0-1.8,2.94l4.3-2a5,5,0,0,1-2.65,3.59,1.88,1.88,0,0,1-.58.26c-2.45.49-3,2.25-3.24,4.18A25.84,25.84,0,0,0,134,116c.05,1.81.14,3.62.11,5.43a5.23,5.23,0,0,0,.35,1.88c.75,2,1.36,4.13,2,6.21,0,.11-.09.27-.14.41-2.41-.56-3.23-1.74-3.52-5.05l-7.49,4.73c1.81,1.36,1.86,3.15,1.62,5-1.35-.23-1.93-.88-3.25-3.64-1.81,1.65-1.71,4-2.81,6.15a5,5,0,0,1-.18-1c0-.4.16-.79.23-1.19.57-3.28,2.54-5.58,5.67-7.16,1.48-.74,2.9-1.59,4.31-2.45a19.78,19.78,0,0,0,1.78-1.39,11,11,0,0,0-4.34.16c.42-1.65,1.92-2.29,5.06-2.18.57-2.7-.39-5.34-.27-8.35a5.68,5.68,0,0,0-.91.92,27.28,27.28,0,0,0-2.37,4.62c-1.16,3.75-3.81,6.41-6.94,8.76a36.67,36.67,0,0,1-3.64,2.3,1.55,1.55,0,0,0-1,1.56,6.54,6.54,0,0,1-2.78,5.69,21.75,21.75,0,0,0-2.5,2.83c-.7-1.11-.14-2.28,0-3.4a29.9,29.9,0,0,1,.78-3.39,43.33,43.33,0,0,1-4.44,3.31,45.42,45.42,0,0,1-5.11,2.25c.36,2.46-1.27,3.87-3.56,5.1-.41-1.81.24-3.21,1.43-4.68-.64,0-1.1,0-1.55.07a23.19,23.19,0,0,0-7.54,2.36,1.83,1.83,0,0,0-1.19,1.47c-.41,2.52-1.82,4.69-3.1,7.24a11.15,11.15,0,0,1,.37-6,9.1,9.1,0,0,0-3.35,4.52c-.17.53-.25,1.08-.38,1.62a3.89,3.89,0,0,1-1.94,2.84c.08,2.63-.71,3.91-2.84,4.64-1-1.62-.89-2.31.47-4.74a5.1,5.1,0,0,0-5.22,3.41,3.51,3.51,0,0,1,2.73-3.69,12.8,12.8,0,0,1,3.22-.31c1.83,0,2.31-.24,2.78-1.87.17-.58.27-1.18.43-1.76a9.82,9.82,0,0,1,3-4.77c.66-.6,1.34-1.18,2.08-1.83-1.1-.66-2.43-1.07-2.68-2.43,2.16-.9,4.14-.61,5.42.78,1-.37,2-.73,3-1.13,2.29-.9,4.77-1,7.15-1.54,4.3-1,7.62-2.58,10.06-5.91-1,.36-1.86.61-2.64.92-3,1.2-6,2.36-9,3.65a19.24,19.24,0,0,1-8.72,1.67,17.45,17.45,0,0,0-12.72,4.54c-1.94,1.7-4,3.24-6,4.91a25.23,25.23,0,0,0-2.23,2.39c-.16.17-.23.42-.51.49.17-2.33,2.46-3.14,3.95-4.87l-3.45.64a4.41,4.41,0,0,1,3.57-3.29,9.22,9.22,0,0,1,2-.2c1.86.11,3-.83,4.13-2.25a4.65,4.65,0,0,0-.77.17c-3.61,1.47-7.33,1.33-11.07.57a24,24,0,0,1-3.58-1,30.25,30.25,0,0,0-7.48-1.54c-1.94-.2-3.9-.35-6-.53-1.11,1.6-2.93,2.12-4.93,2.35-1.18.14-2.33.4-3.88.67a14.67,14.67,0,0,1,4.8-3.62c-5.41-.85-10.07-2.35-13.57-6.14a10.07,10.07,0,0,1-5.1-.35,12,12,0,0,0-7.37.06,1.31,1.31,0,0,1-.48.08,2.44,2.44,0,0,1-.47-.24A12.34,12.34,0,0,1,32,128.37c-.5-.21-1-.41-1.49-.63A26.09,26.09,0,0,1,27,126.09a24.33,24.33,0,0,0-5.47-2.67,1.81,1.81,0,0,0-1.9.27,5.31,5.31,0,0,1-6,.6,7,7,0,0,1,4-2,6.56,6.56,0,0,0-.57-.44A21.87,21.87,0,0,1,9,114a5.58,5.58,0,0,0-1.79-1.83,7.48,7.48,0,0,0-3.71-1.48A4.37,4.37,0,0,1,0,107.16c3.52.13,5.27,2.72,7.47,4.63l.3-.2-1.5-3.94.29-.12c1.69,2.5,2.16,5.6,4.46,8.06a2.88,2.88,0,0,0-.35-2.56c-1.21-1.64-1.29-3.36.29-5.25.45,1.79,1.18,3.34.9,5a6.31,6.31,0,0,0,2.47,6.36,15,15,0,0,0,5,2.85l2.92,1a17.28,17.28,0,0,1,5.12,2.64A9.63,9.63,0,0,0,32,127.44c-.71-.59-1.11-1-1.57-1.3-2.26-1.58-4.48-3.22-6.83-4.68A15.88,15.88,0,0,1,17,113.4a19.71,19.71,0,0,0-2.67-5.15c-2.21-2.88-3-6.21-3.56-9.63a16,16,0,0,1-.09-5.57c.1-.49,0-1,0-1.51a2.26,2.26,0,0,0-1.36-2.41c-2.72-1.69-3.83-4.24-3.9-7.53a12.26,12.26,0,0,1,5.3,5.1A7,7,0,0,0,11,85.28a38.61,38.61,0,0,0-1.48-8.63c-.73-2.36-1.28-4.78-2-7.42a7.38,7.38,0,0,1-3.93-3.85c-.35-.8-.92-1.61-.55-2.65A10.16,10.16,0,0,1,7.92,66a7.91,7.91,0,0,0-.8-3.79c-1.07-2.48-2.19-4.94-3.23-7.43A14.12,14.12,0,0,1,3.1,48c.1-1.09.28-2.16.43-3.24l.35,0q-.18,3-.37,6.06l.32.13,1.51-2c.87,1.66.76,3-.42,4a1.3,1.3,0,0,0-.5,1.81c1.28,2.83,2.5,5.68,3.83,8.74a23.22,23.22,0,0,0,1.87-5.81c.08-.4.11-.8.2-1.2a2.2,2.2,0,0,0-.44-2,3.82,3.82,0,0,1-.28-4.22,2.39,2.39,0,0,1,1.11,1.82,13.61,13.61,0,0,1-.87,8.61c-2.07,4.86-1.67,9.66-.17,14.51l1.14,3.71c.32-2.17.46-4,.89-5.8a63.5,63.5,0,0,1,2.05-7,16.86,16.86,0,0,0,.49-8.51,46.25,46.25,0,0,1-.78-5.84,42.36,42.36,0,0,1,.37-6.16c.18-1.5.61-3,.86-4.46a4.33,4.33,0,0,0,0-1.48c-.52-3.5.84-6.42,3.17-9.06a2.46,2.46,0,0,1,.55-.3,4.58,4.58,0,0,1,.22,1,8.19,8.19,0,0,1-1.34,4.31,5.77,5.77,0,0,0-.83,2,1,1,0,0,0,.29-.18c1.48-2.29,3.09-4.52,4.41-6.88a16.45,16.45,0,0,1,5.63-6.36,1.89,1.89,0,0,0,.78-1.06c.51-1.86,1.95-2.95,3.72-4,.38,1.1-.51,1.74-.8,2.72l1.93-.66a9.1,9.1,0,0,1-1,.82c-1.4.87-2.83,1.71-4.23,2.59A13.8,13.8,0,0,0,22.13,30c-.11.22-.19.45-.34.83,1-.21,1.43-1.34,2.49-1,.47.69.15,1.27-.32,1.79a8.88,8.88,0,0,1-3.39,2.3,2.91,2.91,0,0,0-1.26.82c-2.57,3.3-4.74,6.76-4.95,11-.09,1.66-.36,3.31-.41,5a5.82,5.82,0,0,0,.64,2.63c.2-.67.39-1.35.59-2a25.52,25.52,0,0,1,4.34-7.91,3.66,3.66,0,0,0,.87-2.77,9.56,9.56,0,0,1,.42-3A1.35,1.35,0,0,1,22,36.44c.63,1,.1,2.12.4,3.24.43-.62.9-1.21,1.27-1.86q1.27-2.2,2.46-4.44a35.59,35.59,0,0,1,7.29-9.25,12.09,12.09,0,0,1,5.28-2.88l4.07-1.08.66-3.33c1.42.54,1.37,1.5,1.33,2.45a10,10,0,0,0,6.43-3,35.21,35.21,0,0,1,3.8-4.12,12,12,0,0,1,6.2-2.76L56,14.51c2.16-.54,4.08-1.08,6-1.5,1.64-.35,3.34-.48,5-.87A11.44,11.44,0,0,0,70,10.94c2.06-1.13,4-2.56,6.09-3.51A62.75,62.75,0,0,1,83.4,5a2.63,2.63,0,0,0,1.81-1.3C86.48,1.35,88.82.45,91.43,0c.08,0,.18.09.36.19C91.6,1.85,90.41,3,89.26,4.33c.68,0,1.36-.09,2-.15C92.17,4.11,93,4,93.91,4A9.51,9.51,0,0,1,100,5.77a26.73,26.73,0,0,0,10.64,4.79,24.15,24.15,0,0,1,2.78.6c-3,.21-5.81-.78-8.88-2,.44.92.71,1.5,1,2.08.4.8.81,1.52,2,1.38a2.42,2.42,0,0,1,1.36.46c1,.67,1.94,1.42,3,2.17a4.3,4.3,0,0,1-5-1.3,38.18,38.18,0,0,1-2.78-4.24A3.9,3.9,0,0,0,102.55,8a30.25,30.25,0,0,1-3.15-1.9A8.09,8.09,0,0,0,94.2,4.6c-3.37.2-6.72.57-10.08.88a10.38,10.38,0,0,0-1.34.37c1,.36,1.73.57,2.41.9a8.19,8.19,0,0,1,2,1.3c-1.88.66-3.73,1.33-5.62.48a9.7,9.7,0,0,1-2-1.65C76.8,7.3,72.49,9.75,70,11.94c1.2.13,2.25.2,3.28.36,3.06.47,6.11,1,9.17,1.45a33.89,33.89,0,0,0,3.9.39,1.88,1.88,0,0,0,1.24-.48c1.89-1.84,3.13-2.37,6-2.37C93.28,13,92,13.9,90.11,14.61c.59.2.85.3,1.12.38a131.67,131.67,0,0,0,17.28,3.89,13.75,13.75,0,0,1,5.77,2,6.45,6.45,0,0,0,5.14.77c2.85-.63,5.73-1.18,8.61-1.7A14.85,14.85,0,0,1,136.49,21a19.19,19.19,0,0,1,2.64,1.25c-4.31-1.69-8.68-2.79-13.54-1.42a5.81,5.81,0,0,0,.84.44A27.37,27.37,0,0,1,135.32,26a1.61,1.61,0,0,0,1.46.49,6.25,6.25,0,0,1,4.85.7,5,5,0,0,0,1.2.39c-.82,1.52-2,1.76-5.31,1,1,1.78,2,3.37,3.86,4.26s3.82.19,5.78.08c.14,1.08-.69,1.44-1.39,1.89.24-.43.47-.86.75-1.38L142,33.9C143,35,143,35,145,35.12Z"/></g></g></svg>