<svg xmlns="http://www.w3.org/2000/svg" viewBox="0 0 343.52 135.9"><defs><style>.cls-1{fill:#cd9d81;fill-rule:evenodd;}</style></defs><g id="Layer_2" data-name="Layer 2"><g id="Layer_1-2" data-name="Layer 1"><path class="cls-1" d="M279.14,94.2c3.1-1.45,5.72-.69,6.78,2.26-2,.37-2.08.72-4.28,0a4.25,4.25,0,0,1-2.5-2.21Zm-48-63.64c0-2.18-.45-3.27-1.33-3.27a1.79,1.79,0,0,0-1.33.58,20.57,20.57,0,0,0,2.66,2.69Zm4,5.2c0-1.41-.83-2.82-2.47-4.23a26.51,26.51,0,0,0-.38-3.85c-.38-2.44-1.07-3.66-2.08-3.66-.76,0-1.45.83-2.09,2.5a11.93,11.93,0,0,0-.94,3.85c0,.77.6,1.61,1.8,2.5a7.73,7.73,0,0,1,1.8,1.54c0,1.16-1.65,3.4-4.93,6.74a62.34,62.34,0,0,1-12,9.86c0-.43,0-.86,0-1.3l-.28-1.81-2.17-32.57c1.62,1,1.61,1.3,3.3,2.22,0-3.34-4.43-15.49-6.15-17.55-4.08,4.37-1.36,18.53-.88,25.53.81,11.94,3.58,44.83,3,54.61-.61,9.62-3,16,.28,25.71,2.85,8.39,9.28,13.86,14.46,3.88,3.37-6.49,5.25-14.25,10-18.74,8.19-7.74,9.11,4.89,15.25,8.88,7.59,4.92,16.63-1.34,22.48-3.63,3.12,3.89,5.12,9.46,13.06,8.11,3.94-2.68,5.74-9.51,2.49-15-3.42-5.8-8.2-2.77-13.89-2.35-3-6.2,1.38-11.62,6.92-12.34,4,8.44,6.71,13.61,17.59,9.44-1.29,6.82-4.08,12.29-2.49,20.48,3,15.5,17.68,12.55,29.32,3.67a84.25,84.25,0,0,0,12.21-11c3.85-4.58,6.45-9.48,4.82-18.1-4.42-23.35-22.83-10.64-19.07.69,2,5.88,12.54,3.35,16.72,6.24-.6,4.17-6.64,8.94-9.87,11.44-19.71,15.25-36.39,14-31.64-7.94a39.36,39.36,0,0,1,2.48-8.43c1.37-2.79,2.16-3.63,3.13-6.92,3.5-11.94-.92-41.76-1.37-57.42a24.24,24.24,0,0,1,3.19,2.13C307,15.7,302.47,4,300.66,1.39l-2.44,5.46,4.09,59.24c.25,5.27.42,8.61-3.57,10.58-9.61,4.76-13-4.32-15.5-9.93-8.24.48-13.32,11.72-12.07,22-3.85,3.38-11.8,6-17.55,4.06-6.25-2.14-5.69-8.31-11.36-12-7.64.34-11.64,8.75-14.67,15.63-1.36,3.09-3.16,8-5.33,10.22-3.73,3.86-7.6,1.16-9.26-2.3-3.75-7.83-1.37-18.88.5-26.91,2.15-9.23.41-16.94.26-25.8a39,39,0,0,0,13.16-8.39c1.51-1.42,3.16-4.17,4.92-8.28,1.39,1.28,2.09,2.44,2.09,3.46a10.77,10.77,0,0,1-.19,2.31,8.12,8.12,0,0,0,1.33-5Zm101,41.17c-1.55-.1-4.65,0-5.94-.27-2.64-.54-2.11-.74-2.58-3.08,2.36-3.18,7.26.79,8.52,3.35ZM116.88,64.78c.23-6.2,6.19-2.79,8.19,1.18l-8.19-1.18ZM169.2,95c10.71.13,25.94-1.48,32.4,5.33,12.18,12.84-23.13,36.78-42.11,24-8.28-5.55-8.49-24.4-3.32-30.66l13,1.29ZM152.41,95l1.5-2.58c-3,0-5.75-1.25-8.23-2.51-1.89,10.22-.69,10.56-6.88,17.08a72,72,0,0,1-14.11,10.6c-7.58,4.26-19.62,8.52-24.36-2.51-1.5-3.51-1.38-6.54-1.9-10.46-13-1.13-13.74-12.85-11.81-25.46-8,1.58-5.23-.62-9.77-3.66-2.68,4.89-5.95,7.51-13.56,7-.21,13.24-3.9,17.51-11.46,22.79-6.42,4.48-14.28,9-23.17,10.9C3,121.58-4.33,101.35,2.3,79.18L2.88,82c-.15,3.16-5.3,16.23,5.59,23.36,14.39,9.42,39.67-1.89,50-12.1,7.92-7.81-7.12-15.53-.63-25.71.19.2,8.71,15.52,18.68,1.92,3.69-5,1.86-5,4.86-5.49-.44,6.36-1.3,9.43,7.29,7.58-.51-4.54-2.43-4.83.67-10.1C95.86,65.89,88.46,77,87.8,81.7c-1.36,9.78,2.42,14.88,11.56,14.86l3.38-8.43-1.2,8.22c8.17-1.54,35.61-19,25.79-22.71a14.33,14.33,0,0,0-4.15-.62c-2.63-.18-4.9,0-7.17-1.17-4.57-2.39-3.46-8.57-1.11-12.59,8.53-14.61,23.51,7.89,15.58,22.84-3.33,6.29-17,17.64-26.55,21.39l-3.14,1.63c4.13,16.88,22.71,6.16,31.06.21,6.92-4.92,11.36-7.6,10.05-13.73-1.36-6.3-7.76-13.16-2.59-19,2.49,2.78,2.92,5.57,5.68,8,3,2.6,5.85,3.11,8.92,5.18,2.77-.78,1.31-.15,3-1.81.19-.18,1.1-1.48,1.33-1.78l8.56-9.92A66.07,66.07,0,0,0,159.91,67c-4.82-2.59-4.34.58-8.91.83,1.93-9.35,4.22-10.68,14.1-12.16,6.65-1,16.32-.34,20.93,3.22a8.1,8.1,0,0,1,2.8,2.13c0,4.89-2.8,8.12-7.29,8.69l-4.3,3.24a20.17,20.17,0,0,0,12.49,3.77c9-1.66,7.64-5.79,7.06-15.3-.43-7-.9-14-1.43-21L193.12,9c-.39-2.84-.79-1.9.12-5a6.8,6.8,0,0,1,2.65-3.8c1.45,5.32,5.17,12.26,5.82,17.77-1.16-.65-2.33-1.65-3.63-1,.92,13.88,4.65,44.89,1.36,56.42-1.29,4.51-4.46,10.41-8.58,10.45-.87.57-.19.34-1.76.68l-4.6-.24a30.67,30.67,0,0,1-5.19-1.8c-4.07-1.81-5.5-3.8-8.5-5.53-4.18,2-9,6.4-10.92,10.19,5.46.48,10.07.6,15.53.66,3.76,0,10.07-.27,13.63.65,6.48,1.83,22.83,1.06,15.9,23.3-7.39,23.76-39.82,31.39-50.14,16.68-5-7.17-6.67-25.26-2.4-33.43Zm15-31.41c1.29,2.06,2.6,2.64,5,4.55l5.45-3.61a32.75,32.75,0,0,0-10.43-.94ZM30,60.48c-1.8-4.41-1.71-8.28-6.95-9.2-.94,1.9-1.39,1.75-1.08,4.47,4.27,2.75,3.6-1.12,6,5.6,2.28,6.26-.3,3.44-.94,9.53,2.59-1.67,1.05-1.84,3.34-.88-.15.13-.41.09-.49.34-.17.58-2.7.77-3.51,3.72-.7,2.55.05,5.27.58,7.73,1.17,5.48,1.22,9.76,2.07,15.16,2.32-9.23-.88-13.79-1.68-21.33.09-.05,16.09-4.63,3-10.34l2.94-11.54c4.51-.21.64,1.58,3.79.66,1-3.07.09-3.78-2.29-4.76-3.41,1.77-3.61,6.09-4.82,10.84Zm262.2,57.41c-2.31-1.38-3.2-2.12-5.37-3.51l-.82.8c-.08.09-.29.31-.38.42l-1.88,2.65-6.28-4.54,2.88-5.62A38.61,38.61,0,0,1,286,112l3-4.25a19.49,19.49,0,0,1,6.18,4.4,9.51,9.51,0,0,1-3,5.74Zm16.92-73.74c1-5,6.5-5.1,15.29-8.57,4.68-1.85,12.63-5.13,17.21-6.29-.87,3.6.33,2.31-7.55,5.17-3.09,1.12-5.3,2-8.35,3.29-4.51,1.84-12.19,5.26-16.6,6.4ZM249.74,53c.93-4.43,2.9-4.08,7.14-5.61l25.27-9.23c-1,3.63-3.47,3.59-7.21,5L249.74,53ZM64,59c3.17-.42,3.26-1.58,3.8-5.38-2.15,2.62,0,1.94-3.72,1.59-1-5.93,8.34-23.79-2.94-28.72-2.92,5.91,5.24,4.57,4.1,15.3C64.68,47.16,59.37,54.23,64,59Zm208.81,46.83c-4.53-.71-1.78,0-2.33-2.16,2.05.56,1.18-1,2.33,2.16Zm-24.3,11.71c5.74-3.33,13.51-5.26,17.52-10.07,1.72-2.06,4.57-7.81,7-5.52,1.3,1.25,2.6,9.59-4.56,4.24-4.32,7.41-10.91,10.79-19.93,11.35ZM171,105.9c.5-3.23,3.4,1.24,3.41-3.69-3.13.14-4.32,2.16-5.39,5.25a16.12,16.12,0,0,0,.94,1.61l.83,1.51c-4,5.75-1.94,10,4.81,8,3.67-1,3.8-2.58,3.93-2.75-3.29.52-5.64,1.36-8.79.47-2.29-4.71,5-5.47,6.18-11.26-2.35.94-3.67,3.34-5.92.81Zm-92.4-3-1.64-.7c-2.49.21.07,1.51-3.51,1.67s-3.66-.8-6.88,1.49l-9.2,9.14c5.93-2,5.37-5,9.46-7.3,4.26-2.35,1.48.73,9.06-1.62,1.8-.56,1.67-.11,3.91-.75.79-2.48,1.2-2.17.34-4.4l-1.54,2.47Zm142-39.41c4.3-2.45,7.11,4.17,3.54,6.21-4.39,2.53-7.69-3.85-3.54-6.21Zm-.33,9.89c3.87-3.67,7.76,2.58,4.29,5.24a3.56,3.56,0,0,1-5.33-.91,2.82,2.82,0,0,1,1-4.33Zm-145.7,13c.18.1.46,0,.55.25.47,1.3.29-.37,2.72,1.31-.62,3.7-2.61,5.12-4.51,7.52,10.8-4.73,5.67-18.6,1.24-9.08Zm70.69,27.11c-.42,4.41-2.76,4.44-4.75,8.25,3.16-2.09,8-5.44,6.39-11.94-3.4-.46-4,.42-5,3.39l3.35.3Zm90.88-2.09c1.53-2.41,4-4,4.46-7.93l-3.26-.39c.87-3.4,1.22-3.76,4.74-3.24,1.71,5.79-2.78,9.82-5.94,11.56ZM146,27.28Q146,24,144.66,24a1.79,1.79,0,0,0-1.33.58A20.74,20.74,0,0,0,146,27.28Zm4,5.2q0-2.11-2.46-4.24a28.31,28.31,0,0,0-.38-3.85c-.38-2.43-1.07-3.65-2.08-3.65-.76,0-1.46.83-2.09,2.5a12,12,0,0,0-.95,3.85c0,.77.6,1.6,1.8,2.5a7.73,7.73,0,0,1,1.8,1.54c0,1.16-1.64,3.4-4.92,6.74a62.28,62.28,0,0,1-12.89,10.39l.19.38A39.24,39.24,0,0,0,141.81,40q2.28-2.11,4.93-8.27c1.39,1.28,2.08,2.44,2.08,3.46a10.91,10.91,0,0,1-.18,2.31,8.12,8.12,0,0,0,1.32-5ZM290.83,55a4.56,4.56,0,0,1-3.41,1.39c-1.93,0-2.9-.75-2.9-2.25A6.89,6.89,0,0,1,285.89,52,9.21,9.21,0,0,1,290.83,55Zm1.2-1.73q0,7.27-4.61,7.28-3.92,0-3.92-4.68A18.46,18.46,0,0,1,285,49.07q2.22-5.19,2.39-5.72.85,3,.17,4.51Q292,50.29,292,53.23ZM103.64,26.68c0-2.52-.6-3.78-1.79-3.78q-3.42,0-5.5,12.84-2.38-7.4-5.5-7.4-2.68,0-2.68,3.62t3,3.48c1.09,0,1.78-.66,2.08-2a70.28,70.28,0,0,1,3.57,7.41q.44-3.48,1-7.1,1-4.84,2.68-4.84a2.83,2.83,0,0,1,1.93,1.21,6.38,6.38,0,0,0,1.19-3.47Zm73.33-5c0-2.18-.44-3.27-1.33-3.27a1.81,1.81,0,0,0-1.32.57A20.35,20.35,0,0,0,177,21.7Zm4,5.19q0-2.12-2.46-4.23a28.17,28.17,0,0,0-.38-3.85c-.38-2.44-1.08-3.66-2.09-3.66-.76,0-1.45.84-2.08,2.51a11.94,11.94,0,0,0-.95,3.85c0,.77.6,1.6,1.8,2.5a7.73,7.73,0,0,1,1.8,1.54c0,1.15-1.64,3.4-4.93,6.73a62.27,62.27,0,0,1-12.88,10.4l.19.38A39.24,39.24,0,0,0,172.8,34.4q2.28-2.11,4.93-8.28c1.39,1.29,2.08,2.44,2.08,3.47a10.21,10.21,0,0,1-.19,2.31,8.08,8.08,0,0,0,1.33-5Zm148-5.61a6.33,6.33,0,0,1-1.19,3.48,2.76,2.76,0,0,0-1.93-1.21q-1.64,0-2.68,4.83-.58,3.63-1,7.1a66.48,66.48,0,0,0-3.57-7.4c-.29,1.31-1,2-2.08,2-2,0-3-1.15-3-3.47s.89-3.63,2.67-3.63q3.14,0,5.51,7.41,2.07-12.84,5.5-12.84c1.19,0,1.78,1.26,1.78,3.77ZM272.27,23.9a6.38,6.38,0,0,1-1.19,3.47,2.81,2.81,0,0,0-1.93-1.21c-1.09,0-2,1.62-2.68,4.84-.4,2.41-.74,4.78-1,7.1a67.45,67.45,0,0,0-3.57-7.4c-.3,1.3-1,2-2.08,2q-3,0-3-3.47c0-2.42.9-3.63,2.68-3.63q3.12,0,5.5,7.4,2.08-12.84,5.5-12.84c1.19,0,1.79,1.26,1.79,3.78ZM326,41.55q-2.21,6.27-1,9.13c.57,1.34,1.28,1.83,2.13,1.46a1.36,1.36,0,0,0,.61-.54,1.42,1.42,0,0,1,.36-.44l.34.14q.31,5-1.32,5.76-2.1.9-3.2-1.71a14,14,0,0,1-.45-7.51c.49-3.12,1.3-5.29,2.44-6.53l.1.24ZM313.76,77.34q-2.2,6.28-1,9.13.84,2,2.13,1.47a1.39,1.39,0,0,0,.6-.54c.17-.26.29-.41.37-.44l.33.13q.33,5.05-1.31,5.76c-1.41.61-2.47,0-3.2-1.7a14,14,0,0,1-.46-7.52q.74-4.66,2.45-6.52l.1.23ZM257.15,63.76q-2.19,6.29-1,9.13.84,2,2.13,1.47a1.39,1.39,0,0,0,.6-.54c.17-.26.29-.41.37-.44l.33.13c.21,3.37-.22,5.29-1.32,5.76-1.4.61-2.47,0-3.19-1.7a14,14,0,0,1-.46-7.52c.49-3.11,1.31-5.28,2.44-6.52l.1.23ZM237,48.81q-2.21,6.28-1,9.13c.56,1.35,1.27,1.83,2.13,1.46a1.39,1.39,0,0,0,.6-.54,1.4,1.4,0,0,1,.37-.44l.33.14c.22,3.37-.22,5.28-1.31,5.76-1.41.6-2.47,0-3.2-1.71a14,14,0,0,1-.46-7.51q.74-4.66,2.45-6.53l.1.24Zm-95.85-.6-.1-.24c-1.14,1.24-2,3.41-2.45,6.53a14,14,0,0,0,.46,7.51c.73,1.74,1.79,2.31,3.2,1.71Q143.93,63,143.6,58l-.33-.14a1.4,1.4,0,0,0-.37.44,1.39,1.39,0,0,1-.6.54c-.86.37-1.57-.12-2.13-1.46q-1.2-2.85,1-9.13ZM102.8,56l-.1-.24q-1.71,1.86-2.45,6.53a14,14,0,0,0,.46,7.51c.73,1.75,1.79,2.31,3.2,1.71q1.64-.7,1.31-5.76l-.33-.14a1.4,1.4,0,0,0-.37.44,1.39,1.39,0,0,1-.6.54c-.86.37-1.57-.11-2.13-1.46Q100.59,62.27,102.8,56Z"/></g></g></svg>